<svg id="Layer_1" data-name="Layer 1" xmlns="http://www.w3.org/2000/svg" viewBox="0 0 50 50"><defs><style>.cls-1{fill:#c1b5b2;}.cls-2{fill:#d3c3be;}.cls-3{fill:#e2dad7;}</style></defs><title>icon semut gajah 2023_shading</title><rect class="cls-1" x="13" y="21" width="30" height="2"/><rect class="cls-1" x="13" y="28" width="30" height="2"/><rect class="cls-2" x="20.058" y="15.968" width="2.001" height="19.064" transform="translate(-2.014 1.807) rotate(-4.69)"/><rect class="cls-2" x="26.527" y="24.5" width="19.064" height="2.001" transform="translate(7.704 59.36) rotate(-85.325)"/><rect class="cls-2" x="27.559" y="16" width="2" height="19"/><path class="cls-2" d="M44,35.014a1.5,1.5,0,0,1-1.5,1.5H14.117a1.5,1.5,0,0,1-1.486-1.3L8.718,6.7A1.5,1.5,0,0,1,10,5.014h0A1.5,1.5,0,0,1,11.69,6.3l3.736,27.218H42.5a1.5,1.5,0,0,1,1.5,1.5Z"/><rect class="cls-1" x="5" y="9" width="8.5" height="3" rx="1.5"/><path class="cls-2" d="M42.391,35.136l-1.982-.272L42.853,17H11V15H44a1,1,0,0,1,.991,1.136Z"/><circle class="cls-3" cx="18.982" cy="40.077" r="4.923"/><circle class="cls-1" cx="18.982" cy="40.077" r="2.077"/><circle class="cls-3" cx="38.136" cy="40.077" r="4.923"/><circle class="cls-1" cx="38.136" cy="40.077" r="2.077"/><rect class="cls-3" x="22.559" y="14" width="12" height="9" rx="1"/><rect class="cls-1" x="25" y="18" width="7.118" height="2" rx="1"/></svg>