<svg id="Layer_1" data-name="Layer 1" xmlns="http://www.w3.org/2000/svg" viewBox="0 0 50 50"><defs><style>.cls-1{fill:#f2bb4c;}.cls-2{fill:#f9cb64;}.cls-3{fill:#479933;}.cls-4{fill:#51af3e;}.cls-5{fill:#fff;}</style></defs><title>icon semut gajah 2023_shading</title><rect class="cls-1" x="5" y="19" width="26.679" height="20.962" rx="8" transform="translate(36.679 58.962) rotate(-180)"/><path class="cls-2" d="M23.679,19H13a7.941,7.941,0,0,0-3.4.768A10.424,10.424,0,0,0,9,23.207C9,30,15.48,35.5,23.474,35.5a16.231,16.231,0,0,0,8.069-2.1,8,8,0,0,0,.136-1.436V27A8,8,0,0,0,23.679,19Z"/><path class="cls-1" d="M10.413,39.228,15.889,44.7a1,1,0,0,0,1.7-.849l-.842-5.893Z"/><rect class="cls-3" x="13.182" y="5" width="31.818" height="25" rx="8"/><path class="cls-3" d="M39.587,29.266l-5.476,5.476a1,1,0,0,1-1.7-.849L33.256,28Z"/><path class="cls-4" d="M37,5H21.182a7.959,7.959,0,0,0-4.016,1.088A13.4,13.4,0,0,0,16,11.5C16,20.06,24.171,27,34.25,27a20.445,20.445,0,0,0,10.435-2.794A7.989,7.989,0,0,0,45,22V13A8,8,0,0,0,37,5Z"/><circle class="cls-5" cx="22.091" cy="17.5" r="1.5"/><circle class="cls-5" cx="29.091" cy="17.5" r="1.5"/><circle class="cls-5" cx="36.091" cy="17.5" r="1.5"/></svg>