<svg id="Layer_1" data-name="Layer 1" xmlns="http://www.w3.org/2000/svg" viewBox="0 0 50 50"><defs><style>.cls-1{fill:#479933;}.cls-2{fill:#51af3e;}.cls-3{fill:#fff;}</style></defs><title>icon semut gajah 2023_shading</title><circle class="cls-1" cx="25" cy="25" r="20"/><path class="cls-2" d="M25,5a19.889,19.889,0,0,0-9.219,2.263A18.362,18.362,0,0,0,9,21.5a18.795,18.795,0,0,0,35.291,8.707A19.937,19.937,0,0,0,25,5Z"/><path class="cls-3" d="M14.331,12.5a1.809,1.809,0,0,0-1.354.6,1.847,1.847,0,0,0-.468,1.416A25.615,25.615,0,0,0,35.485,37.491a1.841,1.841,0,0,0,1.415-.469,1.807,1.807,0,0,0,.6-1.353V31.581a1.818,1.818,0,0,0-1.6-1.808,17.743,17.743,0,0,1-3.9-.911,1.148,1.148,0,0,0-.968.079h0L28.066,30.7a.491.491,0,0,1-.488.006,21.451,21.451,0,0,1-8.284-8.285.489.489,0,0,1,.006-.488l1.759-2.964A1.142,1.142,0,0,0,21.137,18a17.921,17.921,0,0,1-.911-3.9,1.817,1.817,0,0,0-1.808-1.6Z"/></svg>