<svg id="Layer_1" data-name="Layer 1" xmlns="http://www.w3.org/2000/svg" viewBox="0 0 50 50"><defs><style>.cls-1{fill:#ea7c32;}.cls-2{fill:#e27023;}.cls-3{fill:#f9cb64;}</style></defs><title>icon semut gajah 2023_shading</title><path class="cls-1" d="M43,5H7A2,2,0,0,0,5,7V34a2,2,0,0,0,2,2h9.917a4,4,0,0,1,3.464,2l3.753,6.5a1,1,0,0,0,1.732,0L29.619,38a4,4,0,0,1,3.464-2H43a2,2,0,0,0,2-2V7A2,2,0,0,0,43,5Z"/><path class="cls-2" d="M44.609,35.178,5.674,5.513A1.987,1.987,0,0,0,5,7V34a2,2,0,0,0,2,2h9.917a4,4,0,0,1,3.464,2l3.753,6.5a1,1,0,0,0,1.732,0L29.619,38a4,4,0,0,1,3.464-2H43A1.993,1.993,0,0,0,44.609,35.178Z"/><polygon class="cls-3" points="25 12.892 27.739 17.534 33 18.704 29.431 22.743 29.944 28.108 25 25.962 20.056 28.108 20.569 22.743 17 18.704 22.261 17.534 25 12.892"/></svg>