<svg id="Layer_1" data-name="Layer 1" xmlns="http://www.w3.org/2000/svg" viewBox="0 0 50 50"><defs><style>.cls-1{fill:#ce1717;}.cls-2{fill:#e02626;}.cls-3{fill:#fff;}</style></defs><title>icon semut gajah 2023_shading</title><circle class="cls-1" cx="25" cy="25" r="20"/><path class="cls-2" d="M25,5a19.889,19.889,0,0,0-9.219,2.263A18.362,18.362,0,0,0,9,21.5a18.795,18.795,0,0,0,35.291,8.707A19.937,19.937,0,0,0,25,5Z"/><rect class="cls-3" x="23.5" y="13.5" width="3" height="18.3"/><path class="cls-3" d="M25,36.5A1.5,1.5,0,0,1,23.5,35v-.1a1.5,1.5,0,0,1,3,0V35A1.5,1.5,0,0,1,25,36.5Z"/></svg>