<svg id="Layer_1" data-name="Layer 1" xmlns="http://www.w3.org/2000/svg" viewBox="0 0 50 50"><defs><style>.cls-1{fill:#e27023;}.cls-2{fill:#ea7c32;}</style></defs><title>icon semut gajah 2023_shading</title><path class="cls-1" d="M44.107,21.4l-4.688-.5A14.907,14.907,0,0,0,38.1,17.7l2.956-3.666a1,1,0,0,0-.071-1.335L37.3,9.018a1,1,0,0,0-1.335-.071L32.3,11.9a14.907,14.907,0,0,0-3.2-1.322l-.5-4.688A1,1,0,0,0,27.6,5H22.4a1,1,0,0,0-1,.893l-.5,4.688A14.907,14.907,0,0,0,17.7,11.9L14.032,8.947a1,1,0,0,0-1.335.071L9.018,12.7a1,1,0,0,0-.071,1.335L11.9,17.7a14.907,14.907,0,0,0-1.322,3.2l-4.688.5A1,1,0,0,0,5,22.4v5.2a1,1,0,0,0,.893,1l4.688.5A14.907,14.907,0,0,0,11.9,32.3L8.947,35.968A1,1,0,0,0,9.018,37.3L12.7,40.982a1,1,0,0,0,1.335.071L17.7,38.1a14.907,14.907,0,0,0,3.2,1.322l.5,4.688a1,1,0,0,0,1,.893h5.2a1,1,0,0,0,1-.893l.5-4.688A14.907,14.907,0,0,0,32.3,38.1l3.666,2.956a1,1,0,0,0,1.335-.071L40.982,37.3a1,1,0,0,0,.071-1.335L38.1,32.3a14.907,14.907,0,0,0,1.322-3.2l4.688-.5a1,1,0,0,0,.893-1V22.4A1,1,0,0,0,44.107,21.4ZM25,33a8,8,0,1,1,8-8A8,8,0,0,1,25,33Z"/><path class="cls-2" d="M44.107,28.6a1,1,0,0,0,.893-1V22.4a1,1,0,0,0-.893-1l-4.688-.5A14.907,14.907,0,0,0,38.1,17.7l2.956-3.666a1,1,0,0,0-.071-1.335L37.3,9.018a1,1,0,0,0-1.335-.071L32.3,11.9a14.907,14.907,0,0,0-3.2-1.322l-.5-4.688A1,1,0,0,0,27.6,5H22.4a1,1,0,0,0-1,.893l-.5,4.688A14.907,14.907,0,0,0,17.7,11.9l-2.165-1.746a17.5,17.5,0,0,0,24.31,24.31L38.1,32.3a14.907,14.907,0,0,0,1.322-3.2ZM25,33a8,8,0,1,1,8-8A8,8,0,0,1,25,33Z"/></svg>