<svg id="Layer_1" data-name="Layer 1" xmlns="http://www.w3.org/2000/svg" viewBox="0 0 50 50"><defs><style>.cls-1{fill:#773e18;}.cls-2{fill:#e27023;}.cls-3{fill:#ea7c32;}.cls-4{fill:#fff;}</style></defs><title>icon semut gajah 2023_shading</title><path class="cls-1" d="M39,35H9V20a15,15,0,0,1,30,0ZM15,29H33V20a9,9,0,0,0-18,0Z"/><path class="cls-2" d="M4,24v9A12,12,0,0,0,16,45H32A12,12,0,0,0,44,33V24a4,4,0,0,0-4-4H8A4,4,0,0,0,4,24Z"/><path class="cls-3" d="M37,40a11.936,11.936,0,0,0,5.606-1.394A11.936,11.936,0,0,0,44,33V24a4,4,0,0,0-4-4H9v8A12,12,0,0,0,21,40Z"/><rect class="cls-4" x="34.17" y="28.078" width="2" height="8.844"/><rect class="cls-4" x="30.748" y="31.5" width="8.844" height="2" transform="translate(-11.537 21.935) rotate(-29.995)"/><rect class="cls-4" x="34.17" y="28.078" width="2" height="8.844" transform="translate(-10.56 46.709) rotate(-60.001)"/><rect class="cls-4" x="23" y="28.078" width="2" height="8.844"/><rect class="cls-4" x="19.578" y="31.5" width="8.844" height="2" transform="translate(-13.033 16.351) rotate(-29.995)"/><rect class="cls-4" x="23" y="28.078" width="2" height="8.844" transform="translate(-16.146 37.035) rotate(-60.001)"/><rect class="cls-4" x="11.83" y="28.078" width="2" height="8.844"/><rect class="cls-4" x="8.408" y="31.5" width="8.844" height="2" transform="translate(-14.529 10.766) rotate(-29.995)"/><rect class="cls-4" x="11.829" y="28.078" width="2" height="8.844" transform="translate(-21.731 27.361) rotate(-60.001)"/></svg>