<svg id="Layer_1" data-name="Layer 1" xmlns="http://www.w3.org/2000/svg" viewBox="0 0 50 50"><defs><style>.cls-1{fill:#479933;}.cls-2{fill:#51af3e;}</style></defs><title>icon semut gajah 2023_shading</title><path class="cls-1" d="M32.936,5.3,37.487,9.85a1.021,1.021,0,0,1,0,1.444L24.5,24.278a1.021,1.021,0,0,0,0,1.444L37.487,38.706a1.021,1.021,0,0,1,0,1.444L32.936,44.7a1.021,1.021,0,0,1-1.444,0L12.513,25.722a1.021,1.021,0,0,1,0-1.444L31.492,5.3A1.021,1.021,0,0,1,32.936,5.3Z"/><path class="cls-2" d="M32.936,5.3a1.021,1.021,0,0,0-1.444,0L17.177,19.615a17,17,0,0,0,7.036,5.435,1.006,1.006,0,0,1,.29-.772L37.487,11.294a1.021,1.021,0,0,0,0-1.444Z"/></svg>