<svg id="Layer_1" data-name="Layer 1" xmlns="http://www.w3.org/2000/svg" viewBox="0 0 50 50"><defs><style>.cls-1{fill:#ce1717;}.cls-2{fill:#e02626;}.cls-3{fill:#edac3a;}.cls-4{fill:#e89e28;}.cls-5{fill:#e5931c;}.cls-6{fill:#f9cb64;}.cls-7{fill:#f2bb4c;}.cls-8{fill:#479933;}.cls-9{fill:#51af3e;}.cls-10{fill:#5cc443;}.cls-11{fill:#773e18;}.cls-12{fill:#9e5726;}.cls-13{fill:#5b2b10;}.cls-14{fill:#ea7c32;}.cls-15{fill:#f4964a;}.cls-16{fill:#e27023;}.cls-17{fill:#e2dad7;}.cls-18{fill:#d3c3be;}.cls-19{fill:#fff;}</style></defs><title>icon semut gajah 2023_shading</title><path class="cls-1" d="M28.834,17.7a7.865,7.865,0,1,1-15.326-3.544c.978-4.232,5.053-5.628,9.286-4.649S29.813,13.465,28.834,17.7Z"/><path class="cls-2" d="M22.794,9.5a10.135,10.135,0,0,0-4.471-.088,7.862,7.862,0,0,0,10.7,6.838C29.131,12.79,26.527,10.367,22.794,9.5Z"/><path class="cls-3" d="M27.933,6.57a1.261,1.261,0,0,0-1.724,1.68,18.417,18.417,0,0,1,1.875,8.609c-.252,9.962-8.563,15.084-18.447,15.1v4.595A26.569,26.569,0,0,0,23.812,37.9,15.635,15.635,0,0,0,37.387,22.63,18.485,18.485,0,0,0,27.933,6.57Z"/><path class="cls-4" d="M26.96,6.479a1.268,1.268,0,0,0-.751,1.771,18.417,18.417,0,0,1,1.875,8.609c-.252,9.962-8.563,15.084-18.447,15.1v2.819a29.972,29.972,0,0,0,9.15-.054,15.635,15.635,0,0,0,13.575-15.27A18.415,18.415,0,0,0,26.96,6.479Z"/><path class="cls-5" d="M23.8,7.387a9.947,9.947,0,0,1,1.489-1.12,9.552,9.552,0,0,1,1.672-.823,7.393,7.393,0,0,1,1.931-.426,6.4,6.4,0,0,1,2.09.2,1.507,1.507,0,0,1-.742,2.921q-.046-.012-.093-.027l-.08-.026A3.454,3.454,0,0,0,29,7.885a4.566,4.566,0,0,0-1.2.155,6.8,6.8,0,0,0-1.239.479,7.875,7.875,0,0,0-1.134.694l-.076.057A1.223,1.223,0,0,1,23.8,7.387Z"/><path class="cls-4" d="M32.066,7.052a1.507,1.507,0,0,0-1.089-1.831c-.071-.018-.142-.03-.214-.046a1.123,1.123,0,0,0-.116,0,1.444,1.444,0,0,0-1.173,1.666,1.459,1.459,0,0,0,1.38,1.323A1.5,1.5,0,0,0,32.066,7.052Z"/><path class="cls-6" d="M37.5,6.427a1.26,1.26,0,0,0-1.922,1.449,18.426,18.426,0,0,1,.778,8.777C34.814,26.761,25.5,30.763,15.39,29.221a25.31,25.31,0,0,1-5.954-1.65c3.1,6.232,10.834,9.65,20.037,9.418A15.633,15.633,0,0,0,44.859,23.547,18.482,18.482,0,0,0,37.5,6.427Z"/><path class="cls-7" d="M35.578,7.876a18.426,18.426,0,0,1,.778,8.777C34.814,26.761,25.5,30.763,15.39,29.221a25.31,25.31,0,0,1-5.954-1.65,13.683,13.683,0,0,0,1.717,2.612,26.7,26.7,0,0,0,13.734,3.023A15.636,15.636,0,0,0,40.274,19.764a18.407,18.407,0,0,0-3.728-13.55A1.268,1.268,0,0,0,35.578,7.876Z"/><path class="cls-3" d="M33.292,6.717a9.918,9.918,0,0,1,1.618-.924,9.433,9.433,0,0,1,1.762-.606,7.4,7.4,0,0,1,1.969-.181,6.4,6.4,0,0,1,2.048.465,1.507,1.507,0,1,1-1.1,2.8L39.5,8.237,39.421,8.2a3.45,3.45,0,0,0-1.028-.336,4.533,4.533,0,0,0-1.209,0,6.855,6.855,0,0,0-1.289.319,7.992,7.992,0,0,0-1.213.546L34.6,8.78a1.223,1.223,0,0,1-1.308-2.063Z"/><path class="cls-7" d="M41.54,7.425a1.507,1.507,0,0,0-.851-1.954c-.068-.027-.137-.048-.206-.073a1.112,1.112,0,0,0-.116-.013,1.444,1.444,0,0,0-1.373,1.506,1.459,1.459,0,0,0,1.2,1.486A1.507,1.507,0,0,0,41.54,7.425Z"/><path class="cls-8" d="M40.263,27.862C39.214,34.2,35.008,39.487,28.526,39.487A11.681,11.681,0,0,1,16.788,27.862c0-6.42,8.33-11.849,14.813-11.849S41.313,21.525,40.263,27.862Z"/><path class="cls-9" d="M24.3,17.955C25.469,20.843,30.035,23,35.5,23a19.286,19.286,0,0,0,4.562-.534A8.317,8.317,0,0,0,31.6,16.013,16.36,16.36,0,0,0,24.3,17.955Z"/><path class="cls-10" d="M10.131,31.793a1.086,1.086,0,0,0,1.063-.878L15.346,9.359a1.472,1.472,0,0,1,1.445-1.193h4.47a1.083,1.083,0,1,0,0-2.166h-4.47a3.644,3.644,0,0,0-3.573,2.95L9.066,30.505a1.084,1.084,0,0,0,.859,1.268A1.034,1.034,0,0,0,10.131,31.793Z"/><path class="cls-11" d="M36.192,18.648a10.777,10.777,0,0,0,1.256-.977,8.7,8.7,0,0,0,1.034-1.116A6.364,6.364,0,0,0,39.7,13.909V13.9a.84.84,0,0,1,1.65.318l-.008.036a7.964,7.964,0,0,1-1.668,3.257A10.206,10.206,0,0,1,38.4,18.769a12.06,12.06,0,0,1-1.4,1l-.057.035a.687.687,0,0,1-.746-1.153Z"/><path class="cls-12" d="M41.348,14.22a.838.838,0,0,0-1.64-.341v0a.865.865,0,0,0,.86.87.856.856,0,0,0,.775-.506Z"/><rect class="cls-13" x="7" y="28" width="36" height="11"/><rect class="cls-11" x="5" y="35" width="40" height="10" rx="1"/><rect class="cls-11" x="5" y="23" width="40" height="10" rx="1"/><path class="cls-14" d="M39.42,37.778C39.42,42.347,35.8,45,31.23,45s-8.357-2.653-8.357-7.222a8.274,8.274,0,1,1,16.547,0Z"/><path class="cls-15" d="M39.4,38.125c.005-.116.017-.228.017-.347a8.262,8.262,0,0,0-12.462-7.127,8.36,8.36,0,0,0-.085,1.127c0,4.569,3.787,7.222,8.356,7.222A9.845,9.845,0,0,0,39.4,38.125Z"/><circle class="cls-16" cx="35.159" cy="39.975" r="0.487"/><circle class="cls-16" cx="37.022" cy="40.653" r="0.487"/><circle class="cls-16" cx="34.863" cy="42.182" r="0.487"/><rect class="cls-17" x="5" y="15" width="16" height="30" rx="1"/><path class="cls-18" d="M12.053,15,9.066,30.505a1.084,1.084,0,0,0,.859,1.268,1.114,1.114,0,0,0,.206.02,1.086,1.086,0,0,0,1.063-.878L14.259,15Z"/><rect class="cls-7" x="7" y="23" width="12" height="20"/><path class="cls-3" d="M10.512,23l-1.446,7.5a1.084,1.084,0,0,0,.859,1.268,1.114,1.114,0,0,0,.206.02,1.086,1.086,0,0,0,1.063-.878L12.718,23Z"/><rect class="cls-19" x="7" y="17" width="8" height="2" rx="1"/><rect class="cls-19" x="16" y="17" width="3" height="2" rx="1"/></svg>