<svg id="Layer_1" data-name="Layer 1" xmlns="http://www.w3.org/2000/svg" viewBox="0 0 50 50"><defs><style>.cls-1{fill:#5b2b10;}.cls-2{fill:#773e18;}.cls-3{fill:#9e5726;}.cls-4{fill:#f2bb4c;}</style></defs><title>icon semut gajah 2023_shading</title><rect class="cls-1" x="8.887" y="6.808" width="22.235" height="36.385" rx="2.021" transform="translate(7.177 -4.336) rotate(15.048)"/><rect class="cls-2" x="8.887" y="6.808" width="22.235" height="36.385" rx="2.021" transform="translate(7.177 -4.336) rotate(15.048)"/><path class="cls-1" d="M14.8,5.1a2.015,2.015,0,0,0-1.334,1.4L5.07,37.73A2.021,2.021,0,0,0,6.5,40.207L24.066,44.93a2.011,2.011,0,0,0,1.577-.231Z"/><rect class="cls-3" x="11.798" y="10.303" width="16.666" height="28.452" transform="translate(7.059 -4.386) rotate(15.048)"/><polygon class="cls-2" points="15.778 8.627 8.391 36.103 24.485 40.43 15.778 8.627"/><rect class="cls-4" x="31.5" y="29" width="12" height="3"/><path class="cls-4" d="M40.561,35.561l-2.122-2.122,2.94-2.939-2.94-2.939,2.122-2.122,4,4a1.5,1.5,0,0,1,0,2.122Z"/></svg>