<svg id="Layer_1" data-name="Layer 1" xmlns="http://www.w3.org/2000/svg" viewBox="0 0 50 50"><defs><style>.cls-1{fill:#d3c3be;}.cls-2{fill:#e2dad7;}.cls-3{fill:#5b2b10;}.cls-4{fill:#773e18;}.cls-5{fill:#9e5726;}</style></defs><title>icon semut gajah 2023_shading</title><circle class="cls-1" cx="25" cy="25" r="20"/><path class="cls-2" d="M25,5a19.889,19.889,0,0,0-9.219,2.263A18.362,18.362,0,0,0,9,21.5a18.795,18.795,0,0,0,35.291,8.707A19.937,19.937,0,0,0,25,5Z"/><path class="cls-3" d="M25,45a19.934,19.934,0,0,0,15.014-6.817,16.481,16.481,0,0,0-30.028,0A19.934,19.934,0,0,0,25,45Z"/><path class="cls-4" d="M38.992,36.29a16.456,16.456,0,0,0-25.645-2.951A18.9,18.9,0,0,0,38.992,36.29Z"/><path class="cls-4" d="M15.181,31.756a36.41,36.41,0,0,0,2.911,12.005,19.877,19.877,0,0,0,13.816,0,36.435,36.435,0,0,0,2.911-12.005,16.433,16.433,0,0,0-19.638,0Z"/><path class="cls-5" d="M33.564,39.081a42.375,42.375,0,0,0,1.255-7.325,16.433,16.433,0,0,0-19.638,0c.115,1.348.289,2.646.505,3.9a18.894,18.894,0,0,0,17.878,3.428Z"/><circle class="cls-4" cx="25" cy="20" r="10"/></svg>