<svg id="Layer_1" data-name="Layer 1" xmlns="http://www.w3.org/2000/svg" viewBox="0 0 50 50"><defs><style>.cls-1{fill:#d3c3be;}.cls-2{fill:#e2dad7;}.cls-3{fill:#773e18;}.cls-4{fill:#ce1717;}.cls-5{fill:#e02626;}</style></defs><title>icon semut gajah 2023_shading</title><path class="cls-1" d="M25,9.521,9,20.188V40.5a2,2,0,0,0,2,2H39a2,2,0,0,0,2-2V20.188Z"/><path class="cls-2" d="M25,9.521,10.853,18.953A24.08,24.08,0,0,0,41,39.583V20.188Z"/><path class="cls-3" d="M25,27.5h0a5.417,5.417,0,0,1,5.417,5.417V42.5a0,0,0,0,1,0,0H19.583a0,0,0,0,1,0,0V32.917A5.417,5.417,0,0,1,25,27.5Z"/><path class="cls-4" d="M43.991,22.5H6.009a1,1,0,0,1-.958-1.312l4.3-13a1.007,1.007,0,0,1,.957-.688H39.692a1.007,1.007,0,0,1,.957.688l4.3,13A1,1,0,0,1,43.991,22.5Z"/><path class="cls-5" d="M9.728,7.685,44.861,21.992a.978.978,0,0,0,.088-.8l-4.3-13a1.007,1.007,0,0,0-.957-.688H10.308A1.006,1.006,0,0,0,9.728,7.685Z"/></svg>