<svg id="Layer_1" data-name="Layer 1" xmlns="http://www.w3.org/2000/svg" viewBox="0 0 50 50"><defs><style>.cls-1{fill:#FFFFFF;}.cls-2{fill:#FFFFFF;}</style></defs><title>icon semut gajah 2023_shading</title><path class="cls-1" d="M17.064,5.3,12.513,9.85a1.021,1.021,0,0,0,0,1.444L25.5,24.278a1.021,1.021,0,0,1,0,1.444L12.513,38.706a1.021,1.021,0,0,0,0,1.444L17.064,44.7a1.021,1.021,0,0,0,1.444,0L37.487,25.722a1.021,1.021,0,0,0,0-1.444L18.508,5.3A1.021,1.021,0,0,0,17.064,5.3Z"/><path class="cls-2" d="M17.064,5.3a1.021,1.021,0,0,1,1.444,0L32.823,19.615a17,17,0,0,1-7.036,5.435,1.006,1.006,0,0,0-.29-.772L12.513,11.294a1.021,1.021,0,0,1,0-1.444Z"/></svg>