<svg id="Layer_1" data-name="Layer 1" xmlns="http://www.w3.org/2000/svg" viewBox="0 0 50 50"><defs><style>.cls-1{fill:#d3c3be;}.cls-2{fill:#e2dad7;}.cls-3{fill:#e02626;}.cls-4{fill:#773e18;}.cls-5{fill:#5b2b10;}</style></defs><title>icon semut gajah 2023_shading</title><rect class="cls-1" x="5" y="5" width="40" height="40" rx="2"/><path class="cls-2" d="M45,7a2,2,0,0,0-2-2H7a1.994,1.994,0,0,0-1.414.586L44.414,44.414A1.994,1.994,0,0,0,45,43Z"/><path class="cls-3" d="M33,14.257a4.184,4.184,0,0,0-8-1.788,4.184,4.184,0,0,0-8,1.788C17,20.946,25,25,25,25S33,20.946,33,14.257Z"/><rect class="cls-4" x="11" y="31" width="28" height="3"/><rect class="cls-4" x="11" y="37" width="28" height="3"/><rect class="cls-5" x="11" y="31" width="2" height="3"/><rect class="cls-5" x="11" y="37" width="2" height="3"/></svg>