<svg id="Layer_1" data-name="Layer 1" xmlns="http://www.w3.org/2000/svg" viewBox="0 0 50 50"><defs><style>.cls-1{fill:#479933;}.cls-2{fill:#51af3e;}.cls-3{fill:#edac3a;}.cls-4{fill:#f2bb4c;}.cls-5{fill:#e27023;}.cls-6{fill:#ea7c32;}.cls-7{fill:#f9cb64;}.cls-8{fill:#5b2b10;}.cls-9{fill:#773e18;}</style></defs><title>icon semut gajah 2023_shading</title><circle class="cls-1" cx="27" cy="19.8" r="3.6"/><circle class="cls-1" cx="32.4" cy="26.4" r="6.6"/><path class="cls-2" d="M38.761,24.664a6.543,6.543,0,0,0-7.424-4.771,4.568,4.568,0,1,0,7.424,4.771Z"/><path class="cls-3" d="M16.625,17.875h-9.3l-.456,1.476A42.066,42.066,0,0,0,5,31.75v11.7A1.55,1.55,0,0,0,6.55,45H17.4a1.55,1.55,0,0,0,1.55-1.55V31.75a42.066,42.066,0,0,0-1.869-12.4Z"/><path class="cls-4" d="M6.541,27.678A13.611,13.611,0,0,0,18.95,41.232V31.75a42.066,42.066,0,0,0-1.869-12.4l-.456-1.476h-5.9A13.566,13.566,0,0,0,6.541,27.678Z"/><rect class="cls-5" x="5.775" y="14" width="12.4" height="4.65" rx="1.5"/><path class="cls-6" d="M16.675,14h-9.1v1.583a1.5,1.5,0,0,0,1.5,1.5h9.1V15.5A1.5,1.5,0,0,0,16.675,14Z"/><circle class="cls-1" cx="21.6" cy="26.4" r="6.6"/><path class="cls-2" d="M27.961,24.664a6.543,6.543,0,0,0-7.424-4.771,4.568,4.568,0,1,0,7.424,4.771Z"/><path class="cls-4" d="M34.122,24.432a5.5,5.5,0,0,0,10.459,3.407Z"/><path class="cls-7" d="M41.061,30.31a7.015,7.015,0,0,0,2.264-.379,5.465,5.465,0,0,0,1.256-2.092l-10.449-3.4A7.027,7.027,0,0,0,41.061,30.31Z"/><path class="cls-3" d="M31.429,17.771a5.5,5.5,0,1,0,10.5-3.29Z"/><path class="cls-3" d="M23.205,12.927A5.5,5.5,0,1,0,30.831,5Z"/><path class="cls-8" d="M44.225,29.5H14.775a.775.775,0,0,0-.775.775V32.6a15.434,15.434,0,0,0,5.268,11.62,3.129,3.129,0,0,0,2.065.78H37.667a3.129,3.129,0,0,0,2.065-.78A15.434,15.434,0,0,0,45,32.6V30.275A.775.775,0,0,0,44.225,29.5Z"/><path class="cls-9" d="M44.225,29.5H15.861A20.552,20.552,0,0,0,41.372,42.54,15.386,15.386,0,0,0,45,32.6V30.275A.775.775,0,0,0,44.225,29.5Z"/><path class="cls-4" d="M32.772,17.35a6.433,6.433,0,0,0,5.088,2.427,6.553,6.553,0,0,0,3.706-1.135,5.477,5.477,0,0,0,.359-4.161Z"/><path class="cls-4" d="M25.409,10.655a5.268,5.268,0,0,0,6.523.758A5.483,5.483,0,0,0,30.849,5Z"/></svg>