<svg id="Layer_1" data-name="Layer 1" xmlns="http://www.w3.org/2000/svg" viewBox="0 0 50 50"><defs><style>.cls-1{fill:#c1b5b2;}.cls-2{fill:#d3c3be;}.cls-3{fill:#479933;}.cls-4{fill:#51af3e;}.cls-5{fill:#5cc443;}.cls-6{fill:#773e18;}</style></defs><title>icon semut gajah 2023_shading</title><path class="cls-1" d="M25,9.521,9,20.188V40.5a2,2,0,0,0,2,2H39a2,2,0,0,0,2-2V20.188Z"/><path class="cls-2" d="M25,9.521,10.853,18.953A24.08,24.08,0,0,0,41,39.583V20.188Z"/><path class="cls-3" d="M43.991,22.5H6.009a1,1,0,0,1-.958-1.312l4.3-13a1.007,1.007,0,0,1,.957-.688H39.692a1.007,1.007,0,0,1,.957.688l4.3,13A1,1,0,0,1,43.991,22.5Z"/><path class="cls-4" d="M9.728,7.685,44.861,21.992a.978.978,0,0,0,.088-.8l-4.3-13a1.007,1.007,0,0,0-.957-.688H10.308A1.006,1.006,0,0,0,9.728,7.685Z"/><polygon class="cls-2" points="25 16.477 16.5 22.144 16.5 23 33.5 23 33.5 22.144 25 16.477"/><path class="cls-5" d="M35.125,24a1.115,1.115,0,0,1-.623-.189L25,17.477l-9.5,6.335A1.125,1.125,0,0,1,14.25,21.94l10.126-6.751a1.125,1.125,0,0,1,1.248,0L35.75,21.94A1.125,1.125,0,0,1,35.125,24Z"/><rect class="cls-6" x="14" y="25" width="6" height="6" rx="1"/><rect class="cls-6" x="22" y="25" width="6" height="6" rx="1"/><rect class="cls-6" x="30" y="25" width="6" height="6" rx="1"/><rect class="cls-6" x="14" y="33" width="6" height="6" rx="1"/><rect class="cls-6" x="22" y="33" width="6" height="6" rx="1"/><rect class="cls-6" x="30" y="33" width="6" height="6" rx="1"/></svg>