<svg id="Layer_1" data-name="Layer 1" xmlns="http://www.w3.org/2000/svg" viewBox="0 0 50 50"><defs><style>.cls-1{fill:#479933;}.cls-2{fill:#51af3e;}.cls-3{fill:#edac3a;}.cls-4{fill:#f2bb4c;}</style></defs><title>icon semut gajah 2023_shading</title><path class="cls-1" d="M26,13.5H23a5.5,5.5,0,0,0-11,0H9a8.5,8.5,0,0,1,17,0Z"/><rect class="cls-1" x="5" y="13" width="25" height="32"/><path class="cls-2" d="M5.917,23.82c0,9.37,8.649,16.966,19.319,16.966A21.81,21.81,0,0,0,30,40.245V13H10.357A15.708,15.708,0,0,0,5.917,23.82Z"/><rect class="cls-3" x="19" y="25" width="26" height="20"/><path class="cls-4" d="M20.65,30.758c0,6.965,6.429,12.611,14.36,12.611A15.389,15.389,0,0,0,45,39.806V25H22.244A11.333,11.333,0,0,0,20.65,30.758Z"/><path class="cls-1" d="M23.5,28h3a5.5,5.5,0,0,0,11,0h3a8.5,8.5,0,0,1-17,0Z"/></svg>