<svg id="Layer_1" data-name="Layer 1" xmlns="http://www.w3.org/2000/svg" viewBox="0 0 50 50"><defs><style>.cls-1{fill:#e27023;}.cls-2{fill:#ea7c32;}.cls-3{fill:#edac3a;}.cls-4{fill:#f2bb4c;}</style></defs><title>icon semut gajah 2023_shading</title><path class="cls-1" d="M20,5c0,7.725,15,12.047,15,25.025a15,15,0,0,1-30,0C5,21.04,12,12.056,20,5Z"/><path class="cls-2" d="M20,5.033A20.571,20.571,0,0,0,13.615,17.6c-1.128,10.532,6.954,19.12,18.052,19.183.584,0,1.164-.03,1.741-.073A14.875,14.875,0,0,0,35,30.025C35,17.066,20.046,12.737,20,5.033Z"/><path class="cls-3" d="M35.641,5c0,4.828-9.359,7.53-9.359,15.641a9.359,9.359,0,0,0,18.718,0C45,15.025,40.632,9.41,35.641,5Z"/><path class="cls-4" d="M44.762,18.359c-.963-4.825-4.792-9.528-9.1-13.336a12.587,12.587,0,0,0-.054,2.62C36.094,13.305,40.119,17.935,44.762,18.359Z"/></svg>