<svg id="Layer_1" data-name="Layer 1" xmlns="http://www.w3.org/2000/svg" viewBox="0 0 50 50"><defs><style>.cls-1{fill:#5b2b10;}.cls-2{fill:#e02626;}.cls-3{fill:#ce1717;}.cls-4{fill:#773e18;}</style></defs><title>icon semut gajah 2023_shading</title><rect class="cls-1" x="20" y="26" width="10" height="19"/><path class="cls-2" d="M12.5,15h25A7.5,7.5,0,0,1,45,22.5V33a2,2,0,0,1-2,2H7a2,2,0,0,1-2-2V22.5A7.5,7.5,0,0,1,12.5,15Z"/><path class="cls-3" d="M5,22.5V33a2,2,0,0,0,2,2H43a2,2,0,0,0,2-2V22.5Z"/><path class="cls-4" d="M12.5,15h0A7.5,7.5,0,0,1,20,22.5V33a2,2,0,0,1-2,2H7a2,2,0,0,1-2-2V22.5A7.5,7.5,0,0,1,12.5,15Z"/><path class="cls-1" d="M20,33V22.5a7.5,7.5,0,0,0-5.761-7.289A7.5,7.5,0,0,0,8.478,22.5V33a2,2,0,0,0,2,2H18A2,2,0,0,0,20,33Z"/><path class="cls-1" d="M33,5H29a2,2,0,0,0-2,2V26a2,2,0,0,0,2,2h1a2,2,0,0,0,2-2V13a1,1,0,0,1,1-1h0a2,2,0,0,0,2-2V7A2,2,0,0,0,33,5Z"/></svg>