<svg id="Layer_1" data-name="Layer 1" xmlns="http://www.w3.org/2000/svg" viewBox="0 0 50 50"><defs><style>.cls-1{fill:#ce1717;}.cls-2{fill:#e02626;}.cls-3{fill:#fff;}</style></defs><title>icon semut gajah 2023_shading</title><path class="cls-1" d="M44,16.892a10.46,10.46,0,0,0-20-4.469A10.46,10.46,0,0,0,4,16.892C4,33.615,24,43.75,24,43.75S44,33.615,44,16.892Z"/><path class="cls-2" d="M33.5,6.25a10.426,10.426,0,0,0-9,5.225,10.718,10.718,0,0,0,19.1,9.4,20.976,20.976,0,0,0,.4-3.988A10.571,10.571,0,0,0,33.5,6.25Z"/><circle class="cls-3" cx="39.637" cy="13.204" r="2.009"/><circle class="cls-3" cx="40.976" cy="17.222" r="0.67"/></svg>