<svg id="Layer_1" data-name="Layer 1" xmlns="http://www.w3.org/2000/svg" viewBox="0 0 50 50"><defs><style>.cls-1{fill:#479933;}.cls-2{fill:#5cc443;}.cls-3{fill:#51af3e;}</style></defs><title>icon semut gajah 2023_shading</title><rect class="cls-1" x="7.023" y="9.466" width="35.954" height="19.974" transform="translate(-4.31 7.438) rotate(-15.596)"/><path class="cls-2" d="M35.493,8.228,10.211,15.286A3.979,3.979,0,0,1,8.228,18.8L10.99,28.7a3.98,3.98,0,0,1,3.517,1.982l25.282-7.058A3.981,3.981,0,0,1,41.772,20.1L39.01,10.211A3.981,3.981,0,0,1,35.493,8.228Z"/><circle class="cls-1" cx="25" cy="19.453" r="4.494"/><rect class="cls-3" x="7" y="25" width="36" height="20"/><path class="cls-1" d="M38.141,27H11.859A3.987,3.987,0,0,1,9,29.859V40.141A3.987,3.987,0,0,1,11.859,43H38.141A3.987,3.987,0,0,1,41,40.141V29.859A3.987,3.987,0,0,1,38.141,27Z"/><circle class="cls-2" cx="25" cy="35" r="4.5"/></svg>