<svg id="Layer_1" data-name="Layer 1" xmlns="http://www.w3.org/2000/svg" viewBox="0 0 50 50"><defs><style>.cls-1{fill:#5b2b10;}.cls-2{fill:#ea7c32;}.cls-3{fill:#e27023;}.cls-4{fill:#f2bb4c;}</style></defs><title>icon semut gajah 2023_shading</title><circle class="cls-1" cx="25" cy="17.5" r="4.5"/><path class="cls-2" d="M7,19H43a0,0,0,0,1,0,0V43a2,2,0,0,1-2,2H9a2,2,0,0,1-2-2V19A0,0,0,0,1,7,19Z"/><path class="cls-3" d="M42.072,44.684,18.423,19H7V43a2,2,0,0,0,2,2H41A1.986,1.986,0,0,0,42.072,44.684Z"/><rect class="cls-4" x="5" y="16" width="40" height="8" rx="2"/><rect class="cls-1" x="23.5" y="15" width="3" height="30"/><path class="cls-1" d="M33.009,16H23.483l4.763-8.25a5.5,5.5,0,1,1,9.526,5.5A5.444,5.444,0,0,1,33.009,16Zm-4.286-3.025h4.286a2.475,2.475,0,1,0-2.143-3.712h0Z"/><path class="cls-1" d="M12.228,13.25a5.5,5.5,0,1,1,9.526-5.5L26.517,16H16.991A5.444,5.444,0,0,1,12.228,13.25Zm6.906-3.987h0a2.474,2.474,0,1,0-2.143,3.712h4.286Z"/></svg>