<svg id="Layer_1" data-name="Layer 1" xmlns="http://www.w3.org/2000/svg" viewBox="0 0 50 50"><defs><style>.cls-1{fill:#773e18;}.cls-2{fill:#479933;}.cls-3{fill:#51af3e;}.cls-4{fill:#fff;}</style></defs><title>icon semut gajah 2023_shading</title><path class="cls-1" d="M24.5,44.879a2.08,2.08,0,0,0,1,0C36.788,42.06,45,33.491,45,23.351V7a2,2,0,0,0-2-2H7A2,2,0,0,0,5,7V23.351C5,33.491,13.212,42.06,24.5,44.879Z"/><path class="cls-2" d="M25,39.992h0c8.658-2.016,15-8.519,15-16.236V9.993H10V23.756C10,31.473,16.341,37.976,25,39.992Z"/><path class="cls-3" d="M29.75,29.5a19.634,19.634,0,0,0,9.9-2.679A13.981,13.981,0,0,0,40,23.756V9.993H10.012A19.744,19.744,0,0,0,29.75,29.5Z"/><polygon class="cls-4" points="23.5 30.621 16.939 24.061 19.061 21.939 23.5 26.379 34.439 15.439 36.561 17.561 23.5 30.621"/></svg>