<svg id="Layer_1" data-name="Layer 1" xmlns="http://www.w3.org/2000/svg" viewBox="0 0 50 50"><defs><style>.cls-1{fill:#5b2b10;}.cls-2{fill:#773e18;}.cls-3{fill:#edac3a;}.cls-4{fill:#f9cb64;}.cls-5{fill:#479933;}.cls-6{fill:#e8e3e2;}</style></defs><title>icon semut gajah 2023_shading</title><circle class="cls-1" cx="25" cy="25" r="20"/><path class="cls-2" d="M25,5a19.889,19.889,0,0,0-9.219,2.263A18.362,18.362,0,0,0,9,21.5a18.795,18.795,0,0,0,35.291,8.707A19.937,19.937,0,0,0,25,5Z"/><path class="cls-3" d="M25,45a19.934,19.934,0,0,0,15.014-6.817,16.481,16.481,0,0,0-30.028,0A19.934,19.934,0,0,0,25,45Z"/><path class="cls-4" d="M38.992,36.29a16.456,16.456,0,0,0-25.645-2.951A18.9,18.9,0,0,0,38.992,36.29Z"/><circle class="cls-4" cx="25" cy="20" r="10"/><circle class="cls-5" cx="37" cy="37" r="8"/><rect class="cls-6" x="35.5" y="31.5" width="3" height="11"/><rect class="cls-6" x="31.5" y="35.5" width="11" height="3"/></svg>