<svg id="Layer_1" data-name="Layer 1" xmlns="http://www.w3.org/2000/svg" viewBox="0 0 50 50"><defs><style>.cls-1{fill:#c1b5b2;}.cls-2{fill:#d3c3be;}.cls-3{fill:#ce1717;}.cls-4{fill:#e02626;}.cls-5{fill:#479933;}.cls-6{fill:#5b2b10;}.cls-7{fill:#773e18;}.cls-8{fill:#e27023;}.cls-9{fill:#ea7c32;}.cls-10{fill:#51af3e;}.cls-11{fill:#41822b;}</style></defs><title>icon semut gajah 2023_shading</title><path class="cls-1" d="M42,10H30l-.588,1.9A54.26,54.26,0,0,0,27,27.9V43a2,2,0,0,0,2,2H43a2,2,0,0,0,2-2V27.9a54.26,54.26,0,0,0-2.412-16Z"/><path class="cls-2" d="M42,10H34.8a16.5,16.5,0,0,0,9.609,29.917c.2,0,.394-.023.592-.03V27.9a54.26,54.26,0,0,0-2.412-16Z"/><rect class="cls-3" x="28" y="5" width="16" height="6" rx="2"/><path class="cls-4" d="M42,5H30c-.029,0-.056.007-.085.009,0,.014,0,.027,0,.042v2a2,2,0,0,0,2,2h12c.029,0,.056-.007.085-.009,0-.014,0-.027,0-.042V7A2,2,0,0,0,42,5Z"/><path class="cls-5" d="M39.577,24a7.944,7.944,0,0,1,1.545.153c-2.089,1.342-1.715,9.472-7.773,9.472a7.944,7.944,0,0,1-1.545-.153A7.918,7.918,0,0,1,39.577,24Z"/><path class="cls-6" d="M31,19H8l-.588,1.905C5.813,26.087,5,26.48,5,31.9V43a2,2,0,0,0,2,2H32a2,2,0,0,0,2-2V31.9c0-5.423-.813-5.816-2.412-11Z"/><path class="cls-7" d="M31,19H11.66A15.72,15.72,0,0,0,34,40.349V31.9c0-5.423-.813-5.816-2.412-11Z"/><rect class="cls-8" x="6" y="15" width="27" height="6" rx="2"/><path class="cls-9" d="M31,15H8.236v1.764a2,2,0,0,0,2,2H33V17A2,2,0,0,0,31,15Z"/><path class="cls-10" d="M14.475,23.894a11.556,11.556,0,0,0-2.248.223c3.039,1.952,2.495,13.777,11.306,13.777a11.556,11.556,0,0,0,2.248-.223A11.521,11.521,0,0,0,14.475,23.894Z"/><path class="cls-5" d="M12.227,24.117c3.039,1.952,2.495,13.777,11.306,13.777a11.556,11.556,0,0,0,2.248-.223C25.925,36.944,20.227,25.894,12.227,24.117Z"/><path class="cls-11" d="M26.213,40.1a.5.5,0,0,1-.425-.377,14.045,14.045,0,0,0-3-5.808.5.5,0,0,1,.756-.654,15.046,15.046,0,0,1,3.218,6.223.5.5,0,0,1-.546.616Z"/></svg>