<svg id="Layer_1" data-name="Layer 1" xmlns="http://www.w3.org/2000/svg" viewBox="0 0 50 50"><defs><style>.cls-1{fill:#ce1717;}.cls-2{fill:#e02626;}</style></defs><title>icon semut gajah 2023_shading</title><path class="cls-1" d="M31.716,25.721a1.02,1.02,0,0,1,0-1.442L44.7,11.294a1.021,1.021,0,0,0,0-1.444L40.15,5.3a1.021,1.021,0,0,0-1.444,0L25.721,18.284a1.02,1.02,0,0,1-1.442,0L11.294,5.3a1.021,1.021,0,0,0-1.444,0L5.3,9.85a1.021,1.021,0,0,0,0,1.444L18.283,24.278a1.021,1.021,0,0,1,0,1.444L5.3,38.706a1.021,1.021,0,0,0,0,1.444L9.85,44.7a1.021,1.021,0,0,0,1.444,0L24.279,31.716a1.02,1.02,0,0,1,1.442,0L38.706,44.7a1.021,1.021,0,0,0,1.444,0L44.7,40.15a1.021,1.021,0,0,0,0-1.444Z"/><path class="cls-2" d="M44.7,11.294a1.021,1.021,0,0,0,0-1.444L40.15,5.3a1.021,1.021,0,0,0-1.444,0L25.721,18.284a1.02,1.02,0,0,1-1.442,0L11.294,5.3a1.021,1.021,0,0,0-1.444,0L7.574,7.574,42.426,42.426,44.7,40.15a1.021,1.021,0,0,0,0-1.444L31.716,25.721a1.02,1.02,0,0,1,0-1.442Z"/></svg>