<svg id="Layer_1" data-name="Layer 1" xmlns="http://www.w3.org/2000/svg" viewBox="0 0 50 50"><defs><style>.cls-1{fill:#51af3e;}.cls-2{fill:#479933;}</style></defs><title>icon semut gajah 2023_shading</title><rect class="cls-1" x="5" y="5" width="40" height="10" rx="2"/><path class="cls-2" d="M5.56,5.617A1.99,1.99,0,0,0,5,7v6a2,2,0,0,0,2,2h7.944Z"/><rect class="cls-1" x="5" y="20" width="40" height="10" rx="2"/><path class="cls-2" d="M19.944,20H7a2,2,0,0,0-2,2v6a2,2,0,0,0,2,2H29.944Z"/><rect class="cls-1" x="5" y="35" width="40" height="10" rx="2"/><path class="cls-2" d="M34.944,35H7a2,2,0,0,0-2,2v6a2,2,0,0,0,2,2H43a1.99,1.99,0,0,0,1.383-.56Z"/></svg>