<svg id="Layer_1" data-name="Layer 1" xmlns="http://www.w3.org/2000/svg" viewBox="0 0 50 50"><defs><style>.cls-1{fill:#5b2b10;}.cls-2{fill:#773e18;}.cls-3{fill:#9e5726;}.cls-4{fill:#ea7c32;}.cls-5{fill:#5cc443;}</style></defs><title>icon semut gajah 2023_shading</title><rect class="cls-1" x="13.882" y="6.808" width="22.235" height="36.385" rx="2.021" transform="translate(7.348 -5.633) rotate(15.048)"/><rect class="cls-2" x="13.882" y="6.808" width="22.235" height="36.385" rx="2.021" transform="translate(7.348 -5.633) rotate(15.048)"/><path class="cls-1" d="M19.8,5.1a2.017,2.017,0,0,0-1.334,1.4l-8.4,31.233a2.021,2.021,0,0,0,1.427,2.477L29.061,44.93a2.01,2.01,0,0,0,1.577-.231Z"/><rect class="cls-3" x="16.794" y="10.303" width="16.666" height="28.452" transform="translate(7.23 -5.682) rotate(15.048)"/><polygon class="cls-2" points="20.773 8.627 13.386 36.103 29.481 40.43 20.773 8.627"/><rect class="cls-4" x="31.5" y="29" width="12" height="3"/><path class="cls-4" d="M40.561,35.561l-2.122-2.122,2.94-2.939-2.94-2.939,2.122-2.122,4,4a1.5,1.5,0,0,1,0,2.122Z"/><rect class="cls-5" x="6.5" y="17.561" width="12" height="3"/><path class="cls-5" d="M9.439,24.121l-4-4a1.5,1.5,0,0,1,0-2.121l4-4,2.122,2.121-2.94,2.94L11.561,22Z"/></svg>