<svg id="Layer_1" data-name="Layer 1" xmlns="http://www.w3.org/2000/svg" viewBox="0 0 50 50"><defs><style>.cls-1{fill:#ce1717;}.cls-2{fill:#e02626;}.cls-3{fill:#e27023;}.cls-4{fill:#ea7c32;}.cls-5{fill:#edac3a;}.cls-6{fill:#f2bb4c;}</style></defs><title>icon semut gajah 2023_shading</title><path class="cls-1" d="M41.245,6.717A2,2,0,0,0,39.265,5H10.735a2,2,0,0,0-1.98,1.717L7,19,8.858,43.153A2,2,0,0,0,10.852,45h28.3a2,2,0,0,0,1.994-1.847L43,19Z"/><path class="cls-2" d="M39.265,5H13.383A23,23,0,0,0,41.425,39.479L43,19,41.245,6.717A2,2,0,0,0,39.265,5Z"/><rect class="cls-3" x="13.5" y="5" width="23" height="10"/><polygon class="cls-4" points="13.5 5 36.5 15 36.5 5 13.5 5"/><rect class="cls-5" x="5" y="14" width="40" height="6" rx="2"/><path class="cls-6" d="M43,14H7v1.5a2,2,0,0,0,2,2H45V16A2,2,0,0,0,43,14Z"/></svg>