<svg id="Layer_1" data-name="Layer 1" xmlns="http://www.w3.org/2000/svg" viewBox="0 0 50 50"><defs><style>.cls-1{fill:#5cc443;}.cls-2{fill:#479933;}.cls-3{fill:#51af3e;}.cls-4{fill:#e2dad7;}.cls-5{fill:#d3c3be;}</style></defs><title>icon semut gajah 2023_shading</title><path class="cls-1" d="M5,20.221V43a2,2,0,0,0,2,2H43a2,2,0,0,0,2-2V20.221Z"/><path class="cls-2" d="M26.265,5.441a2.037,2.037,0,0,0-2.535,0L5,20.221l.273.22L23.73,35a2.064,2.064,0,0,0,2.535,0l18.454-14.56.284-.22Z"/><path class="cls-3" d="M5,20.221V43a2,2,0,0,0,2,2H36.4Z"/><path class="cls-4" d="M23.73,35a2.064,2.064,0,0,0,2.535,0L39,24.953V10a2,2,0,0,0-2-2H13a2,2,0,0,0-2,2V24.957Z"/><path class="cls-5" d="M11,24.386v.571L23.73,35a2.064,2.064,0,0,0,2.535,0l1.95-1.538Z"/></svg>