<svg id="Layer_1" data-name="Layer 1" xmlns="http://www.w3.org/2000/svg" viewBox="0 0 50 50"><defs><style>.cls-1{fill:#d3c3be;}.cls-2{fill:#773e18;}.cls-3{fill:#e2dad7;}.cls-4{fill:#e27023;}</style></defs><title>icon semut gajah 2023_shading</title><rect class="cls-1" x="10" y="20" width="4" height="21"/><rect class="cls-1" x="36" y="20" width="4" height="21"/><rect class="cls-1" x="27.333" y="20" width="4" height="21"/><rect class="cls-1" x="18.667" y="20" width="4" height="21"/><polygon class="cls-1" points="25.894 9.5 24.106 9.5 9 19.571 9 22 41 22 41 19.571 25.894 9.5"/><rect class="cls-2" x="7" y="38.5" width="36" height="4" rx="1"/><rect class="cls-3" x="9" y="20" width="32" height="4" rx="1"/><path class="cls-4" d="M43,23.5a1.982,1.982,0,0,1-1.107-.336L25,11.9,8.109,23.164a2,2,0,1,1-2.218-3.328l18-12a2,2,0,0,1,2.218,0l18,12A2,2,0,0,1,43,23.5Z"/></svg>