<svg id="Layer_1" data-name="Layer 1" xmlns="http://www.w3.org/2000/svg" viewBox="0 0 50 50"><defs><style>.cls-1{fill:#e27023;}.cls-2{fill:#edac3a;}.cls-3{fill:#f2bb4c;}.cls-4{fill:#fff;}</style></defs><title>icon semut gajah 2023_shading</title><path class="cls-1" d="M35.117,5.278h7.747a.108.108,0,0,1,.108.108V12.76a3.981,3.981,0,0,1-3.981,3.981h0a3.981,3.981,0,0,1-3.981-3.981V5.386a.108.108,0,0,1,.108-.108Z" transform="translate(58.776 46.365) rotate(-135)"/><path class="cls-2" d="M41.334,11.446l-2.78-2.78a12.518,12.518,0,0,0-17.7,0l-3.42,3.42a25.958,25.958,0,0,1-9.111,5.9l-2.042.778L8.516,21h0L29,41.484h0l2.237,2.237.778-2.042a25.958,25.958,0,0,1,5.9-9.111l3.42-3.42A12.518,12.518,0,0,0,41.334,11.446Z"/><path class="cls-3" d="M38.554,8.666A12.511,12.511,0,0,0,22.187,7.524a12.986,12.986,0,0,0-3.041,8.263c0,7.825,7.212,14.168,16.109,14.168a17.935,17.935,0,0,0,6.409-1.172,12.507,12.507,0,0,0-.33-17.337Z"/><path class="cls-1" d="M10.274,27.824h13.1a.183.183,0,0,1,.183.183v3.784a6.734,6.734,0,0,1-6.734,6.734h0a6.734,6.734,0,0,1-6.734-6.734V28.007a.183.183,0,0,1,.183-.183Z" transform="translate(28.386 -2.181) rotate(45)"/><rect class="cls-3" x="0.47" y="27.704" width="37.291" height="6.36" rx="3.18" transform="translate(27.437 -4.471) rotate(45)"/><circle class="cls-4" cx="32.515" cy="9.053" r="2.276"/><circle class="cls-4" cx="34.032" cy="13.604" r="0.759"/></svg>