<svg id="Layer_1" data-name="Layer 1" xmlns="http://www.w3.org/2000/svg" viewBox="0 0 50 50"><defs><style>.cls-1{fill:#5b2b10;}.cls-2{fill:#d3c3be;}.cls-3{fill:#e2dad7;}.cls-4{fill:#5cc443;}.cls-5{fill:#51af3e;}.cls-6{fill:#479933;}.cls-7{fill:#773e18;}.cls-8{fill:#fff;}.cls-9{fill:#f9cb64;}.cls-10{fill:#f2bb4c;}.cls-11{fill:#edac3a;}.cls-12{fill:#f4964a;}.cls-13{fill:#ea7c32;}.cls-14{fill:#e02626;}.cls-15{fill:#ce1717;}</style></defs><title>icon semut gajah 2023_shading</title><path class="cls-1" d="M17.5,41h22a0,0,0,0,1,0,0v3a1,1,0,0,1-1,1h-20a1,1,0,0,1-1-1V41A0,0,0,0,1,17.5,41Z"/><rect class="cls-1" x="18.5" y="18" width="20" height="6"/><path class="cls-2" d="M13,32.5A15.425,15.425,0,0,0,17.122,43H39.878a15.434,15.434,0,0,0,0-21H17.122A15.425,15.425,0,0,0,13,32.5Z"/><path class="cls-3" d="M25.024,22l-.017.016,0,.128A10.787,10.787,0,0,0,35.885,33h8.091l.017-.016A15.425,15.425,0,0,0,39.878,22Z"/><rect class="cls-4" x="16.5" y="16" width="24" height="4" rx="1"/><path class="cls-5" d="M36,16H17.5a1,1,0,0,0-1,1v2a1,1,0,0,0,1,1H36Z"/><path class="cls-6" d="M28,16H17.5a1,1,0,0,0-1,1v2a1,1,0,0,0,1,1H28Z"/><path class="cls-7" d="M18.832,10.62V8h-10v2.62a8.036,8.036,0,0,1-2.416,5.744h0a8.036,8.036,0,0,0-2.39,6.394l1.657,20.4A2,2,0,0,0,7.677,45H19.988a2,2,0,0,0,1.994-1.838l1.656-20.4a8.032,8.032,0,0,0-2.389-6.394h0A8.033,8.033,0,0,1,18.832,10.62Z"/><path class="cls-1" d="M5.586,17.334a8.031,8.031,0,0,0-1.56,5.424l1.657,20.4A2,2,0,0,0,7.677,45h.155Z"/><path class="cls-8" d="M13.832,42h0A5.121,5.121,0,0,1,8.72,37.176l-.7-12.019A5.82,5.82,0,0,1,13.832,19h0a5.82,5.82,0,0,1,5.811,6.157l-.7,12.019A5.121,5.121,0,0,1,13.832,42Z"/><path class="cls-1" d="M13.832,14a17.978,17.978,0,0,1,6.414,1.141,8,8,0,0,1-1.414-4.521V8h-10v2.62a8,8,0,0,1-1.413,4.521A17.973,17.973,0,0,1,13.832,14Z"/><rect class="cls-8" x="27" y="24" width="8" height="2" rx="1"/><rect class="cls-8" x="36" y="24" width="3" height="2" rx="1"/><rect class="cls-9" x="7.332" y="5" width="13" height="4" rx="1"/><path class="cls-10" d="M18,5H8.332a1,1,0,0,0-1,1V8a1,1,0,0,0,1,1H18Z"/><path class="cls-11" d="M12,5H8.332a1,1,0,0,0-1,1V8a1,1,0,0,0,1,1H12Z"/><path class="cls-12" d="M18.586,26.116l.05-.862a5,5,0,0,0-.916-3.287,4.825,4.825,0,0,0-7.778,0,5.019,5.019,0,0,0-.912,3.291l.049.854a2,2,0,0,0,2,1.884h5.513A2,2,0,0,0,18.586,26.116Z"/><path class="cls-13" d="M12.461,20.2a4.82,4.82,0,0,0-2.519,1.767,5.019,5.019,0,0,0-.912,3.291l.049.854a2,2,0,0,0,2,1.884h2.018Z"/><path class="cls-14" d="M9.6,35.116,9.711,37a4.2,4.2,0,0,0,3.239,3.908,4.129,4.129,0,0,0,5-3.79l.116-2a2,2,0,0,0-2-2.116H11.6A2,2,0,0,0,9.6,35.116Z"/><path class="cls-15" d="M13.5,33H11.6a2,2,0,0,0-2,2.116L9.711,37a4.2,4.2,0,0,0,3.239,3.908,4.191,4.191,0,0,0,1.2.06Z"/></svg>