<svg id="Layer_1" data-name="Layer 1" xmlns="http://www.w3.org/2000/svg" viewBox="0 0 50 50"><defs><style>.cls-1{fill:#e02626;}.cls-2{fill:#5b2b10;}.cls-3{fill:#f2bb4c;}.cls-4{fill:#edac3a;}.cls-5{fill:#ce1717;}.cls-6{fill:#773e18;}</style></defs><title>icon semut gajah 2023_shading</title><path class="cls-1" d="M5,20.22V43a2,2,0,0,0,2,2H43a2,2,0,0,0,2-2V20.22Z"/><path class="cls-2" d="M26.267,5.44a2.037,2.037,0,0,0-2.535,0L5.005,20.22l.274.22L23.732,35a2.064,2.064,0,0,0,2.535,0L44.721,20.44l.284-.22Z"/><path class="cls-3" d="M23.732,35a2.064,2.064,0,0,0,2.535,0L39.086,24.886a14.5,14.5,0,1,0-28.172,0Z"/><path class="cls-4" d="M26.267,35l1.951-1.539L10.783,24.269c.041.207.082.413.131.617L23.732,35A2.064,2.064,0,0,0,26.267,35Z"/><path class="cls-5" d="M5,20.22V43a2,2,0,0,0,2,2H36.407Z"/><circle class="cls-6" cx="18.5" cy="20" r="2"/><circle class="cls-6" cx="31.5" cy="20" r="2"/><path class="cls-6" d="M29.4,28.767a7.344,7.344,0,0,0-8.79,0L19.4,27.175a9.233,9.233,0,0,1,11.21,0Z"/></svg>