<svg id="Layer_1" data-name="Layer 1" xmlns="http://www.w3.org/2000/svg" viewBox="0 0 50 50"><defs><style>.cls-1{fill:#9e5726;}.cls-2{fill:#773e18;}.cls-3{fill:#f9cb64;}.cls-4{fill:#f2bb4c;}</style></defs><title>icon semut gajah 2023_shading</title><rect class="cls-1" x="5" y="5" width="40" height="40" rx="2"/><path class="cls-2" d="M44.33,44.484,5.517,5.67A1.983,1.983,0,0,0,5,7V43a2,2,0,0,0,2,2H43A1.987,1.987,0,0,0,44.33,44.484Z"/><rect class="cls-3" x="19" y="5" width="12" height="14"/><rect class="cls-3" x="35" y="35" width="6" height="6" rx="1" transform="translate(76 76) rotate(180)"/><path class="cls-4" d="M35.231,35.384A.985.985,0,0,0,35,36v4a1,1,0,0,0,1,1h4a.985.985,0,0,0,.616-.231Z"/></svg>