<svg id="Layer_1" data-name="Layer 1" xmlns="http://www.w3.org/2000/svg" viewBox="0 0 50 50"><defs><style>.cls-1{fill:#479933;}.cls-2{fill:#51af3e;}.cls-3{fill:#5b2b10;}.cls-4{fill:#773e18;}.cls-5{fill:#9e5726;}.cls-6{fill:#6fd154;}.cls-7{fill:#5cc443;}.cls-8{fill:#ce1717;}.cls-9{fill:#e02626;}.cls-10{fill:#ea5050;}</style></defs><title>icon semut gajah 2023_shading</title><path class="cls-1" d="M13.307,10.548a10.758,10.758,0,0,0-2.084.207c2.819,1.81,2.314,12.777,10.486,12.777a10.75,10.75,0,0,0,2.084-.206A10.685,10.685,0,0,0,13.307,10.548Z"/><circle class="cls-1" cx="41.5" cy="15.5" r="3.5"/><path class="cls-2" d="M41.5,12a3.485,3.485,0,0,0-1.258.242,3.482,3.482,0,0,0,4.516,4.516A3.482,3.482,0,0,0,41.5,12Z"/><circle class="cls-1" cx="30.5" cy="14.5" r="9.5"/><path class="cls-2" d="M39.618,11.852A9.48,9.48,0,0,0,25.727,6.3a7.5,7.5,0,1,0,13.891,5.557Z"/><circle class="cls-1" cx="25" cy="23.5" r="8"/><circle class="cls-1" cx="36" cy="24" r="8"/><rect class="cls-3" x="14" y="36" width="22" height="9" rx="1"/><path class="cls-2" d="M21.628,15.54a7.4,7.4,0,0,0-1.445.144c1.954,1.254,1.6,8.856,7.269,8.856A7.407,7.407,0,0,0,28.9,24.4a7.408,7.408,0,0,0-7.269-8.857Z"/><polygon class="cls-3" points="15.506 32.549 24.534 26.684 11.299 9.605 5.28 13.515 15.506 32.549"/><circle class="cls-3" cx="9.524" cy="13.46" r="4.5"/><polygon class="cls-4" points="9.28 13.515 22.322 28.121 24.534 26.684 12.639 11.333 9.28 13.515"/><path class="cls-4" d="M13.3,11.009A4.5,4.5,0,0,0,7.073,9.687a4.453,4.453,0,0,0-1.043.969,4.458,4.458,0,0,0,7.975,2.64A4.461,4.461,0,0,0,13.3,11.009Z"/><path class="cls-5" d="M7.251,18.18a1,1,0,0,1-.545-1.839l6.6-4.28a1,1,0,0,1,1.088,1.678l-6.6,4.28A.993.993,0,0,1,7.251,18.18Z"/><path class="cls-6" d="M39.752,11.5A11.556,11.556,0,0,1,42,11.723C38.961,13.675,39.5,25.5,30.693,25.5a11.572,11.572,0,0,1-2.248-.223A11.526,11.526,0,0,1,39.752,11.5Z"/><path class="cls-7" d="M42,11.723C38.961,13.675,39.5,25.5,30.693,25.5a11.572,11.572,0,0,1-2.248-.223C28.3,24.55,41.273,11.579,42,11.723Z"/><path class="cls-8" d="M6,22H44a1,1,0,0,1,1,1v3a19.913,19.913,0,0,1-6.8,14.994A4.039,4.039,0,0,1,35.538,42H14.462A4.039,4.039,0,0,1,11.8,40.994,19.913,19.913,0,0,1,5,26V23A1,1,0,0,1,6,22Z"/><path class="cls-9" d="M44,22H7.277C10.92,32.423,21.953,40,35,40a33.06,33.06,0,0,0,4.551-.315A19.875,19.875,0,0,0,45,26V23A1,1,0,0,0,44,22Z"/><rect class="cls-10" x="24" y="24" width="13.333" height="2" rx="1"/><rect class="cls-10" x="39" y="24" width="3" height="2" rx="1"/></svg>