<svg id="Layer_1" data-name="Layer 1" xmlns="http://www.w3.org/2000/svg" viewBox="0 0 50 50"><defs><style>.cls-1{fill:#5b2b10;}.cls-2{fill:#773e18;}.cls-3{fill:#9e5726;}.cls-4{fill:#e27023;}.cls-5{fill:#51af3e;}.cls-6{fill:#479933;}.cls-7{fill:#41822b;}.cls-8{fill:#ea7c32;}</style></defs><title>icon semut gajah 2023_shading</title><polygon class="cls-1" points="34.841 32.476 28.132 28.118 37.967 15.427 42.44 18.332 34.841 32.476"/><circle class="cls-2" cx="40.476" cy="16.46" r="4.5"/><path class="cls-3" d="M44.849,17.455a4.477,4.477,0,0,0-7.764-3.923,5.489,5.489,0,0,0,7.764,3.923Z"/><polygon class="cls-1" points="36.18 17.733 28.132 28.118 34.841 32.476 41.059 20.902 36.18 17.733"/><path class="cls-4" d="M44,25H6a1,1,0,0,0-1,1v3a19.915,19.915,0,0,0,6.8,14.994A4.039,4.039,0,0,0,14.462,45H35.538A4.039,4.039,0,0,0,38.2,43.994,19.915,19.915,0,0,0,45,29V26A1,1,0,0,0,44,25Z"/><path class="cls-5" d="M7.248,6A11.556,11.556,0,0,0,5,6.223C8.039,8.175,7.5,20,16.307,20a11.572,11.572,0,0,0,2.248-.223A11.526,11.526,0,0,0,7.248,6Z"/><path class="cls-6" d="M5,6.223C8.039,8.175,7.5,20,16.307,20a11.572,11.572,0,0,0,2.248-.223C18.7,19.05,13,8,5,6.223Z"/><path class="cls-7" d="M18.986,22.208a.5.5,0,0,1-.425-.377,14.022,14.022,0,0,0-3-5.808.5.5,0,1,1,.756-.654,15.034,15.034,0,0,1,3.218,6.223.5.5,0,0,1-.546.616Z"/><path class="cls-5" d="M30.372,14.04a7.4,7.4,0,0,1,1.445.144c-1.954,1.254-1.6,8.856-7.269,8.856A7.407,7.407,0,0,1,23.1,22.9a7.408,7.408,0,0,1,7.269-8.857Z"/><path class="cls-6" d="M23.1,22.9a7.407,7.407,0,0,0,1.445.143c5.665,0,5.315-7.6,7.269-8.856A15.56,15.56,0,0,0,23.1,22.9Z"/><path class="cls-8" d="M44,25H7.4A26.521,26.521,0,0,0,40.319,41.826,19.855,19.855,0,0,0,45,29V26A1,1,0,0,0,44,25Z"/></svg>