<svg id="Layer_1" data-name="Layer 1" xmlns="http://www.w3.org/2000/svg" viewBox="0 0 50 50"><defs><style>.cls-1{fill:#d3c3be;}.cls-2{fill:#ea5050;}.cls-3{fill:#fff;}.cls-4{fill:#e2dad7;}.cls-5{fill:#e02626;}.cls-6{fill:#ce1717;}.cls-7{fill:#e8e3e2;}.cls-8{fill:#479933;}.cls-9{fill:#51af3e;}.cls-10{fill:#e27023;}.cls-11{fill:#ea7c32;}.cls-12{fill:#773e18;}.cls-13{fill:#9e5726;}</style></defs><title>icon semut gajah 2023_shading</title><path class="cls-1" d="M36,11.879V10H14v1.879A5.122,5.122,0,0,1,12.5,15.5h0A5.122,5.122,0,0,0,11,19.121V37a8,8,0,0,0,8,8H31a8,8,0,0,0,8-8V19.121A5.122,5.122,0,0,0,37.5,15.5h0A5.122,5.122,0,0,1,36,11.879Z"/><rect class="cls-2" x="12" y="5" width="26" height="7" rx="1"/><rect class="cls-3" x="14.5" y="21" width="21" height="20" rx="8"/><path class="cls-4" d="M39,37V19.121a5.1,5.1,0,0,0-.562-2.282A20.343,20.343,0,0,0,26.536,13H23.464a20.343,20.343,0,0,0-11.9,3.839A5.1,5.1,0,0,0,11,19.121V37a8,8,0,0,0,8,8H31A8,8,0,0,0,39,37Z"/><rect class="cls-3" x="14.375" y="21" width="21.25" height="20" rx="8"/><rect class="cls-5" x="16.5" y="23" width="17" height="16" rx="6"/><path class="cls-6" d="M22.5,39h5a5.983,5.983,0,0,0,4.22-1.736L18.765,24.309A5.984,5.984,0,0,0,16.5,29v4A6,6,0,0,0,22.5,39Z"/><rect class="cls-3" x="23.5" y="25.5" width="3" height="11"/><rect class="cls-3" x="19.5" y="29.5" width="11" height="3"/><path class="cls-1" d="M14,15.343a20.666,20.666,0,0,0-2.438,1.5A5.1,5.1,0,0,0,11,19.121V37a7.984,7.984,0,0,0,3,6.24Z"/><path class="cls-7" d="M36,15.343a20.666,20.666,0,0,1,2.438,1.5A5.1,5.1,0,0,1,39,19.121V37a7.984,7.984,0,0,1-3,6.24Z"/><path class="cls-5" d="M34,5H13a1,1,0,0,0-1,1v5a1,1,0,0,0,1,1H34Z"/><path class="cls-6" d="M22,5H13a1,1,0,0,0-1,1v5a1,1,0,0,0,1,1h9Z"/><rect class="cls-1" x="36.438" y="34" width="9" height="4" rx="2" transform="translate(-13.185 29.469) rotate(-34.447)"/><path class="cls-4" d="M44.649,33.455a2,2,0,0,0-2.78-.518l-3.12,2.139a5.972,5.972,0,0,0,6.14.145,1.992,1.992,0,0,0-.24-1.766Z"/><path class="cls-8" d="M40.926,35.893h0a3.2,3.2,0,0,0-1.6-1.212l-1.581,1.084a2,2,0,0,0-.518,2.78h0a2,2,0,0,0,2.781.518l1.451-1A3.2,3.2,0,0,0,40.926,35.893Z"/><path class="cls-9" d="M39.326,34.681l-.577.4a5.971,5.971,0,0,0,2.186.834l-.009-.017h0A3.2,3.2,0,0,0,39.326,34.681Z"/><rect class="cls-1" x="4.562" y="25" width="9" height="4" rx="2" transform="translate(1.262 54.391) rotate(-145.553)"/><path class="cls-4" d="M12.255,26.765,8.131,23.937a.269.269,0,0,0-.029-.016,5.959,5.959,0,0,0,3.276,6.469,1.987,1.987,0,0,0,1.395-.845h0A2,2,0,0,0,12.255,26.765Z"/><path class="cls-10" d="M9.074,26.893h0a3.2,3.2,0,0,1,1.6-1.212l1.581,1.084a2,2,0,0,1,.518,2.78h0a2,2,0,0,1-2.781.518l-1.451-.995A3.2,3.2,0,0,1,9.074,26.893Z"/><path class="cls-11" d="M12.255,26.765l-1.581-1.084a3.2,3.2,0,0,0-1.6,1.212h0a3.068,3.068,0,0,0-.4.86,6.012,6.012,0,0,0,2.705,2.637,1.987,1.987,0,0,0,1.395-.845h0A2,2,0,0,0,12.255,26.765Z"/><rect class="cls-1" x="37.111" y="24" width="9" height="4" rx="2" transform="translate(-3.126 46.152) rotate(-56.248)"/><path class="cls-4" d="M44.111,22.258a2,2,0,0,0-2.774.552l-2,2.985a5.967,5.967,0,0,0,3.6,1.2c.143,0,.284-.012.424-.021l1.3-1.946A2,2,0,0,0,44.111,22.258Z"/><path class="cls-12" d="M41.56,25.905h0a3.205,3.205,0,0,0-1.936-.531l-1.065,1.593a2,2,0,0,0,.552,2.775h0a2,2,0,0,0,2.774-.552l.977-1.463A3.2,3.2,0,0,0,41.56,25.905Z"/><path class="cls-13" d="M39.624,25.374l-.282.421a5.967,5.967,0,0,0,3.2,1.185,3.118,3.118,0,0,0-.98-1.075h0A3.205,3.205,0,0,0,39.624,25.374Z"/><circle class="cls-3" cx="32.589" cy="16.688" r="1.5"/><circle class="cls-3" cx="33.589" cy="19.688" r="0.5"/></svg>