<svg id="Layer_1" data-name="Layer 1" xmlns="http://www.w3.org/2000/svg" viewBox="0 0 50 50"><defs><style>.cls-1{fill:#5b2b10;}.cls-2{fill:#773e18;}.cls-3{fill:#f9cb64;}</style></defs><title>icon semut gajah 2023_shading</title><circle class="cls-1" cx="25" cy="25" r="20"/><path class="cls-2" d="M25,5a19.889,19.889,0,0,0-9.219,2.263A18.362,18.362,0,0,0,9,21.5a18.795,18.795,0,0,0,35.291,8.707A19.937,19.937,0,0,0,25,5Z"/><path class="cls-3" d="M26.5,32.8h-3V30A1.5,1.5,0,0,1,25,28.5,6.5,6.5,0,1,0,18.5,22h-3a9.5,9.5,0,1,1,11,9.382Z"/><path class="cls-3" d="M25,37.5A1.5,1.5,0,0,1,23.5,36v-.1a1.5,1.5,0,0,1,3,0V36A1.5,1.5,0,0,1,25,37.5Z"/></svg>