<svg id="Layer_1" data-name="Layer 1" xmlns="http://www.w3.org/2000/svg" viewBox="0 0 50 50"><defs><style>.cls-1{fill:#479933;}.cls-2{fill:#51af3e;}.cls-3{fill:#e27023;}.cls-4{fill:#ea7c32;}.cls-5{fill:#fff;}.cls-6{fill:#f2bb4c;}.cls-7{fill:#f9cb64;}</style></defs><title>icon semut gajah 2023_shading</title><rect class="cls-1" x="12.749" y="15.556" width="29.4" height="19.357" transform="translate(20.609 -11.419) rotate(36.836)"/><path class="cls-2" d="M16.849,5.2,12.8,10.611A2.99,2.99,0,1,1,9.212,15.4l-3.968,5.3L14.4,27.552,26,12.059Z"/><path class="cls-3" d="M41,34a4,4,0,0,1,4-4V23H12V45H45V38A4,4,0,0,1,41,34Z"/><path class="cls-4" d="M41,34a4,4,0,0,1,4-4V23H12v3.85L45,45V38A4,4,0,0,1,41,34Z"/><path class="cls-5" d="M24.75,33.5A3.75,3.75,0,1,0,21,29.75,3.754,3.754,0,0,0,24.75,33.5Zm0-6a2.25,2.25,0,1,1-2.25,2.25A2.252,2.252,0,0,1,24.75,27.5Z"/><path class="cls-5" d="M33.25,34.5A3.75,3.75,0,1,0,37,38.25,3.754,3.754,0,0,0,33.25,34.5Zm0,6a2.25,2.25,0,1,1,2.25-2.25A2.252,2.252,0,0,1,33.25,40.5Z"/><rect class="cls-5" x="19.808" y="33.25" width="18.385" height="1.5" transform="translate(-15.548 30.464) rotate(-45)"/><path class="cls-6" d="M5,23v7a4,4,0,0,1,0,8v7H15V23Z"/><polygon class="cls-7" points="15 23 5 23 15 28.5 15 23"/></svg>