<svg id="Layer_1" data-name="Layer 1" xmlns="http://www.w3.org/2000/svg" viewBox="0 0 50 50"><defs><style>.cls-1{fill:#c1b5b2;}.cls-2{fill:#d3c3be;}.cls-3{fill:#ce1717;}.cls-4{fill:#5b2b10;}.cls-5{fill:#e02626;}.cls-6{fill:#e2dad7;}</style></defs><title>icon semut gajah 2023_shading</title><path class="cls-1" d="M25.894,8H24.106L9,18.071V43a2,2,0,0,0,2,2H39a2,2,0,0,0,2-2V18.071Z"/><path class="cls-2" d="M24.106,8,10.792,16.876c-.051.642-.085,1.29-.085,1.946A24.081,24.081,0,0,0,41,42.083V18.071L25.894,8Z"/><path class="cls-3" d="M5,20a4,4,0,0,0,8,0Z"/><path class="cls-3" d="M37,20a4,4,0,0,0,8,0Z"/><rect class="cls-3" x="21" y="6" width="8" height="18" rx="4"/><circle class="cls-4" cx="34" cy="32" r="3"/><path class="cls-5" d="M45,20H5L9.643,5.693A.993.993,0,0,1,10.584,5H39.416a.993.993,0,0,1,.941.693Z"/><path class="cls-6" d="M34.262,5H15.738L13,20a4,4,0,0,0,8,0h8a4,4,0,0,0,8,0Z"/><polygon class="cls-5" points="21.913 5 21 20 29 20 28.087 5 21.913 5"/><path class="cls-4" d="M18.417,27h0a5.417,5.417,0,0,1,5.417,5.417V45a0,0,0,0,1,0,0H13a0,0,0,0,1,0,0V32.417A5.417,5.417,0,0,1,18.417,27Z"/></svg>