<svg id="Layer_1" data-name="Layer 1" xmlns="http://www.w3.org/2000/svg" viewBox="0 0 50 50"><defs><style>.cls-1{fill:#d3c3be;}.cls-2{fill:#e2dad7;}.cls-3{fill:#773e18;}</style></defs><title>icon semut gajah 2023_shading</title><path class="cls-1" d="M27,9.521,11,20.188V40.5a2,2,0,0,0,2,2H41a2,2,0,0,0,2-2V20.188Z"/><path class="cls-2" d="M27,9.521,12.853,18.953A24.08,24.08,0,0,0,43,39.583V20.188Z"/><path class="cls-3" d="M45,23.5a1.982,1.982,0,0,1-1.107-.336L27,11.9,10.109,23.164a2,2,0,1,1-2.218-3.328l18-12a2,2,0,0,1,2.218,0l18,12A2,2,0,0,1,45,23.5Z"/><path class="cls-3" d="M27,27.5h0a5.417,5.417,0,0,1,5.417,5.417V42.5a0,0,0,0,1,0,0H21.583a0,0,0,0,1,0,0V32.917A5.417,5.417,0,0,1,27,27.5Z"/></svg>