<svg id="Layer_1" data-name="Layer 1" xmlns="http://www.w3.org/2000/svg" viewBox="0 0 50 50"><defs><style>.cls-1{fill:#e27023;}.cls-2{fill:#ea7c32;}.cls-3{fill:#5b2b10;}</style></defs><title>icon semut gajah 2023_shading</title><path class="cls-1" d="M25.894,8H24.106L9,18.071V43a2,2,0,0,0,2,2H39a2,2,0,0,0,2-2V18.071Z"/><path class="cls-2" d="M24.106,8,10.792,16.876c-.051.642-.085,1.29-.085,1.946A24.081,24.081,0,0,0,41,42.083V18.071L25.894,8Z"/><path class="cls-3" d="M43,21a1.982,1.982,0,0,1-1.107-.336L25,9.4,8.109,20.664a2,2,0,1,1-2.218-3.328l18-12a2,2,0,0,1,2.218,0l18,12A2,2,0,0,1,43,21Z"/><path class="cls-3" d="M25,27h0a6.5,6.5,0,0,1,6.5,6.5V45a0,0,0,0,1,0,0h-13a0,0,0,0,1,0,0V33.5A6.5,6.5,0,0,1,25,27Z"/><circle class="cls-3" cx="25" cy="19" r="3"/></svg>