<svg id="Layer_1" data-name="Layer 1" xmlns="http://www.w3.org/2000/svg" viewBox="0 0 50 50"><defs><style>.cls-1{fill:#479933;}.cls-2{fill:#773e18;}.cls-3{fill:#5b2b10;}.cls-4{fill:#f2bb4c;}.cls-5{fill:#edac3a;}.cls-6{fill:#e27023;}.cls-7{fill:#51af3e;}.cls-8{fill:#5cc443;}</style></defs><title>icon semut gajah 2023_shading</title><rect class="cls-1" x="5" y="17" width="37" height="23" rx="2"/><rect class="cls-2" x="10.278" y="12.252" width="31.081" height="19.858" rx="2" transform="translate(-8.122 24.753) rotate(-45)"/><path class="cls-3" d="M19.391,14.568,9.223,24.735a2,2,0,0,0,0,2.829L20.436,38.777a2,2,0,0,0,2.829,0L40.083,21.958Z"/><rect class="cls-4" x="13.278" y="23.06" width="31.081" height="4.243" transform="translate(-9.365 27.753) rotate(-45)"/><polygon class="cls-5" points="31.947 19.053 16.33 34.67 19.33 37.67 36.368 20.632 31.947 19.053"/><rect class="cls-6" x="26.108" y="10.725" width="6.092" height="4.243" rx="1" transform="translate(-0.545 24.377) rotate(-45)"/><rect class="cls-7" x="5" y="22" width="37" height="23" rx="2"/><rect class="cls-1" x="34" y="29" width="11" height="9" rx="2"/><path class="cls-7" d="M36,29a1.972,1.972,0,0,0-.973.263A1.993,1.993,0,0,0,37,31h7a1.972,1.972,0,0,0,.973-.263A1.993,1.993,0,0,0,43,29Z"/><path class="cls-8" d="M40,22H7v2a2,2,0,0,0,2,2H42V24A2,2,0,0,0,40,22Z"/></svg>