<svg id="Layer_1" data-name="Layer 1" xmlns="http://www.w3.org/2000/svg" viewBox="0 0 50 50"><defs><style>.cls-1{fill:#e2dad7;}.cls-2{fill:#d3c3be;}.cls-3{fill:#c1b5b2;}</style></defs><title>icon semut gajah 2023_shading</title><path class="cls-1" d="M7,19H43a0,0,0,0,1,0,0V43a2,2,0,0,1-2,2H9a2,2,0,0,1-2-2V19A0,0,0,0,1,7,19Z"/><rect class="cls-2" x="5" y="19" width="40" height="8" rx="2"/><path class="cls-3" d="M32.5,10h-15l-.588,1.9a54.26,54.26,0,0,0-2.412,16V43a2,2,0,0,0,2,2h17a2,2,0,0,0,2-2V27.9a54.26,54.26,0,0,0-2.412-16Z"/><rect class="cls-2" x="15.5" y="5" width="19" height="6" rx="2"/><path class="cls-1" d="M30.025,23a11.556,11.556,0,0,1,2.248.223C29.234,25.175,29.778,37,20.967,37a11.556,11.556,0,0,1-2.248-.223A11.521,11.521,0,0,1,30.025,23Z"/><path class="cls-2" d="M18.287,39.208a.5.5,0,0,0,.425-.377,14.045,14.045,0,0,1,3-5.808.5.5,0,1,0-.756-.654,15.046,15.046,0,0,0-3.218,6.223.5.5,0,0,0,.546.616Z"/></svg>