<svg id="Layer_1" data-name="Layer 1" xmlns="http://www.w3.org/2000/svg" viewBox="0 0 640 960"><defs><style>.cls-1{fill:#de7126;}.cls-2{fill:#dec026;}.cls-3{fill:#529d45;}.cls-4{fill:#fae6e1;}.cls-5{fill:#091e02;}.cls-6{fill:#4a8f3c;}.cls-7{fill:#468736;}.cls-8{fill:#db5f28;}.cls-9{fill:#cc4e21;}.cls-10{fill:#cc9c78;}.cls-11{fill:#e3b993;}.cls-12{fill:#c48f6d;}.cls-13{fill:#de2626;}.cls-14{fill:#ca8456;}.cls-15{fill:none;stroke:#091e02;stroke-linecap:round;stroke-miterlimit:10;}.cls-16{fill:#143f0a;}.cls-17{fill:#3f7f2d;}.cls-18{fill:#3b7728;}.cls-19{fill:#ca6621;}</style></defs><title>mpm splash</title><path class="cls-1" d="M599.583,661.039c-.459-12.5-13.277-9.86-13.277-9.86s19.031-42.65-20.637-39.669c-35.332,2.655-43.2,41.144-44.494,49.529Z"/><path class="cls-2" d="M430.076,279.484s36.077-22.471,59.771,18.191c0,0,28.433-11.006,28.586-39.439,0,0-35.159-40.51-82.242-29.656C436.191,228.58,418.917,240.962,430.076,279.484Z"/><path class="cls-3" d="M154.306,232.478,179.3,275.357s-30.038,24.306,2.064,56.178c0,0-55.49,8.714-76.815-19.719C104.548,311.816,84.6,258.618,154.306,232.478Z"/><circle class="cls-4" cx="287.529" cy="251.281" r="11.694"/><circle class="cls-4" cx="376.726" cy="291.866" r="20.178"/><path class="cls-4" d="M151.382,667.459H394.634s-46.594-4.975-45.268-36.148,58.368-48.418,40.128-95.842c-21.687-56.386-108.112-50.076-150.561,14.26-36.593,55.462-87.993,23.325-107.449,62.9C118.651,638.732,151.382,667.459,151.382,667.459Z"/><path class="cls-3" d="M38.777,676.516H98.166s-6.306-19.834-29.924-15.592c-.573,0-4.357,1.49-7.223-2.408s-13.8-13.255-23.5-4.815C26.4,663.37,38.777,676.516,38.777,676.516Z"/><path class="cls-3" d="M264.14,728.223h121.3S381.083,701.854,351.732,703s-36.917,19.949-52.968,14.9S269.643,711.714,264.14,728.223Z"/><path class="cls-2" d="M484.925,733.268c-.574-13.459-9.511-24.153-20.454-24.153s-19.88,10.694-20.453,24.153Z"/><path class="cls-3" d="M389.873,563.281s15.439,11.923,38.675,4.891c0,0,3.974,33.325-5.962,44.179s-38.981,5.961-49.376-1.988C373.21,610.363,391.86,592.631,389.873,563.281Z"/><path class="cls-5" d="M498.1,646.134s-1.758,9.4-8.1,13.605-14.9,4.815-15.745,7.8,18.726,3.707,27.363-.649,12-8.446,12-9.363-3.669-9.631-7.873-10.854A17.661,17.661,0,0,0,498.1,646.134Z"/><path class="cls-5" d="M547.17,646.9s-2.522,5.962-2.293,8.255S556.5,670.516,558.864,670.9s25.758.459,27.44-.917-8.79-6.038-12.765-7.032-7.719-5.426-8.1-7.49.23-12.229.23-12.229Z"/><path class="cls-6" d="M494.049,536.07s-49.758,64.892,3.439,111.9c0,0,7.8,3.211,14.217-4.127,0,0,1.834-48.382,25.223-74.064S517.208,528.274,494.049,536.07Z"/><path class="cls-7" d="M536.928,569.777a32.508,32.508,0,0,0,4.145-5.563c-12.953-2.173-25.852-4.3-25.852-4.3s-7.957,36.274-1.553,66.336C516.346,609.823,522.581,585.531,536.928,569.777Z"/><path class="cls-3" d="M519.5,539.739s-6.709,18.906-3.974,39.592c2.981,22.548,2.6,55.567,22.318,66.115s40.7-4.93,39.9-16.509c-.651-9.39-21.325-12.841-19.032-38.293s5.045-38.523-8.254-44.943S519.5,539.739,519.5,539.739Z"/><path class="cls-6" d="M558.711,590.644c1.974-21.9,4.277-34.633-3.594-41.85-4.073,2.321-8.087,5.038-8.087,5.038s8.586,26.264,4.458,42.315c-3.831,14.9,12.292,17.356,22.328,26.07C567.76,616.183,557.025,609.367,558.711,590.644Z"/><path class="cls-8" d="M463.858,482.109s-5.427-2.828-9.1.687,6.5,49.911,36.306,36.23,40.7-55.988,40.7-55.988-27.746-10.2-45.516,31.644C486.253,494.682,473.106,494.758,463.858,482.109Z"/><path class="cls-9" d="M530.536,467.128c-1.336-2.22-3-3.377-5.073-2.943-12.038,2.522-19.835,19.49-28.548,38.637-4.057,8.915-7.914,14.522-10.891,18a29.439,29.439,0,0,0,5.044-1.8C515.219,507.941,526.952,478.069,530.536,467.128Z"/><path class="cls-1" d="M533.374,462.7s-23.4.275-28.319,24.993c-5.388,27.057-23.847,34.051-16.968,48.268s33.478,1.834,52.166,13.987,31.07,10.089,25.337-28.089S565.705,462.7,533.374,462.7Z"/><path class="cls-8" d="M547.03,553.832c14.757,7.158,23.566,1.361,18.56-31.978-1.9-12.685-2.534-23.459-3.707-32.208-6.183.272-10.586.564-10.586.564S560.03,533.024,547.03,553.832Z"/><path class="cls-10" d="M459.578,483.255s4.2-8.713-6.727-15.822-21.248-2.522-21.248-1.07S440.7,479.663,459.578,483.255Z"/><path class="cls-11" d="M462.673,474.962s-.458-8.809,7.338-4.51c0,0-6.115,7.262-8.064,14.026C458.011,484.937,452.355,479.118,462.673,474.962Z"/><path class="cls-1" d="M587.374,505.65c-.153-.459-12.956-35.274-40.013-41.236-9.256-2.039,14.178,68.752,30.535,69.669S587.374,505.65,587.374,505.65Z"/><path class="cls-8" d="M581.925,494.233c-3.152,3.884-8.872,12.159-8.539,20.742.212,5.454,7.274,8.018,15,8.954,1.351-8.168-1.014-18.279-1.014-18.279A83.455,83.455,0,0,0,581.925,494.233Z"/><path class="cls-10" d="M594.635,484.325s3.142-8.645-2.828-10.166c-4.051-1.031-6.459,4.586-6.459,4.586S592.533,481.5,594.635,484.325Z"/><path class="cls-11" d="M591.043,488.605s-4.586-8.6,5.159-8.6c0,0,7.784-11.4,19.777-8.771,7.853,1.72,3.955,11.522,3.955,11.522s-18.63.172-22.528,6.937Z"/><path class="cls-10" d="M527.068,448.593s1.433,10.662-.057,13.586a9.443,9.443,0,0,1-3.956,4.07s1.491,8.025,8.714,8.369,13.815-9.229,13.815-9.229a7.693,7.693,0,0,1-3-6.975c.344-4.815,5.631-17.028,5.631-17.028l-15.032.442Z"/><path class="cls-12" d="M547.35,441.411l-14.167.417-6.115,6.765a63.718,63.718,0,0,1,.527,10.967c2.944.659,10.982,1.647,16.725-8.068,1-2.965,2.2-6.009,3-7.971A11,11,0,0,0,547.35,441.411Z"/><ellipse class="cls-10" cx="512.89" cy="439.096" rx="4.28" ry="3.248"/><path class="cls-5" d="M514.055,437.261s-9.974-10.031,8.026-18.4a12.868,12.868,0,0,1-1.663,11.35C516.52,435.943,514.055,437.261,514.055,437.261Z"/><path class="cls-11" d="M549.578,438.026c-.13,0-.252.02-.379.029.066-.516.136-1.03.172-1.555.808-11.742-6.48-21.223-16.277-21.174s-18.4,9.606-19.2,21.349,6.48,21.223,16.278,21.175c7.544-.037,14.361-5.723,17.473-13.694a5.329,5.329,0,0,0,1.936.367c2.363,0,4.28-1.455,4.28-3.249S551.941,438.026,549.578,438.026Z"/><path class="cls-5" d="M544.686,424.726s-6.414,11.982,4.513,13.329c0,0,9.4-4.768,9.551-7.825s-4.2-4.357-4.2-4.357,9.019-2.828,7.567-6.268-7.414-4.28-7.414-4.28,16.853-7.758,15.133-19.8-31.3-16.395-45.86-1.147S509.106,426.408,544.686,424.726Z"/><path class="cls-5" d="M530.135,443.491a7.311,7.311,0,0,0-7.194,7.423c0,.161,0,.321.015.479a2.727,2.727,0,0,0,1.459,2.262,14.38,14.38,0,0,0,6.671,1.6,15.614,15.614,0,0,0,5.487-1.039,7.568,7.568,0,0,0,.756-3.3A7.311,7.311,0,0,0,530.135,443.491Z"/><path class="cls-13" d="M529.208,453.866a6.2,6.2,0,0,0,.137,1.288,14.5,14.5,0,0,0,1.741.1,15.614,15.614,0,0,0,5.487-1.039,7.6,7.6,0,0,0,.167-6.239,5.945,5.945,0,0,0-1.513-.2A6.058,6.058,0,0,0,529.208,453.866Z"/><path class="cls-14" d="M526.113,435.542s.535,5.732-2.408,7.414-4.51-1.682-2.408-2.714S525.845,437.567,526.113,435.542Z"/><circle class="cls-5" cx="521.603" cy="435.771" r="1.376"/><circle class="cls-5" cx="533.985" cy="436.841" r="1.376"/><path class="cls-15" d="M532.342,428.863a3.113,3.113,0,0,1,3.64.287"/><path class="cls-15" d="M520.858,427.908a3.109,3.109,0,0,1,3.64.287"/><path class="cls-1" d="M589.323,485.739l8.828,2.981s5.159,31.07-3.9,41.274-24.077,5.388-24.994-5.962S588.52,498.351,589.323,485.739Z"/><path class="cls-16" d="M502.227,654.389c-.323-.745-3.419-.885-6.878-.8A17.107,17.107,0,0,1,490,659.739a27.156,27.156,0,0,1-4.3,2.267,36.79,36.79,0,0,1,4.685-.05C498.788,662.414,502.992,656.147,502.227,654.389Z"/><path class="cls-16" d="M565.437,655.459v-.006c-15.363-1.7-12.25,9.58-5.463,7.649,5.111-1.455,10.63-.741,13.287-.238C569.391,661.739,565.811,657.474,565.437,655.459Z"/><path class="cls-5" d="M184.036,604.8s7.72,3.286,12.306,1.223,12.5-34.7,6.306-40.089-9.4,18.344-18.23,23.388S184.036,604.8,184.036,604.8Z"/><path class="cls-1" d="M65.183,567.484s0,68.1,41.044,97.453l10.319-9.86S106,610.363,108.979,583.306c0,0,28.892,26.14,77.044,22.93V587.892s-41.732-16.28-60.535-44.484C125.488,543.408,76.648,543.637,65.183,567.484Z"/><path class="cls-8" d="M118.227,550.669a18.816,18.816,0,0,0,10.761-2.469c-1.235-1.557-2.407-3.154-3.5-4.792,0,0-48.84.229-60.3,24.076,0,0,0,5.208.868,13.356,3.546-.567,9.221-3.266,16.482-12.744C95.3,551.433,105.769,549.828,118.227,550.669Z"/><path class="cls-17" d="M158.2,471.484s5.962,2.446,4.509,10.7-21.095,24.535-42.649,17.58-22.93-29.656-22.93-29.656,11.847-6.5,24.382,3.057S145.972,483.484,158.2,471.484Z"/><path class="cls-18" d="M125.641,487.535c-5.35-10.165-17.274-12-17.274-12s-2.921,3.573-6.971,8.553a31.571,31.571,0,0,0,18.666,15.677,35.143,35.143,0,0,0,19.988.444C134.021,498.738,128.972,493.863,125.641,487.535Z"/><path class="cls-10" d="M159.911,475.317a2.449,2.449,0,0,0,4.043,1.3,8.516,8.516,0,0,0,2.235-3.605c1.548-4.643,11.465-7.911,12.783-12.955s-1.031-11.981-4.07-11.752C172.1,448.518,157.358,463.107,159.911,475.317Z"/><path class="cls-11" d="M159.874,475.22a7.2,7.2,0,0,0,4.93-4.471c1.261-3.669-4.07-6.019-4.07-6.019s.745-7.4-2.637-7.4S153.453,466.449,159.874,475.22Z"/><path class="cls-6" d="M102.329,472.631s.917-.153,6.038,2.9,16.128,13.6,16.128,35.771,2.548,22.928,3.974,24.879c2.6,3.554,1.217,12.752-16.509,13.414-23.542.879-29.809,17.2-39.134,21.936S53.412,567.408,60.9,551.816s11.771-32.867,11.16-44.179S72.215,462.083,102.329,472.631Z"/><path class="cls-7" d="M89.947,478.134s-5.332-.482-11.528-.9c-6.594,8.684-6.723,23.638-6.357,30.4.38,7.037-1.134,16.381-4.135,26.192C87.335,517.133,89.947,478.134,89.947,478.134Z"/><path class="cls-3" d="M27.348,480.924l6.535-2.408s13.529,13.529,25.453,7.8,22.853-15.286,28.318-14.1.115,32.79-20.408,42.306S27.234,499.726,27.348,480.924Z"/><path class="cls-10" d="M31.323,481.153s4.7-1.49,2.79-6.115-1.949-11.426-2.484-14.942-12-7.414-12-7.414S15.31,478.554,31.323,481.153Z"/><path class="cls-11" d="M34.3,480.427a9.489,9.489,0,0,0,4.891-4.892,10.858,10.858,0,0,1,2.764-3.6,1.672,1.672,0,0,0-.591-2.918C40,468.661,38.3,469,36.75,471.561,36.75,471.561,28.113,473.433,34.3,480.427Z"/><path class="cls-5" d="M104.546,663.675s5.953,7.419,12.4,8.484c6.592,1.09,18.745-29.121,11.752-32.216C121.789,636.885,104.546,663.675,104.546,663.675Z"/><path class="cls-10" d="M89.336,458.109s3.057,8.254-3.822,13.834A17.987,17.987,0,0,0,97.82,482.109c9.1,1.987,10.547-6.574,10.547-6.574s-8.1-4.509-7.8-11.006S89.336,458.109,89.336,458.109Z"/><ellipse class="cls-11" cx="99.883" cy="446.45" rx="15.439" ry="19.263"/><path class="cls-5" d="M105.119,458.935c0,2.441-2.06,3.836-4.624,3.836s-4.663-1.4-4.663-3.836a4.649,4.649,0,0,1,9.287,0Z"/><path class="cls-13" d="M101.432,462.706a3.511,3.511,0,0,0,.782-2.28,4.534,4.534,0,0,0-4.643-4.419,4.712,4.712,0,0,0-.6.057,4.262,4.262,0,0,0-1.141,2.871c0,2.441,2.1,3.836,4.663,3.836A6.669,6.669,0,0,0,101.432,462.706Z"/><path class="cls-14" d="M104.7,444.58s-2.962,5.159.8,7.49c2.906,1.8,3.669-1.93,1.624-2.961C105.408,448.242,104.7,444.58,104.7,444.58Z"/><circle class="cls-5" cx="98.603" cy="443.758" r="1.433"/><circle class="cls-5" cx="109.342" cy="442.573" r="1.433"/><path class="cls-5" d="M100.036,428.988s-1.605,14.9-13.911,19.031c0,0-.229,9.4,3.669,13.07,0,0-9.707,10.09-22.471,3.44s-6.647-25.311-2.752-30.8c7.835-11.044-14.9-18.42,1.185-48.42,13.522-25.214,41.732-17.427,47.465-7.682S106.686,396.886,99,404.567s-1.261,15.707-1.261,15.707a22.042,22.042,0,0,1,17.37,2.981c8.541,5.675,9.458,19.433.229,23.733C115.342,446.988,108.348,431.968,100.036,428.988Z"/><path class="cls-8" d="M110.737,567.255l-1.758,16.051s8.891,8.029,25.005,14.642A99.977,99.977,0,0,1,110.737,567.255Z"/><path class="cls-16" d="M130.344,641.918c-2.54-.173-7.066,1.755-11.9,14.445-2.477,6.511-3.363,11.125-3.04,14.115a1.882,1.882,0,0,0,1.526,1.679l.013,0C122.806,673.128,133.045,649.388,130.344,641.918Z"/><path class="cls-16" d="M202.648,565.937a3.978,3.978,0,0,0-.594-.432c-.636.916-1.162,2.962-.744,7.482.841,9.1-2.675,25.911-6.344,30.8-1.122,1.5-.946,2.374-.043,2.68a7.212,7.212,0,0,0,1.419-.444C200.928,603.962,208.839,571.325,202.648,565.937Z"/><path class="cls-16" d="M98.214,405.421c-2.113,1.893-4.016,4.948-11.783,9.923-8.293,5.312-4.968,13.414-4.968,13.414,4.662-9.477,16.28-8.484,16.28-8.484S91.8,412.832,98.214,405.421Z"/><path class="cls-3" d="M410.2,689.93H239.146s-57.324-4.586-75.21-51.134c-17.952-46.723,23.805-46.5,38.981-28.433,14.446,17.2,24.994,18.8,24.994,18.8s-11.007-24.535,4.815-34.624,38.981,19.031,38.981,19.031-3.439-21.783,18.344-27.057,40.357,22.472,52.51,51.363S410.2,689.93,410.2,689.93Z"/><path class="cls-2" d="M501.993,689.93c1.559-6.378,3.517-15.223-20.095-20.178-24.764-5.2-14.369-20.79,5.5-30.268s38.523-32.1,6.115-37.911S445.21,619,407.605,650.491s-67.567-4.281-92.943,15.592c-12.866,10.076-28.812,18.922-38.328,23.847Z"/><path class="cls-19" d="M198.79,623.892s11.694,25.452,28.892,33.707c0,0-22.013,24.994-13.3,58.471,0,0-37.376-12.153-42.879-23.847C171.5,692.223,164.4,647.739,198.79,623.892Z"/><path class="cls-16" d="M222.4,439.369v3.322h-4.51v13.7h-4.146v-13.7h-4.51v-3.322Z"/><path class="cls-16" d="M228.634,439.369v17.023h-4.147V439.369Z"/><path class="cls-16" d="M242.722,440.437a7.628,7.628,0,0,1,3.116,2.994,9.5,9.5,0,0,1,0,8.887,7.584,7.584,0,0,1-3.128,3.007,9.925,9.925,0,0,1-4.693,1.067H231.64V439.369h6.377A9.907,9.907,0,0,1,242.722,440.437Zm-1.31,11.081a4.866,4.866,0,0,0,1.31-3.637,4.546,4.546,0,0,0-4.971-4.971h-1.964V452.8h1.964A5,5,0,0,0,241.412,451.518Z"/><path class="cls-16" d="M259.865,453.385h-6.353l-1.018,3.007h-4.341l6.159-17.023h4.8l6.159,17.023h-4.389Zm-1.066-3.2-2.11-6.232-2.086,6.232Z"/><path class="cls-16" d="M277.009,456.392l-5.723-7.517v7.517H267.14V439.369h4.146v7.469l5.675-7.469h4.873l-6.6,8.342,6.839,8.681Z"/><path class="cls-16" d="M300.262,440.437a7.628,7.628,0,0,1,3.116,2.994,9.5,9.5,0,0,1,0,8.887,7.578,7.578,0,0,1-3.128,3.007,9.924,9.924,0,0,1-4.692,1.067H289.18V439.369h6.378A9.906,9.906,0,0,1,300.262,440.437Zm-1.31,11.081a4.862,4.862,0,0,0,1.31-3.637,4.546,4.546,0,0,0-4.971-4.971h-1.964V452.8h1.964A5,5,0,0,0,298.952,451.518Z"/><path class="cls-16" d="M310.955,439.369v17.023h-4.146V439.369Z"/><path class="cls-16" d="M326.207,439.369v3.322H321.7v13.7h-4.146v-13.7h-4.51v-3.322Z"/><path class="cls-16" d="M332.439,442.691v3.444h5.553v3.2h-5.553v3.734h6.28v3.322H328.292V439.369h10.427v3.322Z"/><path class="cls-16" d="M360.687,439.369v17.023h-4.146V446.183l-3.807,10.209h-3.346l-3.832-10.233v10.233H341.41V439.369h4.9l4.777,11.785,4.728-11.785Z"/><path class="cls-16" d="M367.743,439.369v10.185a3.37,3.37,0,0,0,.752,2.352,2.839,2.839,0,0,0,2.207.825,2.918,2.918,0,0,0,2.23-.825,3.3,3.3,0,0,0,.777-2.352V439.369h4.146v10.16a7.228,7.228,0,0,1-.97,3.856,6.209,6.209,0,0,1-2.607,2.376,8.187,8.187,0,0,1-3.649.8,8,8,0,0,1-3.6-.787,5.864,5.864,0,0,1-2.509-2.377,7.583,7.583,0,0,1-.922-3.868v-10.16Z"/><path class="cls-16" d="M390.633,456.392l-5.722-7.517v7.517h-4.147V439.369h4.147v7.469l5.674-7.469h4.873l-6.6,8.342,6.838,8.681Z"/><path class="cls-16" d="M408.262,453.385h-6.354l-1.018,3.007h-4.34l6.159-17.023h4.8l6.159,17.023H409.28Zm-1.067-3.2-2.11-6.232L403,450.184Z"/><path class="cls-16" d="M430.764,456.392h-4.146l-6.936-10.5v10.5h-4.146V439.369h4.146l6.936,10.549V439.369h4.146Z"/><path class="cls-16" d="M225.487,344.291a39.607,39.607,0,0,1,16.182,15.552,49.339,49.339,0,0,1,0,46.156,39.384,39.384,0,0,1-16.246,15.616q-10.515,5.543-24.368,5.541h-33.12V338.749h33.12Q215.035,338.749,225.487,344.291Zm-6.8,57.552q6.8-6.674,6.8-18.891t-6.8-19.016q-6.8-6.8-19.016-6.8h-10.2v51.382h10.2Q211.883,408.518,218.686,401.843Z"/><path class="cls-16" d="M301.929,411.54H268.934l-5.29,15.616H241.1l31.988-88.407h24.935l31.988,88.407h-22.8Zm-5.542-16.624-10.956-32.365L274.6,394.916Z"/><path class="cls-16" d="M390.712,338.749V356H367.287v71.154H345.753V356H322.329V338.749Z"/><path class="cls-16" d="M443.982,411.54h-33l-5.29,15.616H383.154l31.989-88.407h24.934l31.988,88.407h-22.8Zm-5.541-16.624-10.957-32.365-10.83,32.365Z"/></svg>