<svg width="19" height="19" viewBox="0 0 19 19" fill="none" xmlns="http://www.w3.org/2000/svg">
<path d="M8.96792 1.97701C9.03547 1.90972 9.12693 1.87194 9.22227 1.87194C9.31762 1.87194 9.40908 1.90972 9.47663 1.97701L17.3807 9.88109L18.3117 8.95103L9.46223 0.0991275C9.43101 0.0677132 9.39388 0.0427826 9.35299 0.0257703C9.3121 0.00875812 9.26824 0 9.22395 0C9.17966 0 9.13581 0.00875812 9.09492 0.0257703C9.05403 0.0427826 9.0169 0.0677132 8.98568 0.0991275L0.133301 8.95103L1.06384 9.88109L8.96792 1.97701Z" fill="#E07126"/>
<path d="M0 18.4772H2.50368V16.0777C1.87188 16.1225 1.27566 16.3869 0.818383 16.8252C0.361102 17.2634 0.071579 17.8479 0 18.4772Z" fill="#E07126"/>
<path d="M9.22241 11.4207C8.61756 11.4213 8.03768 11.6619 7.61003 12.0896C7.18238 12.5174 6.94191 13.0973 6.94141 13.7021V18.4772H11.5034V13.7021C11.5029 13.0973 11.2624 12.5174 10.8348 12.0896C10.4071 11.6619 9.82726 11.4213 9.22241 11.4207Z" fill="#E07126"/>
<path d="M15.9409 16.0762V18.4757H18.4446C18.3732 17.8463 18.0837 17.2618 17.6264 16.8235C17.1691 16.3852 16.5728 16.1208 15.9409 16.0762Z" fill="#E07126"/>
<path d="M9.22241 9.09023C10.0417 9.09023 10.7058 8.4261 10.7058 7.60684C10.7058 6.78758 10.0417 6.12344 9.22241 6.12344C8.40315 6.12344 7.73901 6.78758 7.73901 7.60684C7.73901 8.4261 8.40315 9.09023 9.22241 9.09023Z" fill="#E07126"/>
<path d="M3.22339 8.73939V18.4772H6.22137V13.7021C6.22137 12.9062 6.53753 12.143 7.1003 11.5802C7.66308 11.0174 8.42636 10.7013 9.22224 10.7013C10.0181 10.7013 10.7814 11.0174 11.3442 11.5802C11.9069 12.143 12.2231 12.9062 12.2231 13.7021V18.4772H15.2211V8.73939L9.22224 2.74054L3.22339 8.73939ZM11.4255 7.60728C11.4254 8.04303 11.2961 8.46896 11.0539 8.83122C10.8118 9.19348 10.4677 9.4758 10.0651 9.64249C9.66245 9.80917 9.21947 9.85274 8.79211 9.76767C8.36475 9.6826 7.97221 9.47272 7.66413 9.16457C7.35605 8.85642 7.14625 8.46384 7.06128 8.03646C6.9763 7.60909 7.01996 7.16611 7.18674 6.76354C7.35351 6.36098 7.63591 6.01691 7.99822 5.77483C8.36054 5.53275 8.78649 5.40355 9.22224 5.40355C9.80631 5.40469 10.3661 5.63725 10.7791 6.0503C11.192 6.46334 11.4245 7.02321 11.4255 7.60728Z" fill="#E07126"/>
</svg>
