<svg width="20" height="20" viewBox="0 0 20 20" fill="none" xmlns="http://www.w3.org/2000/svg">
<path d="M19.6386 0H0.361404C0.265564 3.44437e-05 0.17366 0.0381219 0.105891 0.105891C0.0381219 0.17366 3.44437e-05 0.265564 0 0.361404V9.20533C0 14.1956 4.07849 18.6312 9.91813 19.9905C9.97198 20.0032 10.028 20.0032 10.0819 19.9905C15.9215 18.6312 20 14.196 20 9.20533V0.361404C20 0.265564 19.9619 0.17366 19.8941 0.105891C19.8263 0.0381219 19.7344 3.44437e-05 19.6386 0ZM19.2771 9.20533C19.2771 13.8352 15.4668 17.9626 10 19.2672C4.5332 17.9626 0.722937 13.8351 0.722937 9.20533V0.722937H19.2771V9.20533Z" fill="white"/>
<path d="M9.9196 17.3602C9.97254 17.3724 10.0275 17.3724 10.0805 17.3602C14.5294 16.3436 17.6366 13.0198 17.6366 9.27707V2.72503C17.6365 2.62915 17.5984 2.53722 17.5306 2.46942C17.4628 2.40163 17.3709 2.36353 17.275 2.36349H2.72506C2.62919 2.36353 2.53725 2.40163 2.46945 2.46942C2.40166 2.53722 2.36356 2.62915 2.36353 2.72503V9.27759C2.36353 13.0198 5.47074 16.3436 9.9196 17.3602ZM3.08646 3.08643H16.9136V9.27759C16.9136 12.6584 14.0748 15.6749 10 16.6369C5.92532 15.6753 3.08646 12.6584 3.08646 9.27759V3.08643Z" fill="white"/>
<path d="M9.7907 11.2439C9.85848 11.3116 9.95032 11.3496 10.0461 11.3496C10.1418 11.3496 10.2336 11.3116 10.3014 11.2439L14.9235 6.63888C14.9571 6.60537 14.9838 6.56558 15.0021 6.52176C15.0203 6.47795 15.0297 6.43097 15.0298 6.38351C15.0299 6.33605 15.0206 6.28903 15.0026 6.24515C14.9845 6.20127 14.9579 6.16138 14.9244 6.12776C14.8909 6.09414 14.8511 6.06745 14.8073 6.04921C14.7635 6.03097 14.7165 6.02154 14.6691 6.02145C14.6216 6.02137 14.5746 6.03063 14.5307 6.04872C14.4868 6.0668 14.4469 6.09335 14.4133 6.12685L10.0468 10.4773L7.68557 8.11659C7.61779 8.04881 7.52587 8.01073 7.43001 8.01073C7.33416 8.01073 7.24223 8.04881 7.17446 8.11659C7.10668 8.18437 7.0686 8.27629 7.0686 8.37214C7.0686 8.468 7.10668 8.55992 7.17446 8.6277L9.7907 11.2439Z" fill="white"/>
</svg>
