<svg width="23" height="23" viewBox="0 0 23 23" fill="none" xmlns="http://www.w3.org/2000/svg">
<path d="M18.5909 0H4.40875C3.2399 0.001369 2.11931 0.467904 1.2928 1.29726C0.466294 2.12662 0.00136429 3.25108 0 4.42397V13.2984C0.0012364 14.4714 0.46611 15.596 1.29263 16.4254C2.11915 17.2549 3.23981 17.7215 4.40875 17.7229H12.6829C12.9078 17.7217 13.1298 17.7739 13.3307 17.8752C13.5317 17.9766 13.7059 18.1241 13.8392 18.3059C13.9771 18.4908 14.0694 18.7059 14.1086 18.9334C14.1478 19.161 14.1328 19.3946 14.0647 19.6153C13.7076 20.8244 13.1575 21.9675 12.4359 23C13.6127 22.8249 14.7296 22.3657 15.6906 21.662C16.6516 20.9582 17.428 20.031 17.9532 18.9598C18.1304 18.6161 18.3789 18.3145 18.6821 18.0755C18.9854 17.8364 19.3361 17.6653 19.7108 17.5738C20.6529 17.3265 21.4867 16.7728 22.0818 15.9993C22.6769 15.2259 22.9998 14.2764 23 13.2992V4.42477C22.9988 3.25169 22.534 2.12698 21.7074 1.29743C20.8808 0.467892 19.76 0.00128383 18.5909 0ZM7.0194 10.1477C6.80533 10.1478 6.59605 10.0841 6.41804 9.96479C6.24003 9.84547 6.10127 9.67586 6.01932 9.47742C5.93737 9.27897 5.9159 9.06059 5.95763 8.8499C5.99936 8.63921 6.10242 8.44567 6.25377 8.29375C6.40512 8.14183 6.59797 8.03836 6.80792 7.99642C7.01787 7.95448 7.23551 7.97596 7.4333 8.05813C7.63109 8.14031 7.80015 8.27949 7.91911 8.45809C8.03807 8.63668 8.10158 8.84666 8.10161 9.06147C8.10136 9.34943 7.98727 9.62553 7.78438 9.82918C7.58149 10.0328 7.30637 10.1474 7.0194 10.1477ZM11.4998 10.1477C11.2858 10.1478 11.0765 10.0841 10.8985 9.96479C10.7205 9.84547 10.5817 9.67586 10.4998 9.47742C10.4178 9.27897 10.3963 9.06059 10.4381 8.8499C10.4798 8.63921 10.5829 8.44567 10.7342 8.29375C10.8856 8.14183 11.0784 8.03836 11.2884 7.99642C11.4983 7.95448 11.7159 7.97596 11.9137 8.05813C12.1115 8.14031 12.2806 8.27949 12.3995 8.45809C12.5185 8.63668 12.582 8.84666 12.5821 9.06147C12.5818 9.34943 12.4677 9.62553 12.2648 9.82918C12.0619 10.0328 11.7868 10.1474 11.4998 10.1477ZM15.9803 10.1477C15.7662 10.1478 15.5569 10.0841 15.3789 9.96479C15.2009 9.84547 15.0621 9.67586 14.9802 9.47742C14.8982 9.27897 14.8768 9.06059 14.9185 8.8499C14.9602 8.63921 15.0633 8.44567 15.2146 8.29375C15.366 8.14183 15.5588 8.03836 15.7688 7.99642C15.9788 7.95448 16.1964 7.97596 16.3942 8.05813C16.592 8.14031 16.761 8.27949 16.88 8.45809C16.9989 8.63668 17.0625 8.84666 17.0625 9.06147C17.0622 9.34943 16.9481 9.62553 16.7453 9.82918C16.5424 10.0328 16.2672 10.1474 15.9803 10.1477Z" fill="white"/>
</svg>
