<?xml version="1.0" encoding="utf-8"?>
<!-- Generator: Adobe Illustrator 24.0.2, SVG Export Plug-In . SVG Version: 6.00 Build 0)  -->
<svg version="1.1" id="Layer_1" xmlns="http://www.w3.org/2000/svg" xmlns:xlink="http://www.w3.org/1999/xlink" x="0px" y="0px"
	 viewBox="0 0 192 192" style="enable-background:new 0 0 192 192;" xml:space="preserve">
<style type="text/css">
	.st0{fill:#529F45;}
</style>
<title>semut gajah fin 192px</title>
<path class="st0" d="M140,24.9H52c-15.1,0-27.4,12.3-27.4,27.4v54.9c0,15.1,12.3,27.4,27.4,27.4h51.4c2.8,0,5.5,1.3,7.2,3.6
	c1.7,2.3,2.3,5.3,1.4,8.1c-2.2,7.5-5.6,14.6-10.1,20.9c14.8-2.2,27.6-11.5,34.2-25c2.2-4.3,6.2-7.4,10.9-8.6
	c12-3.1,20.4-14,20.4-26.4V52.2C167.4,37.1,155.1,24.9,140,24.9z M68.2,87.6c-3.7,0-6.7-3-6.7-6.7s3-6.7,6.7-6.7
	c3.7,0,6.7,3,6.7,6.7C74.9,84.6,71.9,87.6,68.2,87.6z M96,87.6c-3.7,0-6.7-3-6.7-6.7c0-3.7,3-6.7,6.7-6.7c3.7,0,6.7,3,6.7,6.7
	C102.7,84.6,99.7,87.6,96,87.6z M123.8,87.6c-3.7,0-6.7-3-6.7-6.7c0-3.7,3-6.7,6.7-6.7c3.7,0,6.7,3,6.7,6.7
	C130.5,84.6,127.5,87.6,123.8,87.6z"/>
</svg>
