<svg id="Layer_1" data-name="Layer 1" xmlns="http://www.w3.org/2000/svg" viewBox="0 0 192 192"><defs><style>.cls-1{fill:#231f20;}</style></defs><title>semut gajah fin 192px</title><path class="cls-1" d="M148.968,172.95H43.03a24.006,24.006,0,0,1-23.98-23.978V43.032A24.01,24.01,0,0,1,43.03,19.05H148.968A24.01,24.01,0,0,1,172.95,43.032v105.94A24.007,24.007,0,0,1,148.968,172.95ZM43.03,24.613A18.44,18.44,0,0,0,24.613,43.032v105.94A18.436,18.436,0,0,0,43.03,167.387H148.968a18.437,18.437,0,0,0,18.419-18.415V43.032a18.44,18.44,0,0,0-18.419-18.419Z"/></svg>