<svg id="Layer_1" data-name="Layer 1" xmlns="http://www.w3.org/2000/svg" viewBox="0 0 192 192"><defs><style>.cls-1{fill:#529f45;}.cls-2{fill:#428733;}.cls-3{fill:#fb9d5d;}</style></defs><title>semut gajah fin 192px</title><polyline class="cls-1" points="69.179 141.174 85.725 157.721 170.169 73.277 118.723 21.831 34.279 106.275 48.399 120.394"/><path class="cls-2" d="M78.5,99.435A24.674,24.674,0,1,1,89.061,111.8"/><path class="cls-3" d="M119.863,123.581a58.955,58.955,0,0,1-15.592,28.767L86.45,170.169H21.85l-.019-.019,10.506-10.506-.775-5.052a28.689,28.689,0,0,1,8.071-24.641l25.374-25.375a14.351,14.351,0,0,1,20.293,0h0a14.341,14.341,0,0,1,.074,20.2l-18.6,18.6A7.441,7.441,0,0,0,77.3,153.9l2.266-2.266,6.124,6.124Z"/></svg>