<svg width="16" height="15" viewBox="0 0 16 15" fill="none" xmlns="http://www.w3.org/2000/svg">
<path d="M8 0C3.58189 0 0 3.35802 0 7.5C0 11.642 3.58189 15 8 15C12.4181 15 16 11.642 16 7.5C16 3.35802 12.4181 0 8 0ZM10.2979 10.4568C9.94897 10.8549 9.49465 11.1235 8.96461 11.2593C8.73416 11.3179 8.62881 11.4321 8.64198 11.6574C8.65185 11.8796 8.64197 12.0988 8.63868 12.321C8.63868 12.5185 8.53004 12.6235 8.32263 12.6296C8.18765 12.6327 8.05267 12.6358 7.9177 12.6358C7.79918 12.6358 7.68066 12.6358 7.56214 12.6327C7.33827 12.6296 7.23292 12.5093 7.23292 12.3056C7.22963 12.1451 7.22963 11.9815 7.22963 11.821C7.22634 11.463 7.21317 11.4506 6.84774 11.3951C6.38025 11.3241 5.91934 11.2253 5.49136 11.0309C5.15556 10.8765 5.11934 10.7994 5.21481 10.466C5.28724 10.2191 5.35967 9.97222 5.44198 9.7284C5.50123 9.54938 5.5572 9.46914 5.65926 9.46914C5.71852 9.46914 5.79424 9.49691 5.8963 9.5463C6.37037 9.77778 6.87407 9.90741 7.40411 9.96914C7.493 9.9784 7.58189 9.98457 7.67078 9.98457C7.9177 9.98457 8.15802 9.94136 8.39177 9.84568C8.98107 9.60494 9.07325 8.96605 8.57613 8.58333C8.40823 8.4537 8.21399 8.35802 8.01317 8.27469C7.4963 8.06173 6.95967 7.90123 6.47243 7.62654C5.6823 7.1821 5.18189 6.57407 5.24115 5.67284C5.307 4.65432 5.92263 4.01852 6.92016 3.67901C7.33169 3.54012 7.33498 3.54321 7.33498 3.14198C7.33498 3.00617 7.33169 2.87037 7.33827 2.73148C7.34815 2.42901 7.40082 2.37654 7.72346 2.36728C7.75967 2.36728 7.79918 2.36728 7.83539 2.36728C7.89794 2.36728 7.96049 2.36728 8.02304 2.36728C8.04938 2.36728 8.07572 2.36728 8.09877 2.36728C8.71111 2.36728 8.71111 2.39198 8.7144 3.01235C8.7177 3.46914 8.7177 3.46914 9.20165 3.54012C9.57366 3.59568 9.92593 3.69753 10.2683 3.83951C10.456 3.91667 10.5284 4.04012 10.4691 4.22839C10.3835 4.50617 10.3012 4.78704 10.2091 5.06173C10.1498 5.22839 10.0938 5.30556 9.98848 5.30556C9.92922 5.30556 9.85679 5.28395 9.76461 5.24074C9.29053 5.02469 8.79342 4.91975 8.27325 4.91975C8.20741 4.91975 8.13827 4.92284 8.07243 4.92593C7.9177 4.93519 7.76625 4.9537 7.6214 5.01235C7.10782 5.22222 7.02551 5.75309 7.46337 6.08025C7.68395 6.24691 7.93745 6.3642 8.19753 6.46605C8.65185 6.64198 9.10617 6.81173 9.53745 7.03395C10.8938 7.74383 11.2626 9.35802 10.2979 10.4568Z" fill="#529F45"/>
</svg>
