<svg width="19" height="19" viewBox="0 0 19 19" fill="none" xmlns="http://www.w3.org/2000/svg">
<path d="M13.9531 12.2832C14.2605 12.2832 14.5098 12.034 14.5098 11.7266C14.5098 11.4191 14.2605 11.1699 13.9531 11.1699C13.6457 11.1699 13.3965 11.4191 13.3965 11.7266C13.3965 12.034 13.6457 12.2832 13.9531 12.2832Z" fill="#00AC57"/>
<path d="M9.5 7.83008C9.80742 7.83008 10.0566 7.58086 10.0566 7.27344C10.0566 6.96601 9.80742 6.7168 9.5 6.7168C9.19258 6.7168 8.94336 6.96601 8.94336 7.27344C8.94336 7.58086 9.19258 7.83008 9.5 7.83008Z" fill="#00AC57"/>
<path d="M18.4434 8.94336H19V3.37695H5.60352V5.60352H4.49023V3.37695H0V8.94336H0.556641C0.863758 8.94336 1.11328 9.19288 1.11328 9.5C1.11328 9.80712 0.863758 10.0566 0.556641 10.0566H0V15.623H4.49023V13.3965H5.60352V15.623H19V10.0566H18.4434C18.1362 10.0566 17.8867 9.80712 17.8867 9.5C17.8867 9.19288 18.1362 8.94336 18.4434 8.94336ZM5.60352 12.2832H4.49023V10.0566H5.60352V12.2832ZM5.60352 8.94336H4.49023V6.7168H5.60352V8.94336ZM7.83008 7.27344C7.83008 6.35261 8.57917 5.60352 9.5 5.60352C10.4208 5.60352 11.1699 6.35261 11.1699 7.27344C11.1699 8.19427 10.4208 8.94336 9.5 8.94336C8.57917 8.94336 7.83008 8.19427 7.83008 7.27344ZM8.71287 11.7266L13.9531 6.48631L14.7403 7.27344L9.5 12.5137L8.71287 11.7266ZM13.9531 13.3965C13.0323 13.3965 12.2832 12.6474 12.2832 11.7266C12.2832 10.8057 13.0323 10.0566 13.9531 10.0566C14.874 10.0566 15.623 10.8057 15.623 11.7266C15.623 12.6474 14.874 13.3965 13.9531 13.3965Z" fill="#00AC57"/>
</svg>
