<svg width="18" height="18" viewBox="0 0 18 18" fill="none" xmlns="http://www.w3.org/2000/svg">
<path d="M14.1869 18H17.9971C17.9971 17.9797 18.0003 17.9601 18.0003 17.9393C18.0003 17.1746 17.6965 16.4411 17.1557 15.9004C16.6149 15.3596 15.8815 15.0558 15.1168 15.0558L13.6951 15.0852L14.1869 18Z" fill="#529F45"/>
<path d="M9.69658 18H0.0031551C0.0031551 17.9797 0 17.9601 0 17.9393C0.000128717 17.1747 0.303985 16.4413 0.844737 15.9007C1.38549 15.36 2.11885 15.0563 2.88353 15.0563C2.88353 15.0563 3.41284 15.0059 3.8191 15.0124" fill="#529F45"/>
<path d="M3.0376 8.44102V18H14.9627V8.44102L9.00014 1.7168L3.0376 8.44102Z" fill="#E0C226"/>
<path d="M18.0001 8.72922L9.46214 0.191367C9.33958 0.0688351 9.17337 0 9.00006 0C8.82675 0 8.66054 0.0688351 8.53798 0.191367L0 8.72922L1.35009 10.0799L9.00006 2.42922L16.65 10.0799L18.0001 8.72922Z" fill="#E07126"/>
<path d="M9.0001 10.7082C9.65688 10.7082 10.2868 10.9691 10.7512 11.4336C11.2156 11.898 11.4765 12.5279 11.4765 13.1846V18H6.52368V13.1846C6.52368 12.5279 6.78459 11.898 7.24901 11.4336C7.71342 10.9691 8.34331 10.7082 9.0001 10.7082Z" fill="#E07126"/>
<path d="M9.00005 9.19773C9.95457 9.19773 10.7284 8.42394 10.7284 7.46941C10.7284 6.51488 9.95457 5.74109 9.00005 5.74109C8.04552 5.74109 7.27173 6.51488 7.27173 7.46941C7.27173 8.42394 8.04552 9.19773 9.00005 9.19773Z" fill="#E07126"/>
</svg>
