<svg width="72" height="72" viewBox="0 0 72 72" fill="none" xmlns="http://www.w3.org/2000/svg">
<circle cx="36" cy="36" r="36" fill="#F6F6F6"/>
<path d="M44.05 13H13V59H44.05V13Z" fill="#E0C226"/>
<path d="M21.0501 29.1H18.7501C18.1176 29.1 17.6001 29.6175 17.6001 30.25C17.6001 30.8825 18.1176 31.4 18.7501 31.4H21.0501C21.6826 31.4 22.2001 30.8825 22.2001 30.25C22.2001 29.6175 21.6826 29.1 21.0501 29.1Z" fill="#E07126"/>
<path d="M38.2999 23.35H26.7999C26.1674 23.35 25.6499 23.8675 25.6499 24.5C25.6499 25.1325 26.1674 25.65 26.7999 25.65H38.2999C38.9324 25.65 39.4499 25.1325 39.4499 24.5C39.4499 23.8675 38.9324 23.35 38.2999 23.35Z" fill="#E07126"/>
<path d="M21.0501 23.35H18.7501C18.1176 23.35 17.6001 23.8675 17.6001 24.5C17.6001 25.1325 18.1176 25.65 18.7501 25.65H21.0501C21.6826 25.65 22.2001 25.1325 22.2001 24.5C22.2001 23.8675 21.6826 23.35 21.0501 23.35Z" fill="#E07126"/>
<path d="M38.2999 17.6H26.7999C26.1674 17.6 25.6499 18.1175 25.6499 18.75C25.6499 19.3825 26.1674 19.9 26.7999 19.9H38.2999C38.9324 19.9 39.4499 19.3825 39.4499 18.75C39.4499 18.1175 38.9324 17.6 38.2999 17.6Z" fill="#E07126"/>
<path d="M21.0501 17.6H18.7501C18.1176 17.6 17.6001 18.1175 17.6001 18.75C17.6001 19.3825 18.1176 19.9 18.7501 19.9H21.0501C21.6826 19.9 22.2001 19.3825 22.2001 18.75C22.2001 18.1175 21.6826 17.6 21.0501 17.6Z" fill="#E07126"/>
<path d="M42.8998 59C51.7916 59 58.9998 51.7918 58.9998 42.9C58.9998 34.0082 51.7916 26.8 42.8998 26.8C34.008 26.8 26.7998 34.0082 26.7998 42.9C26.7998 51.7918 34.008 59 42.8998 59Z" fill="#428733"/>
<path d="M42.9001 53.365C48.6797 53.365 53.3651 48.6797 53.3651 42.9C53.3651 37.1203 48.6797 32.435 42.9001 32.435C37.1204 32.435 32.4351 37.1203 32.4351 42.9C32.4351 48.6797 37.1204 53.365 42.9001 53.365Z" fill="#529F45"/>
<path d="M42.8998 47.73C45.5674 47.73 47.7298 45.5675 47.7298 42.9C47.7298 40.2325 45.5674 38.07 42.8998 38.07C40.2323 38.07 38.0698 40.2325 38.0698 42.9C38.0698 45.5675 40.2323 47.73 42.8998 47.73Z" fill="#428733"/>
<path d="M54.1242 31.676L47.6152 38.185L45.9937 33.309L52.4912 26.8L54.1242 31.676Z" fill="#E07126"/>
<path d="M52.4912 39.8065L59.0002 33.309L54.1242 31.676L47.6152 38.185L52.4912 39.8065Z" fill="#E07126"/>
<path d="M54.1207 30.054L42.0371 42.1376L43.6634 43.764L55.7471 31.6803L54.1207 30.054Z" fill="#E0C226"/>
</svg>
