<svg width="72" height="72" viewBox="0 0 72 72" fill="none" xmlns="http://www.w3.org/2000/svg">
<circle cx="36" cy="36" r="36" fill="#F6F6F6"/>
<path d="M25.0865 61L25.167 48.787L13 48.9135L28.709 33.2045L40.7955 45.291L25.0865 61Z" fill="#E07126"/>
<path d="M46.9136 61L46.8331 48.787L59.0001 48.9135L43.2911 33.2045L31.2046 45.291L46.9136 61Z" fill="#E07126"/>
<path d="M36.0001 51.8C46.1621 51.8 54.4001 43.562 54.4001 33.4C54.4001 23.238 46.1621 15 36.0001 15C25.8381 15 17.6001 23.238 17.6001 33.4C17.6001 43.562 25.8381 51.8 36.0001 51.8Z" fill="#529F45"/>
<path d="M36 45.6705C42.7768 45.6705 48.2705 40.1768 48.2705 33.4C48.2705 26.6232 42.7768 21.1295 36 21.1295C29.2232 21.1295 23.7295 26.6232 23.7295 33.4C23.7295 40.1768 29.2232 45.6705 36 45.6705Z" fill="#428733"/>
<path d="M36 21.2215L39.5995 27.8685L47.04 29.237L41.8305 34.7225L42.8195 42.209L36 38.9545L29.1805 42.209L30.1695 34.7225L24.96 29.237L32.4005 27.8685L36 21.2215Z" fill="#E0C226"/>
</svg>
