<svg width="72" height="72" viewBox="0 0 72 72" fill="none" xmlns="http://www.w3.org/2000/svg">
<circle cx="36" cy="36" r="36" fill="#F6F6F6"/>
<path d="M52.2611 19.739C51.9851 19.463 51.6861 19.2215 51.4101 18.9685L45.7176 24.661C46.0051 24.914 46.2926 25.1555 46.5686 25.4315C52.4106 31.2735 52.4106 40.738 46.5686 46.5685C40.7266 52.399 31.2621 52.4105 25.4316 46.5685C19.6011 40.7265 19.5896 31.262 25.4316 25.4315L19.7391 19.739C10.7576 28.7205 10.7576 43.2795 19.7391 52.261C28.7206 61.2425 43.2796 61.2425 52.2611 52.261C61.2426 43.2795 61.2426 28.7205 52.2611 19.739Z" fill="#E0C226"/>
<path d="M36 13C35.609 13 35.2295 13.0345 34.85 13.0575V21.1075C35.2295 21.0845 35.609 21.05 36 21.05C44.257 21.05 50.95 27.743 50.95 36C50.95 44.257 44.257 50.95 36 50.95C27.743 50.95 21.05 44.257 21.05 36H13C13 48.7075 23.2925 59 36 59C48.7075 59 59 48.7075 59 36C59 23.2925 48.7075 13 36 13Z" fill="#E07126"/>
</svg>
