<svg width="13" height="8" viewBox="0 0 13 8" fill="none" xmlns="http://www.w3.org/2000/svg">
<path d="M12.0714 4C11.3363 2.90741 10.415 2.09028 9.30748 1.54861C9.60249 2.03009 9.75 2.55093 9.75 3.11111C9.75 3.96759 9.43201 4.70023 8.79604 5.30903C8.16006 5.91782 7.39472 6.22222 6.5 6.22222C5.60528 6.22222 4.83994 5.91782 4.20396 5.30903C3.56799 4.70023 3.25 3.96759 3.25 3.11111C3.25 2.55093 3.39751 2.03009 3.69252 1.54861C2.58501 2.09028 1.66369 2.90741 0.928571 4C1.5718 4.94907 2.37826 5.70486 3.34794 6.26736C4.31762 6.82986 5.3683 7.11111 6.5 7.11111C7.6317 7.11111 8.68238 6.82986 9.65206 6.26736C10.6217 5.70486 11.4282 4.94907 12.0714 4ZM6.84821 1.33333C6.84821 1.24074 6.81436 1.16204 6.74665 1.09722C6.67894 1.03241 6.59673 1 6.5 1C5.89546 1 5.37677 1.20718 4.94392 1.62153C4.51107 2.03588 4.29464 2.53241 4.29464 3.11111C4.29464 3.2037 4.3285 3.28241 4.39621 3.34722C4.46391 3.41204 4.54613 3.44444 4.64286 3.44444C4.73958 3.44444 4.8218 3.41204 4.88951 3.34722C4.95722 3.28241 4.99107 3.2037 4.99107 3.11111C4.99107 2.71296 5.13858 2.37269 5.43359 2.09028C5.72861 1.80787 6.08408 1.66667 6.5 1.66667C6.59673 1.66667 6.67894 1.63426 6.74665 1.56944C6.81436 1.50463 6.84821 1.42593 6.84821 1.33333ZM13 4C13 4.15741 12.9516 4.31713 12.8549 4.47917C12.1778 5.54398 11.2674 6.39699 10.1236 7.03819C8.97982 7.6794 7.77195 8 6.5 8C5.22805 8 4.02018 7.67824 2.87639 7.03472C1.73261 6.3912 0.822173 5.53935 0.145089 4.47917C0.0483631 4.31713 0 4.15741 0 4C0 3.84259 0.0483631 3.68287 0.145089 3.52083C0.822173 2.46065 1.73261 1.6088 2.87639 0.965278C4.02018 0.321759 5.22805 0 6.5 0C7.77195 0 8.97982 0.321759 10.1236 0.965278C11.2674 1.6088 12.1778 2.46065 12.8549 3.52083C12.9516 3.68287 13 3.84259 13 4Z" fill="#CACACA"/>
</svg>
