<svg id="Layer_1" data-name="Layer 1" xmlns="http://www.w3.org/2000/svg" viewBox="0 0 192 192"><defs><style>.cls-1{fill:#e07126;}.cls-2{fill:#e0c226;}.cls-3{fill:#529f45;}.cls-4{fill:#ddb228;}</style></defs><title>semut gajah fin 192px</title><rect class="cls-1" x="28.351" y="21.831" width="39.659" height="17.196"/><path class="cls-2" d="M72.906,64.785a58.644,58.644,0,0,0-4.182-11.743L61.187,37.425l-26.36.5L27.636,53.042a58.68,58.68,0,0,0-5.8,25.448v91.679h52.7v-7.063l.264-79.266.266-8.61Z"/><path class="cls-3" d="M44.049,102.026a25.96,25.96,0,0,1,28.5-32.444c0-.029,0-.056,0-.084a26.081,26.081,0,0,1,50.99-7.726l30.836,54.806Z"/><path class="cls-2" d="M150.045,80.623a24.619,24.619,0,0,0,14.823-31.265l-.3-.862-46.49,16.273.3.862a24.564,24.564,0,0,0,13.4,14.44l.908.552H120.913v.913a24.611,24.611,0,0,0,11.62,20.916l26.188-.109a24.608,24.608,0,0,0,11.448-20.807v-.913Z"/><path class="cls-1" d="M39.24,102.278H170.168a0,0,0,0,1,0,0V104.7A65.464,65.464,0,0,1,104.7,170.169h0A65.464,65.464,0,0,1,39.24,104.7v-2.427A0,0,0,0,1,39.24,102.278Z"/><path class="cls-4" d="M164.567,48.5l-46.49,16.273.3.862a24.564,24.564,0,0,0,13.4,14.44l.908.552h17.355a24.619,24.619,0,0,0,14.823-31.265Z"/></svg>