<svg id="Layer_1" data-name="Layer 1" xmlns="http://www.w3.org/2000/svg" viewBox="0 0 192 192"><defs><style>.cls-1{fill:#e07126;}.cls-2{fill:#ddb228;}.cls-3{fill:#e0c226;}.cls-4{fill:#529f45;}</style></defs><title>semut gajah fin 192px</title><path class="cls-1" d="M133.486,97.488l20.914-37.2a19.429,19.429,0,1,0-22.389-14.056l-35.444,50.9"/><rect class="cls-2" x="59.86" y="155.713" width="72.279" height="14.456"/><path class="cls-3" d="M132.007,156.039a74.149,74.149,0,0,0,38.162-64.858H21.831A74.153,74.153,0,0,0,60.4,156.265"/><path class="cls-4" d="M25.189,49.149H36.326a27.6,27.6,0,0,1,27.6,27.6v0A3.358,3.358,0,0,1,60.566,80.1H49.429a27.6,27.6,0,0,1-27.6-27.6v0A3.358,3.358,0,0,1,25.189,49.149Z"/><path class="cls-4" d="M97.095,21.831h11.137a3.358,3.358,0,0,1,3.358,3.358v0a27.6,27.6,0,0,1-27.6,27.6H72.855A3.358,3.358,0,0,1,69.5,49.429v0a27.6,27.6,0,0,1,27.6-27.6Z" transform="translate(181.087 74.617) rotate(-180)"/></svg>