<svg id="Layer_1" data-name="Layer 1" xmlns="http://www.w3.org/2000/svg" viewBox="0 0 50 50"><defs><style>.cls-1{fill:#e07126;}.cls-2{fill:#e0c226;}.cls-3{fill:#fb9d5d;}</style></defs><title>semut gajah fin</title><rect class="cls-1" x="7.5" y="25" width="35" height="20"/><rect class="cls-2" x="7.5" y="28.987" width="35" height="4"/><rect class="cls-3" x="5" y="15.013" width="40" height="10"/><path class="cls-2" d="M42.361,11.192a6.224,6.224,0,0,0-3.853-5.65A6.457,6.457,0,0,0,31.5,6.74L25,12.759,18.5,6.74a6.457,6.457,0,0,0-7.008-1.2,6.224,6.224,0,0,0-3.853,5.65c0,.022,0,.131,0,.153a7.246,7.246,0,0,0,7.238,7.237h20.25a7.246,7.246,0,0,0,7.238-7.237C42.363,11.323,42.362,11.214,42.361,11.192Zm-27.486,3.39a3.252,3.252,0,0,1-3.237-3.291,2.247,2.247,0,0,1,1.425-2.07A2.665,2.665,0,0,1,14.1,9.009a2.427,2.427,0,0,1,1.68.665l5.3,4.908Zm20.25,0H28.918l5.3-4.908a2.427,2.427,0,0,1,1.68-.665,2.665,2.665,0,0,1,1.038.212,2.247,2.247,0,0,1,1.425,2.07A3.252,3.252,0,0,1,35.125,14.582Z"/><rect class="cls-2" x="23" y="16.797" width="4" height="28.203"/></svg>