<?xml version="1.0" encoding="utf-8"?>
<!-- Generator: Adobe Illustrator 24.0.2, SVG Export Plug-In . SVG Version: 6.00 Build 0)  -->
<svg version="1.1" id="Layer_1" xmlns="http://www.w3.org/2000/svg" xmlns:xlink="http://www.w3.org/1999/xlink" x="0px" y="0px"
	 viewBox="0 0 192 192" style="enable-background:new 0 0 192 192;" xml:space="preserve">
<style type="text/css">
	.st0{fill:#C4C4C4;}
</style>
<title>semut gajah fin 192px</title>
<path class="st0" d="M94,39.9c1.1-1.1,2.8-1.1,3.9,0l0,0L159,101l7.2-7.2L97.8,25.4c-1-1-2.7-1-3.7,0L25.8,93.8L33,101L94,39.9z"/>
<path class="st0" d="M24.7,167.4H44v-18.6C34,149.5,25.9,157.3,24.7,167.4z"/>
<path class="st0" d="M96,112.9c-9.7,0-17.6,7.9-17.6,17.6v36.9h35.3v-36.9C113.6,120.8,105.7,112.9,96,112.9z"/>
<path class="st0" d="M147.9,148.8v18.6h19.3C166.1,157.3,158,149.5,147.9,148.8z"/>
<circle class="st0" cx="96" cy="83.4" r="11.5"/>
<path class="st0" d="M49.6,92.1v75.2h23.2v-36.9c0-12.8,10.4-23.2,23.2-23.2s23.2,10.4,23.2,23.2v36.9h23.2V92.1L96,45.8L49.6,92.1z
	 M113,83.4c0,9.4-7.6,17-17,17s-17-7.6-17-17s7.6-17,17-17l0,0C105.4,66.4,113,74,113,83.4z"/>
</svg>
