<svg width="201" height="191" viewBox="0 0 201 191" fill="none" xmlns="http://www.w3.org/2000/svg">
<path d="M200.543 58.8344C200.543 25.0155 172.451 0 132.634 0C40.9769 0 11.6914 72.6169 19.3867 113.817C34.909 196.927 174.075 201.243 170.119 129.115C169.51 118.041 174.079 107.319 182.131 99.6976C193.58 88.8599 200.543 74.5388 200.543 58.8344Z" fill="#EAE9E5"/>
<path d="M170.119 129.115C170.064 128.154 170.057 127.197 170.08 126.244C144.549 103.224 100.637 86.6435 66.2015 88.0617C45.6459 88.9103 29.1007 95.3385 18.356 105.297C18.5342 108.253 18.879 111.105 19.3866 113.817C34.9128 196.927 174.075 201.24 170.119 129.115Z" fill="#DDDDDB"/>
<path d="M178.717 141.127C179.182 140.231 179.593 139.317 179.93 138.379C183.212 129.274 178.779 121.888 170.03 121.888C161.746 121.888 152.566 128.51 148.831 136.946C147.188 135.725 144.999 134.97 142.581 134.97C138.024 134.97 134.25 137.632 133.514 141.127H178.717Z" fill="#F4F4F4"/>
<path d="M86.8812 68.7421C85.5173 64.5109 81.2667 61.3491 76.121 61.0275C76.7564 59.7101 77.3066 58.3578 77.7561 56.9706C82.0842 43.6414 75.6444 32.7301 63.3691 32.6022C51.0978 32.4744 37.6407 43.1803 33.3126 56.5095C32.4214 59.2606 31.9913 61.9071 31.972 64.3753C29.6897 62.2907 26.4737 60.9926 22.905 60.9926C17.2517 60.9926 12.4742 64.2552 10.9165 68.7344H86.8812V68.7421Z" fill="#F4F4F4"/>
<path d="M101.485 100.666L91.6009 76.3987C86.8117 64.6465 99.0056 52.9912 110.432 58.5166C113.974 60.2293 117.705 62.7672 121.506 66.4328L126.245 78.0144L101.485 100.666Z" fill="#3B7728"/>
<path d="M121.502 66.4289C119.487 64.4876 117.492 62.8641 115.535 61.508C116.888 67.7928 116.946 77.5301 108.813 87.0078C105.155 91.27 104.554 94.4705 105.643 96.8613L126.245 78.0106L121.502 66.4289Z" fill="#356B22"/>
<path d="M116.008 87.3177C110.73 72.4387 102.667 63.3485 97.7305 58.8499C92.0462 62.0698 88.6519 69.1993 91.5696 76.3677L101.454 100.635L116.008 87.3177Z" fill="#3F7F2D"/>
<path d="M113.113 80.254C112.036 82.358 110.63 84.4892 108.812 86.6087C105.034 91.0143 104.515 94.2846 105.755 96.6985L116.008 87.3177C115.113 84.7991 114.14 82.4472 113.113 80.254Z" fill="#3B7728"/>
<path d="M21.2232 142.068C21.1805 141.894 10.6799 141.746 5.30176 141.688C3.39925 141.665 1.67111 140.584 0.822538 138.883C-0.460008 136.318 0.62105 133.176 3.23651 132.001C6.25883 130.645 11.1991 129.475 19.03 129.987L21.2232 142.068Z" fill="#103007"/>
<path d="M19.034 129.983C11.2031 129.471 6.26276 130.641 3.24045 131.998C2.4345 132.358 1.77579 132.908 1.28369 133.571C2.95759 137.322 7.6848 140.801 20.394 137.922C20.4211 137.918 20.4444 137.91 20.4676 137.903L19.034 129.983Z" fill="#143F0A"/>
<path d="M96.913 190.46H94.4564L92.9956 156.164H98.3699L96.913 190.46Z" fill="#103007"/>
<path d="M64.5199 190.46H61.6875L75.7761 151.86H81.968L64.5199 190.46Z" fill="#103007"/>
<path d="M126.849 190.46H129.682L115.593 151.86H109.397L126.849 190.46Z" fill="#103007"/>
<path d="M140.566 68.188C140.388 68.1842 141.291 73.6553 135.82 84.1908C135.82 84.1908 113.141 83.629 113.148 83.2415C113.156 82.854 123.944 79.0722 125.943 72.8843L140.566 68.188Z" fill="#CB9B78"/>
<path d="M151.423 94.6178C140.14 95.1138 128.911 108.482 127.961 119.939C127.942 120.191 127.938 120.552 127.95 120.986C126.326 115.355 123.199 110.357 119.038 106.459L93.3714 138.341C93.3714 138.341 77.9576 128.181 66.3527 120.656C65.2872 124.205 64.8106 128.014 65.0663 131.967C66.1125 148.345 79.5811 161.419 95.983 161.977C112.571 162.542 122.816 149.519 128.837 134.722C140.566 105.886 160.723 104.975 160.723 104.975C161.195 102.317 160.827 94.2032 151.423 94.6178Z" fill="#143F0A"/>
<path d="M87.7417 111.562L110.204 85.3842C124.347 69.3001 148.397 85.0278 148.397 85.0278L120.793 138.337L107.406 133.241L87.7417 111.562Z" fill="#4A8E3C"/>
<path d="M135.482 99.7751C116.504 122.613 99.1717 118.851 88.52 112.418L107.406 133.238L120.793 138.333L146.595 88.4995C143.348 91.0801 139.663 94.7418 135.482 99.7751Z" fill="#468636"/>
<path d="M2.80282 190.46H31.9449C32.9601 190.46 33.9598 190.235 34.8781 189.801C37.9546 188.344 39.4929 184.845 38.4894 181.595L35.8545 173.047C35.8545 173.047 12.5168 185.012 6.47609 186.907C0.43534 188.802 2.80282 190.46 2.80282 190.46Z" fill="#103007"/>
<path d="M31.3092 181.753C32.9095 179.157 32.2585 177.232 30.4064 175.806C23.1799 179.432 10.8388 185.504 6.56885 186.876C12.7568 187.996 26.5432 189.491 31.3092 181.753Z" fill="#143F0A"/>
<path d="M76.6055 139.046L62.1527 123.644C62.1527 123.644 9.86278 143.436 9.31643 163.98C8.96383 177.34 20.5571 182.625 33.2198 181.606C67.3642 178.851 53.4771 136.469 76.6055 139.046Z" fill="#C65B20"/>
<path d="M64.175 145.335C59.1766 141.537 47.3431 137.151 21.6069 145.695C14.6129 151.344 9.48664 157.625 9.32002 163.984C8.96355 177.34 20.5568 182.625 33.2195 181.606C57.9986 179.607 57.4833 156.746 64.175 145.335Z" fill="#CE6824"/>
<path d="M120.793 138.337L109.541 125.996C91.9224 108.757 84.6611 93.9126 42.6974 108.493L32.2704 111.295C17.6006 115.235 11.6799 133.137 21.4521 144.761C21.6264 144.97 21.8086 145.176 21.9907 145.385C21.9907 145.385 58.4948 121.908 68.7745 136.826C82.3982 156.587 105.868 164.991 120.793 138.337Z" fill="#DD7126"/>
<path d="M139.326 72.3147C135.013 78.7351 127.709 81.0174 124.83 79.0684C120.529 76.1507 120.006 69.2187 124.319 62.7982C128.632 56.3778 135.626 53.5182 139.938 56.4165C144.259 59.3148 143.639 65.8903 139.326 72.3147Z" fill="#E2B892"/>
<path d="M145.441 45.5207C144.491 37.1822 138.361 31.3856 131.743 32.5712C125.125 33.7569 120.1 42.9401 121.049 51.2786C121.998 59.6171 128.392 62.8525 135.01 61.6668C135.448 61.5893 135.878 61.4847 136.296 61.3607C136.087 62.0775 136.037 62.8564 136.176 63.6468C136.645 66.2662 139.043 68.0292 141.531 67.5836C144.019 67.138 145.654 64.6504 145.185 62.031C144.825 60.0317 143.344 58.536 141.562 58.1369C144.429 55.1727 146.03 50.6741 145.441 45.5207Z" fill="#091E02"/>
<path d="M144.569 49.5117C144.596 49.5737 144.995 54.3706 145.22 57.1256C145.32 58.3423 145.89 59.466 146.808 60.268C148.408 61.6668 148.753 64.0188 147.626 65.8244C146.107 68.2578 143.519 71.1406 139.725 71.3188L138.105 53.7546L144.569 49.5117Z" fill="#091E02"/>
<path d="M140.051 72.0473C141.386 72.0473 142.469 70.9648 142.469 69.6294C142.469 68.2941 141.386 67.2116 140.051 67.2116C138.715 67.2116 137.633 68.2941 137.633 69.6294C137.633 70.9648 138.715 72.0473 140.051 72.0473Z" fill="#E2B892"/>
<path d="M133.25 82.0054C133.25 82.0054 139.218 64.0575 160.362 59.6171C181.507 55.1766 179.91 73.7444 168.36 83.1601L133.25 82.0054Z" fill="#4A8E3C"/>
<path d="M168.356 83.1601C177.88 75.3951 180.635 61.4111 169.456 59.2296C168.604 64.6969 165.818 73.3415 157.262 82.792L168.356 83.1601Z" fill="#468636"/>
<path d="M135.482 99.7751C135.703 100.004 156.519 96.3575 170.565 81.0949C177.772 63.0811 137.862 65.5532 131.836 85.7368C130.399 90.5687 132.817 97.0163 135.482 99.7751Z" fill="#529C45"/>
<path d="M170.568 81.0987C172.823 75.461 170.464 71.8264 165.969 70.1177C161.788 78.7739 153.159 89.6077 135.482 99.779C135.707 100.008 156.518 96.3575 170.568 81.0987Z" fill="#4A8E3C"/>
<path d="M127.667 64.4334C127.713 64.321 125.129 66.5529 122.575 66.0685C122.041 65.9678 121.506 66.2197 121.281 66.7156C120.979 67.386 121.374 68.1687 122.095 68.3082C123.594 68.5949 126.043 68.343 127.667 64.4334Z" fill="#C98356"/>
<path d="M132.285 65.7976C132.567 65.197 132.337 64.4949 131.771 64.2295C131.205 63.9642 130.518 64.2359 130.236 64.8366C129.954 65.4372 130.185 66.1392 130.75 66.4046C131.316 66.67 132.003 66.3982 132.285 65.7976Z" fill="#091E02"/>
<path d="M126.403 63.6281C126.722 63.1547 126.701 62.5815 126.356 62.3479C126.01 62.1143 125.47 62.3089 125.15 62.7824C124.831 63.2558 124.852 63.829 125.197 64.0626C125.543 64.2961 126.083 64.1016 126.403 63.6281Z" fill="#091E02"/>
<path d="M47.7229 133.435C47.7229 133.435 47.719 133.435 47.7229 133.435C56.2629 131.037 64.644 130.824 68.7784 136.822C82.3982 156.583 105.868 164.991 120.793 138.337L109.541 125.996C102.303 118.913 96.8084 112.236 89.9423 107.838C82.3865 114.209 69.3983 123.175 47.7229 133.435Z" fill="#D36B24"/>
<path d="M81.4526 149.81C86.1488 154.06 94.003 156.149 102.384 154.75C111.432 153.243 118.584 148.093 121.239 141.948C107.437 135.26 94.5842 154.808 81.4526 149.81Z" fill="#143F0A"/>
</svg>
