<svg id="Layer_1" data-name="Layer 1" xmlns="http://www.w3.org/2000/svg" viewBox="0 0 512 512"><defs><style>.cls-1{fill:#de7126;}</style></defs><title>icon logo apps MPM</title><circle class="cls-1" cx="255.845" cy="360.653" r="5.503" transform="translate(-54.466 45.639) rotate(-9.217)"/><path class="cls-1" d="M482.965,254.853c-18.362-64.887-71.446-117.64-140.834-142.032a3.485,3.485,0,0,0-3.3.529,81.5,81.5,0,0,0-31.6,64.283c0,41.611,31.532,76.008,72.477,81.54a1.1,1.1,0,0,1-.092,2.188q-2.241.119-4.513.12c-46.434,0-84.076-36.856-84.076-82.319a81.636,81.636,0,0,1,34.082-66.172,3.238,3.238,0,0,0-1.006-5.761,263.575,263.575,0,0,0-68.793-9.049c-84.5,0-157.767,39.973-199.874,98.52-8.848,12.3-21.994,32.367-27.715,58.8a97.857,97.857,0,0,0,11.181,70.481l0-.011c1.991,3.388,13.237,20.807,29.479,25.009a10.7,10.7,0,0,0,10.115-2.142l.083-.076a3.15,3.15,0,0,0-.68-5.1C64.3,336.53,55.743,326.19,55.743,314.678c0-7.07,3.243-13.694,8.884-19.411.121-.026.243-.058.364-.079.02,0,.043,0,.063-.006a206.973,206.973,0,0,0,89.888,109.259,36.23,36.23,0,0,0,30.245,3.064c11.8-4.086,28.223-9.343,39.243-11.1a3.084,3.084,0,0,0,.6-5.933c-18.373-6.98-30.9-20.912-30.9-36.963v-.044a7.944,7.944,0,0,1,3.589-6.682,55.917,55.917,0,0,1,25.721-8.338V321.21a1.679,1.679,0,0,0-2.349-1.55,33.693,33.693,0,0,1-13.664,2.738,31.535,31.535,0,0,1-16.781-4.406,3.159,3.159,0,0,1-.508-4.9c4.071-4.092,11.419-6.825,19.811-6.825,6.676,0,12.69,1.73,16.921,4.5a5.511,5.511,0,0,1,2.524,4.611c0,4.849,0,15.367,0,22.852,11.848.124,22.614,3.456,30.731,8.844l12.863-18.109a1.679,1.679,0,0,0-1.019-2.624,33.63,33.63,0,0,1-12.726-5.677,31.542,31.542,0,0,1-11.092-13.236,3.173,3.173,0,0,1,2.392-4.351c5.687-.981,13.254,1.039,20.1,5.9,5.518,3.92,9.446,8.893,11.259,13.658a5.352,5.352,0,0,1-.673,4.994c-3.589,5.053-12.6,17.762-16.375,23.082a32.369,32.369,0,0,1,8.015,10.6c.192,1,.373,1.951.564,2.951-.479,10.266-6.09,19.589-15.032,26.677a1.606,1.606,0,0,0,.953,2.874h.021a3.149,3.149,0,0,0,1.716-.49,27.442,27.442,0,0,1,14.323-3.818,28.506,28.506,0,0,1,11.656,2.4,3.062,3.062,0,0,0,4.269-2.37c1.692-11.789,9.578-25.545,22.28-36.88,20.747-18.515,46.467-23.551,57.447-11.248s3.062,37.287-17.686,55.8a81.772,81.772,0,0,1-14.017,10.11,1.873,1.873,0,0,0,.15,3.354l.169.073a36.1,36.1,0,0,0,27.9.51c38.907-15.778,72.142-39.637,96.474-68.95A96.047,96.047,0,0,0,482.965,254.853Zm-87.546,60.452a16.618,16.618,0,0,1-4.689.672,16.282,16.282,0,0,1-16.452-16.108,15.777,15.777,0,0,1,3.314-9.684,3.616,3.616,0,0,1,6.484,2.487q-.054.735-.054,1.484a20.474,20.474,0,0,0,11.68,18.4A1.483,1.483,0,0,1,395.419,315.305Zm17.572-49.2a5.5,5.5,0,1,1,5.5-5.5A5.5,5.5,0,0,1,412.991,266.105Z"/></svg>