<svg width="243" height="175" viewBox="0 0 243 175" fill="none" xmlns="http://www.w3.org/2000/svg">
<path d="M24.4975 20.8989H10.9995L16.8035 14.5642L10.9995 8.10434H30.8538V14.5426C30.8538 18.0552 28.0101 20.8989 24.4975 20.8989Z" fill="#468636"/>
<path d="M43.6696 14.5167H23.811V8.07844C23.811 4.56586 26.6548 1.72214 30.1673 1.72214H43.6653V14.5167H43.6696Z" fill="#529C45"/>
<path d="M44.5288 0.798683H42.7466V31.9329H44.5288V0.798683Z" fill="#091E02"/>
<path d="M242.817 68.349C243.835 33.426 214.254 4.81614 179.318 4.72552C160.72 4.67374 143.968 12.6008 132.3 25.2745C120.735 37.8318 103.63 43.7436 86.8693 40.4943C83.4257 39.8254 79.9088 39.3508 76.3358 39.0789C35.2896 35.9417 2.14012 61.0088 2.29547 95.0558C2.43355 125.577 37.9952 175.703 125.119 165.614C173.967 159.952 241.035 129.396 242.817 68.349Z" fill="#EAE9E5"/>
<path d="M54.7472 40.0757C43.7304 42.0089 33.8098 46.0954 25.6368 51.839L2.36484 92.1431C2.31306 93.1053 2.28716 94.0763 2.29148 95.0558C2.42957 125.577 37.9912 175.703 125.115 165.614C125.767 165.536 126.427 165.454 127.083 165.372L54.7472 40.0757Z" fill="#DDDDDB"/>
<path d="M147.658 161.398C176.177 154.278 206.461 139.541 225.06 116.282L199.384 71.8098L147.658 161.398Z" fill="#DDDDDB"/>
<path d="M166.925 56.0765H234.506C233.28 47.1527 222.894 50.6307 222.894 50.6307C222.894 50.6307 235.425 21.5246 211.54 22.8753C187.612 24.2303 189.408 52.2921 182.451 49.0773C176.488 46.3198 168.237 48.7277 166.925 56.0765Z" fill="#F4F4F4"/>
<path d="M113.136 141.207L43.5877 20.7436L11.0122 77.1693L81.1387 143.511L113.136 141.207Z" fill="#DDDDDB"/>
<path d="M118.901 17.1576C120.338 16.5665 123.566 20.0834 122.133 22.8623C120.882 25.2918 118.375 21.8051 118.34 21.7059C118.306 21.6066 116.36 16.8556 116.692 16.7908C117.024 16.7261 118.901 17.1576 118.901 17.1576Z" fill="#091E02"/>
<path d="M97.8902 23.0609L96.272 26.9618C96.272 26.9618 109.382 33.2706 104.186 48.2099L121.059 49.5476C121.059 49.5476 114.456 44.7966 115.319 38.8632C117.019 27.1862 104.881 22.3877 104.881 22.3877L100.527 21.6929L97.8902 23.0609Z" fill="#CB9B78"/>
<path d="M103.103 32.4766C103.103 32.4766 106.404 43.4157 115.578 42.1988C115.276 41.1502 115.155 40.0283 115.324 38.8588C116.592 30.1464 110.154 25.2616 106.805 23.3457C105.351 26.8928 103.103 32.4766 103.103 32.4766Z" fill="#C38E6D"/>
<path d="M157.639 26.7719C157.634 26.6986 157.738 24.6791 157.738 24.6791C157.738 24.6791 161.039 23.7642 161.768 21.4427C162.498 19.1254 161.242 14.4132 156.853 13.8522C152.465 13.2955 151.006 19.4447 151.006 19.4447L148.331 21.3261C148.331 21.3261 147.947 22.6984 149.66 23.3284C151.373 23.9584 151.127 26.0642 151.127 26.0642L157.639 26.7719Z" fill="#C38E6D"/>
<path d="M142.484 144.435C142.484 144.435 134.272 150.373 138.924 154.032C143.576 157.691 168.707 160.561 169.104 159.176C169.501 157.79 168.742 157.411 167.158 156.522C165.575 155.633 153.967 151.162 153.967 147.697C153.962 144.236 142.484 144.435 142.484 144.435Z" fill="#103007"/>
<path d="M169.001 158.092C169.044 158.092 169.083 158.092 169.126 158.092C168.91 157.493 168.22 157.126 167.154 156.526C165.57 155.637 153.962 151.167 153.962 147.701C153.962 144.236 142.484 144.435 142.484 144.435C142.484 144.435 141.802 144.927 140.948 145.712C142.29 149.531 147.658 157.864 169.001 158.092Z" fill="#143F0A"/>
<path d="M77.8374 152.319C77.8374 152.319 73.4186 148.5 71.1747 150.472C69.5263 151.922 70.6482 163.862 62.4278 172.704C61.7632 173.416 62.2983 174.581 63.2692 174.589C65.552 174.607 69.125 173.765 72.4261 169.338C79.0931 160.401 77.8374 152.319 77.8374 152.319Z" fill="#103007"/>
<path d="M70.6958 171.327C71.2784 170.762 71.8566 170.106 72.4305 169.338C76.1804 164.306 77.4232 159.547 77.7943 156.349C77.2377 154.718 76.8838 153.687 76.8838 153.687C76.8838 153.687 72.0853 152.798 70.7001 171.301C70.6958 171.31 70.6958 171.319 70.6958 171.327Z" fill="#143F0A"/>
<path d="M159.831 27.3804C159.831 27.3804 153.104 23.5226 149.639 25.0545C146.173 26.5864 151.718 40.1448 139.347 43.2604C126.975 46.3759 111.544 44.2011 107.388 44.8915C103.233 45.5863 109.17 61.8114 109.17 61.8114C109.17 61.8114 128.887 72.2413 148.551 61.0218C168.146 49.841 159.831 27.3804 159.831 27.3804Z" fill="#3F7F2D"/>
<path d="M146.868 37.2104C145.764 39.8557 143.627 42.1815 139.351 43.2604C126.984 46.3759 111.548 44.2011 107.393 44.8915C104.64 45.3489 106.318 52.633 107.764 57.4919C112.485 58.0486 118.72 57.6473 126.954 55.576C139.312 52.469 144.745 44.9562 146.868 37.2104Z" fill="#3B7728"/>
<path d="M116.846 39.7206C122.066 38.22 124.746 31.6056 122.832 24.9471C120.918 18.2885 115.134 14.1073 109.914 15.608C104.694 17.1086 102.014 23.723 103.928 30.3815C105.843 37.0401 111.626 41.2213 116.846 39.7206Z" fill="#E2B892"/>
<path d="M105.774 21.1967C105.774 21.1967 114.275 26.5821 120.351 19.941C117.662 16.3766 113.645 14.5426 109.912 15.6128C108.635 15.9796 107.513 16.6528 106.572 17.559L105.774 21.1967Z" fill="#CB9B78"/>
<path d="M113.257 0.00468226C108.014 -0.172241 103.888 4.68669 104.044 10.8574C104.048 10.9696 103.94 13.2006 99.8406 13.0625C97.6356 12.9892 95.8922 14.7886 95.9483 17.08C95.9656 17.7445 96.1339 18.3789 96.4187 18.9485C94.4682 19.2333 93.0269 20.8342 93.0744 22.8192C93.1132 24.4158 94.1057 25.8226 95.5125 26.5346C95.5125 26.5346 100.225 28.9986 103.267 33.9222L104.419 32.3515L104.501 31.1217C106.171 31.0742 107.461 29.784 107.422 28.1442C107.405 27.4451 107.146 26.7935 106.728 26.2627C108.277 25.7535 109.364 24.2475 109.317 22.4308C109.3 21.762 109.131 21.1276 108.846 20.5623C110.309 21.6411 112.484 21.8957 114.288 21.9562C119.531 22.1331 123.182 17.6712 123.031 11.5004C122.871 5.32965 118.495 0.181606 113.257 0.00468226Z" fill="#091E02"/>
<path d="M128.369 87.7372L134.336 97.2048C134.336 97.2048 130.082 128.771 120.053 140.775C110.025 152.78 85.8853 165.381 79.0888 158.584C73.8976 153.393 74.2127 148.124 76.3875 144.193C77.2592 142.614 79.3219 142.204 80.7804 143.27C82.0146 144.176 83.8701 144.823 86.4808 144.008C90.2307 142.834 94.6279 139.187 97.3681 135.14C99.1718 132.477 99.0726 128.935 97.1351 126.371C93.1349 121.064 87.4301 109.827 99.8407 99.22C116.856 84.6734 128.369 87.7372 128.369 87.7372Z" fill="#CE6824"/>
<path d="M101.455 98.2922C100.725 98.9309 99.2842 100.066 97.5063 101.438C88.2157 111.359 93.4112 121.43 97.1309 126.371C97.2215 126.492 97.3078 126.613 97.3898 126.738C98.5808 128.538 100.324 129.923 102.426 130.423C109.011 131.994 117.3 131.394 127.475 126.311C132.226 112.86 134.337 97.2048 134.337 97.2048L128.986 88.7211C126.927 89.0836 124.964 89.5367 123.221 90.1106C113.196 93.4117 104.622 95.5219 101.455 98.2922Z" fill="#C65B20"/>
<path d="M135.523 97.2695C135.523 97.2695 103.116 105.106 97.6575 101.391C90.9344 96.8121 95.4136 88.5096 97.459 82.9862C102.439 69.5314 99.0427 48.65 99.0427 48.65C99.0427 48.65 109.136 43.4071 116.852 45.3834C124.576 47.3684 137.802 67.2918 135.523 97.2695Z" fill="#4A8E3C"/>
<path d="M107.138 45.7114C102.62 46.7988 99.0469 48.6544 99.0469 48.6544C99.0469 48.6544 102.443 69.5314 97.4633 82.9905C96.898 84.5224 96.1428 86.2701 95.4912 88.0911C102.011 87.0943 121.011 82.149 122.893 58.2557C123.829 46.3846 116.316 44.1881 107.138 45.7114Z" fill="#468636"/>
<path d="M138.216 145.004C135.86 143.429 135.717 139.981 137.892 138.165C139.506 136.818 141.098 134.963 141.098 132.861C141.098 128.607 137.832 124.352 124.377 126.626C110.922 128.9 91.6244 120.39 97.3637 101.296C97.3637 101.296 106.072 102.78 123.488 98.3268C139.312 94.2791 164.055 101.792 161.384 121.184C158.497 142.139 160.495 146.316 154.557 148.297C151.325 149.371 143.096 148.262 138.216 145.004Z" fill="#DD7126"/>
<path d="M118.927 24.1569C118.927 24.1569 119.816 26.2584 122.215 26.0599C124.614 25.8614 124.217 28.4851 122.539 28.4851C121.417 28.4851 118.927 27.9414 118.927 24.1569Z" fill="#C98356"/>
<path d="M116.68 26.3405C117.15 26.1029 117.293 25.4395 117 24.8589C116.706 24.2783 116.087 24.0003 115.617 24.2379C115.147 24.4756 115.004 25.1389 115.298 25.7195C115.591 26.3001 116.21 26.5782 116.68 26.3405Z" fill="#091E02"/>
<path d="M120.974 23.6417C121.308 23.4729 121.377 22.9361 121.127 22.4427C120.878 21.9492 120.405 21.6861 120.071 21.8549C119.737 22.0238 119.669 22.5606 119.918 23.054C120.167 23.5474 120.64 23.8106 120.974 23.6417Z" fill="#091E02"/>
<path d="M120.17 33.413C119.859 33.413 119.561 33.3613 119.272 33.262C118.029 32.8305 117.464 31.6179 117.438 31.5661C117.339 31.3504 117.434 31.0915 117.65 30.9922C117.866 30.893 118.12 30.9879 118.219 31.2037C118.228 31.2209 118.668 32.1401 119.557 32.4464C120.114 32.6363 120.748 32.5543 121.443 32.1962C121.654 32.0883 121.913 32.1703 122.025 32.3817C122.133 32.5932 122.051 32.8521 121.84 32.9643C121.257 33.2663 120.701 33.413 120.17 33.413Z" fill="#091E02"/>
<path d="M78.3169 93.9209L78.3428 94.0461C78.7829 96.3245 78.1702 98.6375 76.8325 100.536C76.4398 101.088 76.1506 101.744 76.1161 102.478C75.9996 104.933 76.7677 106.448 79.7841 106.746C82.8004 107.043 83.8619 107.846 85.6614 107.397C87.4608 106.949 87.3357 105.067 87.3357 105.067C87.3357 105.067 89.3466 105.322 88.9625 102.443C88.5785 99.5652 85.0616 99.4789 85.8556 94.9479C86.6496 90.4213 78.3169 93.9209 78.3169 93.9209Z" fill="#E2B892"/>
<path d="M86.58 99.1682C86.6577 99.1553 86.7267 99.138 86.8001 99.1251C86.0493 98.2102 85.484 97.0667 85.8551 94.9523C86.6491 90.4213 78.3164 93.9252 78.3164 93.9252L78.3423 94.0504C78.5149 94.9523 78.5235 95.8584 78.3854 96.7474C79.7188 98.5166 82.1483 99.9924 86.58 99.1682Z" fill="#CB9B78"/>
<path d="M73.4014 89.0793C74.2644 94.5984 79.9691 98.111 85.2121 96.195C85.9155 95.9361 86.58 95.5995 87.1712 95.1594C91.426 91.992 80.6423 77.8425 96.7682 72.2025C112.894 66.5625 120.912 64.9788 122.694 57.4574C124.476 49.936 120.713 40.736 99.5386 46.3759C80.2755 51.511 69.7766 65.8677 73.4014 89.0793Z" fill="#529C45"/>
<path d="M150.89 14.4175C150.126 14.8102 149.561 17.8783 152.318 18.7931C155.076 19.7079 157.751 23.583 161.441 21.3693C165.13 19.1556 158.89 10.2878 150.89 14.4175Z" fill="#CB9B78"/>
<path d="M148.301 21.5635C148.301 21.5635 154.869 21.3391 155.451 19.1901C156.034 17.0411 152.478 16.4068 149.979 17.8351C147.485 19.2635 148.301 21.5635 148.301 21.5635Z" fill="#E2B892"/>
<path d="M105.035 33.9531C106.07 33.462 106.498 32.1946 105.99 31.1221C105.481 30.0497 104.229 29.5784 103.193 30.0695C102.158 30.5606 101.73 31.8281 102.238 32.9005C102.747 33.9729 103.999 34.4442 105.035 33.9531Z" fill="#E2B892"/>
<path d="M96.7687 72.2025C102.055 70.3556 106.465 68.9402 110.072 67.6111C105.093 69.0049 99.1075 70.1743 93.3035 70.5195C81.6784 71.2143 80.1767 80.0993 84.1984 84.2721C88.8848 89.1354 87.806 93.8735 87.5212 94.8314C90.7835 91.1247 81.1433 77.6698 96.7687 72.2025Z" fill="#4A8E3C"/>
<path d="M127.545 125.931C124.606 126.117 122.185 126.484 120.2 126.98C121.629 126.967 123.035 126.85 124.377 126.622C137.832 124.347 141.099 128.602 141.099 132.857C141.099 134.959 139.506 136.818 137.893 138.16C137.841 138.204 137.798 138.251 137.746 138.299C138.984 138.67 140.339 139.291 141.789 140.279C148.918 145.13 153.962 124.253 127.545 125.931Z" fill="#D36B24"/>
<path d="M97.2085 135.364C94.4597 139.321 90.1618 142.855 86.4809 144.008C84.1119 144.75 82.3642 144.279 81.1387 143.511C81.4623 144.275 81.7212 145.199 81.8636 146.316C82.5023 151.387 92.0691 144.344 97.2085 135.364Z" fill="#C65B20"/>
<path d="M86.5804 102.754C86.5804 102.754 85.4887 106.103 86.3949 107.074C87.4176 106.379 87.3313 105.067 87.3313 105.067C87.3313 105.067 87.3399 105.067 87.3485 105.067C86.999 104.817 86.6667 104.191 86.5804 102.754Z" fill="#CB9B78"/>
<path d="M0 127.316H76.1894C76.1894 127.316 72.9573 120.326 64.7756 121.776C64.7756 121.776 69.2591 103.043 56.4645 101.723C43.6699 100.402 36.9382 119.799 35.4883 119.929C35.4883 119.929 30.1849 113.956 24.4068 117.948C8.70809 128.801 4.75105 118.876 0 127.316Z" fill="#F4F4F4"/>
<path d="M41.3613 87.7372C41.3915 87.7588 41.3829 87.7113 41.3397 87.6164C41.3311 87.6811 41.3397 87.7243 41.3613 87.7372Z" fill="#F4F4F4"/>
<path d="M43.5879 20.7436L16.73 67.2616L27.7036 64.7846C27.7036 64.7846 40.537 85.817 41.3353 87.6207C41.4691 85.9335 50.6605 67.555 50.6605 67.555L64.3138 84.7727L72.4178 70.6835L43.5879 20.7436Z" fill="#F4F4F4"/>
<path d="M163.262 98.2275H206.366C206.366 98.2275 203.471 96.1821 200.278 97.0797C200.278 97.0797 196.536 90.7449 191.695 93.3384C186.862 95.9318 171.344 75.9265 163.262 98.2275Z" fill="#F4F4F4"/>
</svg>
