<svg width="73" height="73" viewBox="0 0 73 73" fill="none" xmlns="http://www.w3.org/2000/svg">
<circle cx="36.5" cy="36.5" r="36.5" fill="white"/>
<path d="M35.9996 67.9992C53.6725 67.9992 67.9992 53.6725 67.9992 35.9996C67.9992 18.3267 53.6725 4 35.9996 4C18.3267 4 4 18.3267 4 35.9996C4 53.6725 18.3267 67.9992 35.9996 67.9992Z" fill="#428733"/>
<path d="M35.7997 56.5995C47.2871 56.5995 56.5995 47.2871 56.5995 35.7997C56.5995 24.3124 47.2871 15 35.7997 15C24.3124 15 15 24.3124 15 35.7997C15 47.2871 24.3124 56.5995 35.7997 56.5995Z" fill="#529F45"/>
<path d="M35.5999 45.1998C40.9018 45.1998 45.1998 40.9018 45.1998 35.5999C45.1998 30.298 40.9018 26 35.5999 26C30.298 26 26 30.298 26 35.5999C26 40.9018 30.298 45.1998 35.5999 45.1998Z" fill="#428733"/>
<path d="M60.2166 11.7839L51.1608 20.8398L48.9048 14.0559L57.9447 5L60.2166 11.7839Z" fill="#E07126"/>
<path d="M57.9451 23.0958L67.0009 14.0559L60.217 11.7839L51.1611 20.8398L57.9451 23.0958Z" fill="#E07126"/>
<path d="M60.2113 9.51528L33.3984 36.3282L35.6611 38.5909L62.474 11.778L60.2113 9.51528Z" fill="#E0C226"/>
</svg>
