<svg width="21" height="21" viewBox="0 0 21 21" fill="none" xmlns="http://www.w3.org/2000/svg">
<path d="M17.9237 3.0765C17.7977 2.9505 17.6612 2.84025 17.5352 2.72475L14.9364 5.3235C15.0677 5.439 15.1989 5.54925 15.3249 5.67525C17.9919 8.34225 17.9919 12.663 15.3249 15.3248C12.6579 17.9865 8.33715 17.9918 5.6754 15.3248C3.01365 12.6578 3.0084 8.337 5.6754 5.67525L3.07665 3.0765C-1.0236 7.17675 -1.0236 13.8233 3.07665 17.9235C7.1769 22.0238 13.8234 22.0238 17.9237 17.9235C22.0239 13.8233 22.0239 7.17675 17.9237 3.0765Z" fill="#C2C2C2"/>
<path d="M10.5 0C10.3215 0 10.1482 0.01575 9.975 0.02625V3.70125C10.1482 3.69075 10.3215 3.675 10.5 3.675C14.2695 3.675 17.325 6.7305 17.325 10.5C17.325 14.2695 14.2695 17.325 10.5 17.325C6.7305 17.325 3.675 14.2695 3.675 10.5H0C0 16.3012 4.69875 21 10.5 21C16.3012 21 21 16.3012 21 10.5C21 4.69875 16.3012 0 10.5 0Z" fill="white"/>
</svg>
