<svg width="11" height="11" viewBox="0 0 11 11" fill="none" xmlns="http://www.w3.org/2000/svg">
<path d="M7.31499 5.50034L10.718 2.09735C11.094 1.72135 11.094 1.11177 10.718 0.736363L10.2643 0.282702C9.88821 -0.0934113 9.27863 -0.0934113 8.90322 0.282702L5.50034 3.68558L2.09735 0.281997C1.72135 -0.0939988 1.11177 -0.0939988 0.736363 0.281997L0.281997 0.735658C-0.0939988 1.11177 -0.0939988 1.72135 0.281997 2.09676L3.68558 5.50034L0.282702 8.90322C-0.0934113 9.27933 -0.0934113 9.88891 0.282702 10.2643L0.736363 10.718C1.11236 11.094 1.72194 11.094 2.09735 10.718L5.50034 7.31499L8.90322 10.718C9.27933 11.094 9.88891 11.094 10.2643 10.718L10.718 10.2643C11.094 9.88821 11.094 9.27863 10.718 8.90322L7.31499 5.50034Z" fill="white"/>
</svg>
