<svg width="20" height="20" viewBox="0 0 20 20" fill="none" xmlns="http://www.w3.org/2000/svg">
<path d="M10.5512 2.77644L9.24588 2.77663C8.14402 2.77661 7.08732 3.21429 6.30822 3.99339C5.52912 4.77248 5.09144 5.82919 5.09147 6.93104L5.09153 8.53654C5.09145 9.751 4.83465 10.9517 4.33797 12.0599L4.04131 12.7218L5.09098 12.7219L14.7071 12.7222L15.7572 12.7223L15.4605 12.0603C14.9637 10.9521 14.7068 9.75136 14.7067 8.5369L14.7066 6.93141C14.7064 5.82945 14.2685 4.77264 13.4893 3.99345C12.71 3.21426 11.6531 2.77649 10.5512 2.77644V2.77644Z" fill="#E0C226"/>
<path d="M7.72547 11.8531L12.074 11.8532C12.0901 11.8532 12.1055 11.8596 12.1169 11.871C12.1283 11.8824 12.1347 11.8979 12.1347 11.914L12.1348 13.1701C12.1348 13.7629 11.8993 14.3315 11.4801 14.7506C11.0609 15.1698 10.4924 15.4053 9.89952 15.4053C9.30668 15.4053 8.73811 15.1698 8.31889 14.7505C7.89966 14.3313 7.66414 13.7627 7.66411 13.1699L7.66406 11.9138C7.66406 11.8977 7.67046 11.8822 7.68186 11.8709C7.69325 11.8595 7.7087 11.8531 7.72481 11.8531L7.72547 11.8531Z" fill="#E07126"/>
<path d="M11.1857 5.12671L8.61409 5.12661C8.60458 5.12661 8.59546 5.12283 8.58873 5.11611C8.58201 5.10938 8.57823 5.10027 8.57823 5.09076L8.57814 2.64299C8.57813 2.46945 8.61231 2.29761 8.67871 2.13728C8.74512 1.97696 8.84245 1.83128 8.96516 1.70857C9.08786 1.58587 9.23354 1.48854 9.39386 1.42213C9.55419 1.35573 9.72603 1.32155 9.89957 1.32156V1.32156C10.25 1.32157 10.5862 1.46081 10.834 1.70865C11.0818 1.95648 11.2211 2.29261 11.2211 2.64309L11.2212 5.09086C11.2212 5.10037 11.2174 5.10949 11.2107 5.11621C11.204 5.12293 11.1948 5.12671 11.1853 5.12671L11.1857 5.12671Z" fill="#E0C226"/>
<path d="M10.2211 2.64305L10.2212 4.12667L9.5782 4.12665L9.57814 2.64302C9.57814 2.60081 9.58645 2.559 9.60261 2.52C9.61876 2.481 9.64244 2.44556 9.67229 2.41571C9.70214 2.38586 9.73758 2.36218 9.77658 2.34602C9.81559 2.32987 9.85739 2.32156 9.89961 2.32156C9.98487 2.32156 10.0666 2.35544 10.1269 2.41573C10.1872 2.47602 10.2211 2.55779 10.2211 2.64305Z" stroke="#E0C226" stroke-opacity="0.86" stroke-width="2"/>
<path d="M15.0325 11.4988L4.76506 11.4984C4.18208 11.4983 3.70949 11.9709 3.70951 12.5539C3.70954 13.1369 4.18216 13.6095 4.76514 13.6095L15.0326 13.6099C15.6156 13.61 16.0881 13.1374 16.0881 12.5544C16.0881 11.9714 15.6155 11.4988 15.0325 11.4988Z" fill="#E0C226"/>
</svg>
