<svg width="195" height="242" viewBox="0 0 195 242" fill="none" xmlns="http://www.w3.org/2000/svg">
<path d="M187.525 96.1764C186.845 51.2159 160.225 14.7747 128.496 14.7747C110.438 14.7747 90.5276 24.8788 84.3797 45.0412C63.0144 115.117 3.82184 94.3206 1.06861 147.033C-0.974358 186.12 38.2315 217.899 84.078 217.899C123.952 217.899 189.102 200.387 187.525 96.1764Z" fill="#EAE9E5"/>
<path d="M116.57 213.729C136.164 208.395 156.238 197.004 170.016 174.458L149.174 104.86L116.57 213.729Z" fill="#DDDDDB"/>
<path d="M78.9681 217.762L38.4524 38.5533L7.39551 175.909C19.47 199.383 47.2773 216.127 78.9681 217.762Z" fill="#DDDDDB"/>
<path d="M130.283 71.4966H194.959C194.096 67.6665 190.14 64.772 185.386 64.772C183.339 64.772 181.438 65.3104 179.872 66.2269C179.811 64.52 179.528 62.7176 179.001 60.8388C175.725 49.1729 164.311 39.1948 153.512 38.5533C142.713 37.9118 136.614 46.8474 139.895 58.5133C140.54 60.8045 141.499 63.0269 142.705 65.131C141.804 64.898 140.849 64.772 139.857 64.772C135.102 64.7758 131.146 67.6704 130.283 71.4966Z" fill="#F4F4F4"/>
<path d="M66.2679 85.0413C67.7381 82.1468 68.1123 78.5764 67.0851 74.7196C64.5305 65.1195 54.2851 57.3753 44.1963 57.4173C34.1074 57.4593 28.0015 65.2799 30.5561 74.8799C31.1251 77.0145 32.0759 79.0575 33.317 80.9477C31.9767 80.5048 30.4874 80.2566 28.9179 80.2566C24.4769 80.2566 20.6697 82.2346 19.085 85.0451H66.2679V85.0413Z" fill="#F4F4F4"/>
<path d="M52.9299 241.365C52.9299 241.365 70.908 241.716 74.1767 241.365C75.1199 241.265 75.9639 240.513 76.6894 239.497C78.7705 236.584 78.0336 232.574 75.1925 230.394C73.9629 229.45 72.9624 228.313 73.0082 227.121C73.1266 224.085 63.3166 225.605 63.3166 225.605C63.3166 225.605 62.7323 229.638 57.7108 233.372C52.6969 237.111 52.6511 239.142 52.9299 241.365Z" fill="#103007"/>
<path d="M116.09 241.521H144.226C144.226 241.521 145.162 237.279 136.169 236.347C127.18 235.411 125.897 231.325 127.646 225.956L115.502 227.824C115.502 227.824 119.122 232.143 116.553 234.594C113.99 237.046 114.922 240.276 116.09 241.521Z" fill="#103007"/>
<path d="M127.68 106.433C127.505 106.17 121.735 88.1344 121.513 78.1525L111.569 88.921L102.55 112.738L128.119 106.609" fill="#3F7F2D"/>
<path d="M95.6035 70.2136C95.6035 70.2136 101.557 69.3391 103.542 64.7835L113.421 68.919C113.421 68.919 112.413 76.3425 120.001 78.7367L97.761 82.1239L95.6035 70.2136Z" fill="#CB9B78"/>
<path d="M113.414 70.6642C113.326 69.6217 113.422 68.919 113.422 68.919L103.543 64.7835C102.611 66.9181 100.813 68.2432 99.1592 69.0489C101.943 71.153 106.961 73.5472 113.414 70.6642Z" fill="#C38E6D"/>
<path d="M108.95 38.7481C108.95 38.7481 103.352 47.676 103.833 51.3648C104.314 55.0536 122.063 62.5267 122.059 62.0188C122.056 61.5109 132.878 50.9066 133.019 50.6278C133.832 48.9934 131.152 48.3786 131.152 48.3786C131.152 48.3786 135.528 44.9342 130.334 42.7729C125.141 40.6192 108.95 38.7481 108.95 38.7481Z" fill="#091E02"/>
<path d="M102.122 24.1303L103.363 36.0101L108.404 30.3165L114.628 34.8301L112.799 17.3561L107.132 17.948C104.043 18.2726 101.797 21.0411 102.122 24.1303Z" fill="#DBA728"/>
<path d="M105.975 6.67156L107.804 24.1456L113.474 23.5537C116.564 23.2291 118.805 20.4645 118.484 17.3752L117.243 5.49542L105.975 6.67156Z" fill="#DDBF26"/>
<path d="M71.87 9.47107L72.0342 11.0396L118.131 6.21495L117.966 4.64638L71.87 9.47107Z" fill="#091E02"/>
<path d="M102.55 72.7797C102.55 72.7797 90.9909 71.4966 92.6253 54.9009C94.3322 37.5643 108.614 33.6655 107.804 28.5294C104.058 4.81571 58.9488 14.683 68.503 43.697C76.6749 68.5181 71.1188 100.125 71.1188 100.125C71.1188 100.125 95.2105 95.6876 95.0845 95.4394C94.9585 95.1989 102.55 72.7797 102.55 72.7797Z" fill="#3B7728"/>
<path d="M67.2539 34.2383C73.7685 40.5046 85.7437 41.7762 107.147 30.958C107.674 30.1409 107.93 29.3542 107.8 28.5332C104.501 7.6224 69.0487 12.8272 67.2539 34.2383Z" fill="#3F7F2D"/>
<path d="M80.0889 7.48875C80.0889 7.48875 75.4913 15.5461 79.8713 20.1857C84.2474 24.8253 95.1954 17.9976 95.1954 17.9976L93.4427 6.57228L80.0889 7.48875Z" fill="#C38E6D"/>
<path d="M79.3259 3.27298C76.3817 5.25103 76.2137 9.62718 79.1311 11.6472C80.502 12.5943 82.4381 13.1594 85.1684 12.747C93.5732 11.4792 96.5059 10.2496 96.5059 10.2496L97.0902 7.3551C97.7661 4.01762 95.5322 0.798512 92.1718 0.229536C88.7961 -0.33944 84.2558 -0.0339493 79.3259 3.27298Z" fill="#CB9B78"/>
<path d="M96.246 17.6616C96.246 17.6616 98.3615 11.6129 98.4073 9.47444C98.4493 7.33219 89.6818 3.72359 87.509 8.23339C86.2068 10.9332 90.8197 12.4797 90.8197 12.4797C90.8197 12.4797 87.4059 15.2368 88.9791 18.0396C90.5524 20.8425 96.246 17.6616 96.246 17.6616Z" fill="#E2B892"/>
<path d="M116.324 165.714C108.53 142.21 109.065 137.311 109.065 137.311L86.6149 130.689C86.6149 130.689 76.8087 163.789 87.5085 179.9C92.9615 188.114 95.3138 204.45 95.0885 206.573C92.045 234.888 140.118 238.302 140.729 206.573C141.007 191.917 121.979 182.756 116.324 165.714Z" fill="#CE6824"/>
<path d="M84.2323 141.114C82.2199 152.207 80.6352 169.551 87.5049 179.896C91.7054 186.224 94.0653 197.366 94.8252 203.125C102.157 201.468 127.222 194.567 121.113 178.67C114.984 162.731 90.9111 145.628 84.2323 141.114Z" fill="#C65B20"/>
<path d="M84.1595 154.017C85.9122 141.897 88.5394 133.202 88.5394 133.202L67.7012 121.933C67.7012 121.933 56.6233 129.46 56.4935 151.879C56.3178 182.176 44.293 189.298 44.293 205.817C44.293 218.743 54.7713 229.225 67.7012 229.225C80.6311 229.225 91.8884 218.72 91.1094 205.817C90.3151 192.681 82.4105 166.138 84.1595 154.017Z" fill="#D36B24"/>
<path d="M121.293 63.4771C124.956 57.3278 123.794 49.8814 118.698 46.8452C113.601 43.8089 106.5 46.3325 102.836 52.4818C99.1729 58.6311 100.335 66.0775 105.431 69.1138C110.528 72.1501 117.629 69.6264 121.293 63.4771Z" fill="#E2B892"/>
<path d="M122.506 51.2732C121.72 49.4364 120.44 47.886 118.699 46.8474C114.789 44.518 109.699 45.465 105.888 48.8101C108.599 51.361 113.827 54.1753 122.506 51.2732Z" fill="#CB9B78"/>
<path d="M108.95 56.1343C109.629 56.1343 110.18 55.5838 110.18 54.9047C110.18 54.2256 109.629 53.6751 108.95 53.6751C108.271 53.6751 107.721 54.2256 107.721 54.9047C107.721 55.5838 108.271 56.1343 108.95 56.1343Z" fill="#091E02"/>
<path d="M116.255 60.4875C116.934 60.4875 117.485 59.937 117.485 59.2579C117.485 58.5788 116.934 58.0283 116.255 58.0283C115.576 58.0283 115.025 58.5788 115.025 59.2579C115.025 59.937 115.576 60.4875 116.255 60.4875Z" fill="#091E02"/>
<path d="M102.939 55.4737C104.306 55.4737 105.414 54.3658 105.414 52.9992C105.414 51.6326 104.306 50.5247 102.939 50.5247C101.573 50.5247 100.465 51.6326 100.465 52.9992C100.465 54.3658 101.573 55.4737 102.939 55.4737Z" fill="#E2B892"/>
<path d="M120.791 66.1124C122.157 66.1124 123.265 65.0045 123.265 63.6379C123.265 62.2713 122.157 61.1634 120.791 61.1634C119.424 61.1634 118.316 62.2713 118.316 63.6379C118.316 65.0045 119.424 66.1124 120.791 66.1124Z" fill="#E2B892"/>
<path d="M109.172 65.7419C108.667 65.7419 108.152 65.6045 107.686 65.3295C106.686 64.7338 106.143 63.6112 106.338 62.5381C106.376 62.3319 106.571 62.1906 106.781 62.2288C106.987 62.267 107.125 62.4656 107.09 62.6718C106.953 63.4317 107.35 64.2374 108.079 64.6689C108.813 65.1042 109.706 65.0737 110.309 64.5925C110.474 64.4589 110.714 64.4856 110.848 64.6498C110.982 64.814 110.955 65.0546 110.787 65.1882C110.329 65.5548 109.76 65.7419 109.172 65.7419Z" fill="#091E02"/>
<path d="M117.999 51.235C111.263 50.5323 106.131 45.7018 106.673 35.7428C107.215 25.7838 114.795 17.4897 124.598 17.6654C135.214 17.8563 136.703 31.0497 132.246 40.8445C129.509 46.8741 127.985 52.2775 117.999 51.235Z" fill="#091E02"/>
<path d="M124.862 51.5328C124.862 51.5328 119.111 56.73 122.292 61.6713L129.062 53.6751L124.862 51.5328Z" fill="#091E02"/>
<path d="M111.699 44.6593C111.699 44.6593 106.895 50.7729 104.207 50.876L103.81 50.6851L109.366 43.3037L111.699 44.6593Z" fill="#091E02"/>
<path d="M59.1172 131.273L110.176 140.965C110.176 140.965 106.636 104.936 121.51 78.1563L95.1918 68.7014C95.1956 68.6938 68.2246 92.102 59.1172 131.273Z" fill="#4A8E3C"/>
<path d="M64.2109 132.24L110.176 140.961C110.176 140.961 106.636 104.933 121.509 78.1525C121.509 78.1525 84.9194 74.0284 64.2109 132.24Z" fill="#468636"/>
<path d="M114.41 136.085C125.084 136.085 133.736 127.432 133.736 116.759C133.736 106.085 125.084 97.4328 114.41 97.4328C103.737 97.4328 95.084 106.085 95.084 116.759C95.084 127.432 103.737 136.085 114.41 136.085Z" fill="#529C45"/>
<path d="M109.072 114.62C109.072 114.62 106.751 118.428 103.249 115.407C103.249 115.407 106.075 108.973 107.056 108.358C108.733 107.308 111.959 108.358 111.959 108.358L109.072 114.62Z" fill="#CB9B78"/>
<path d="M124.496 116.671L135.451 121.433L132.973 114.246L139.965 111.046L123.85 104.039L121.578 109.267C120.341 112.119 121.647 115.434 124.496 116.671Z" fill="#DBA728"/>
<path d="M115.343 106.552L131.457 113.559L133.729 108.331C134.967 105.482 133.661 102.168 130.812 100.931L119.856 96.1688L115.343 106.552Z" fill="#DDBF26"/>
<path d="M104.433 129.734L105.879 130.363L120.93 95.7414L119.484 95.1126L104.433 129.734Z" fill="#091E02"/>
<path d="M113.536 108.197L121.112 111.951L116.866 124.209C116.866 124.209 109.816 126.878 105.307 121.845C105.307 121.845 104.986 115.182 109.583 108.797C110.466 107.575 112.184 107.525 113.536 108.197Z" fill="#E2B892"/>
<path d="M78.6873 210.193C105.532 202.101 77.8243 176.448 54.9545 168.608C51.6743 185.689 44.2891 192.868 44.2891 205.813C44.2891 206.428 44.3196 207.031 44.3654 207.635C51.3459 212.167 62.2786 215.142 78.6873 210.193Z" fill="#DD7126"/>
<path d="M61.621 229.382C60.7848 230.611 59.5437 232.013 57.7146 233.372C56.0344 234.625 54.9117 235.682 54.1709 236.622C58.6731 238.123 65.2869 239.115 73.4283 236.809C73.4321 236.813 76.7046 233.769 61.621 229.382Z" fill="#143F0A"/>
<path d="M127.21 231.371C127.019 231.386 126.832 231.402 126.645 231.425C122.2 231.986 122.754 238.699 127.229 238.47C128.168 238.42 129.222 238.252 130.406 237.92C133.427 237.069 135.947 236.71 137.91 236.587C137.375 236.492 136.798 236.408 136.172 236.343C130.566 235.763 127.954 233.953 127.21 231.371Z" fill="#143F0A"/>
</svg>
