<svg width="272" height="160" viewBox="0 0 272 160" fill="none" xmlns="http://www.w3.org/2000/svg">
<path d="M84.5447 143.437H241.441C241.27 134.661 237.713 112.426 206.153 111.62C166.799 110.615 111.242 94.147 93.1162 64.9816C76.2026 37.7694 56.3334 23.0796 33.5836 34.839C3.9433 50.1614 14.4194 97.4965 61.1311 105.256C104.5 112.461 94.2429 133.548 84.5447 143.437Z" fill="#FCE8E3"/>
<path d="M114.181 143.437H250.83C250.83 143.437 256.523 135.734 252.002 130.585C247.48 125.436 239.065 127.508 236.803 121.728C233.462 113.183 248.118 110.842 264.308 98.5585C285.66 82.3564 259.787 47.4408 220.727 64.522C181.666 81.6033 167.475 122.672 157.554 131.966C147.632 141.26 123.684 116.476 114.181 143.437Z" fill="#E07126"/>
<path d="M103.805 112.457C103.805 112.457 100.121 81.8114 77.5132 91.6921C77.5132 91.6921 65.9586 57.5296 53.2314 59.3716C40.5041 61.2137 48.5427 99.0602 63.2791 114.634C63.2791 114.634 45.861 85.1608 32.9689 90.8546C20.0767 96.5483 34.8109 133.557 57.0831 143.437H138.302C139.906 143.462 140.385 101.761 103.805 112.457Z" fill="#E0C226"/>
<path d="M20.4313 143.148H127.247C127.247 143.148 99.1961 143.148 86.5177 130.426C73.8392 117.704 58.9408 122.102 59.2594 134.824C55.8901 135.457 44.0735 128.721 32.6342 117.311C12.1907 96.9189 -20.245 127.18 20.4313 143.148Z" fill="#529F45"/>
<path d="M115.334 159.597C115.508 158.814 115.596 158.014 115.598 157.211C115.598 151.246 110.931 146.41 105.174 146.41C99.4163 146.41 94.749 151.246 94.749 157.211C94.7511 158.014 94.8396 158.814 95.013 159.597H115.334Z" fill="#4A913C"/>
<path d="M93.4095 99.8556C93.4095 99.8556 109.988 87.5473 112.333 88.2172C114.677 88.8871 117.943 99.6047 103.959 112.331C89.9762 125.058 93.4095 99.8556 93.4095 99.8556Z" fill="#DD5F28"/>
<path d="M107.769 108.441C103.795 107.059 99.7228 105.981 95.5862 105.215C95.5862 105.215 94.534 106.762 93.1658 108.84C93.6845 114.531 96.0003 119.576 103.959 112.331C105.305 111.111 106.577 109.812 107.769 108.441Z" fill="#CE4E21"/>
<path d="M87.9237 58.6021C87.9237 58.6021 80.1502 68.1623 82.638 81.2122L68.0518 73.0339L77.1234 48.482L87.9237 58.6021Z" fill="#CE9E78"/>
<path d="M79.637 50.8373C78.2501 50.8581 77.0314 50.8921 76.2169 50.9348L72.7454 60.3313C74.101 63.4879 77.2368 69.4539 82.4283 72.0868C83.1189 67.2072 85.0069 62.5745 87.9237 58.6021L79.637 50.8373Z" fill="#C6916D"/>
<path d="M53.3022 143.437H95.7519C95.7519 143.437 100.634 143.36 100.901 138.162C101.403 128.366 92.4857 122.211 90.2247 107.517C87.9636 92.822 71.2598 73.3548 71.2598 73.3548C71.2598 73.3548 59.4834 74.6633 56.9419 97.595C54.4393 120.194 37.2452 131.829 53.3022 143.437Z" fill="#DD5F28"/>
<path d="M65.4836 86.1659C65.4836 86.1659 70.4527 135.476 100.813 138.974C100.858 138.706 100.888 138.434 100.903 138.162C101.287 130.679 96.1762 125.317 92.7325 116.655L82.1897 112.416L65.4836 86.1659Z" fill="#CE4E21"/>
<path d="M116.76 118.099C116.76 118.099 118.141 127.895 129.257 124.881C140.372 121.866 138.111 108.175 136.227 107.58C134.343 106.985 131.674 108.993 128.974 111.19C126.274 113.388 125.426 112.917 125.426 112.917C125.426 112.917 128.943 108.27 125.897 105.225C124.027 103.355 122.38 105.444 122.38 105.444C122.38 105.444 123.794 109.589 121.407 111.63C119.021 113.671 115.821 113.891 116.76 118.099Z" fill="#E5BB95"/>
<path d="M135.698 120.43C125.364 125.488 118.864 118.381 118.864 118.381L118.613 118.507C118.613 118.507 117.935 118.641 116.928 118.862C117.531 121.102 120.059 127.375 129.257 124.881C131.881 124.246 134.176 122.66 135.698 120.43Z" fill="#CE9E78"/>
<path d="M110.491 88.3426C110.491 88.3426 110.71 92.8341 116.834 92.2989C122.957 91.7638 122.077 86.0503 127.289 84.6059C132.502 83.1616 130.521 75.1848 123.772 75.5003C117.024 75.8158 113.285 80.556 113.097 84.1667C112.908 87.7773 110.491 88.3426 110.491 88.3426Z" fill="#CE9E78"/>
<path d="M125.855 78.1278C126.862 78.0501 127.842 77.7663 128.735 77.2942C128.085 76.6564 127.305 76.1661 126.449 75.8566C125.593 75.5472 124.68 75.4258 123.772 75.5009C117.021 75.8147 113.285 80.5559 113.097 84.1672C113.092 84.2449 113.082 84.314 113.076 84.389C114.032 84.6081 114.635 84.7429 114.635 84.7429C114.635 84.7429 118.571 78.8809 125.855 78.1278Z" fill="#E5BB95"/>
<path d="M96.6749 110.489C96.6749 110.489 117.818 114.218 119.45 117.523C121.597 121.872 113.549 128.983 97.5951 129.08C81.8504 129.174 71.5545 101.952 68.2911 93.8299C65.0277 85.708 65.5491 75.4089 73.7137 71.5994C79.2316 69.0195 92.8654 69.587 96.6749 110.489Z" fill="#E07126"/>
<path d="M111.579 91.0222C111.579 91.0222 114.258 91.8175 116.142 88.7217C118.026 85.6258 113.799 82.8384 113.882 82.7349C114.886 81.4685 115.326 75.1575 109.235 76.3296C109.235 76.3296 111.621 82.4523 109.988 85.9271C108.355 89.402 110.867 90.687 111.579 91.0222Z" fill="#E5BB95"/>
<path d="M84.5449 28.8861C76.7944 28.8861 70.5118 37.5306 70.5118 48.1945C70.5118 49.0303 70.5545 49.8519 70.6296 50.6593C69.0105 50.7957 67.7534 51.7843 67.7534 52.9861C67.7534 54.2809 69.212 55.331 71.0119 55.331C71.1743 55.3299 71.3364 55.3203 71.4978 55.3019C73.5556 62.4466 78.6184 67.5017 84.5449 67.5017C92.2948 67.5017 98.5774 58.8573 98.5774 48.1939C98.5774 37.5306 92.2954 28.8861 84.5449 28.8861Z" fill="#E5BB95"/>
<path d="M70.5664 46.5535C73.694 48.8167 76.3724 50.7448 76.3724 50.7448C76.3724 50.7448 87.8404 52.1289 92.299 36.9319C92.8178 35.4379 92.8881 33.8248 92.5011 32.2914C90.3915 30.1667 87.5383 28.9456 84.5447 28.8861C77.1962 28.8861 71.1711 36.658 70.5664 46.5535Z" fill="#CE9E78"/>
<path d="M89.3374 34.4019C89.3374 34.4019 97.0605 38.815 98.4403 47.2967C98.4403 47.2967 104.784 43.846 105.06 36.4011C105.336 28.9562 96.9231 20.681 87.2692 26.9542C87.2692 26.9542 80.8557 20.9549 69.8226 26.1266C59.1778 31.1165 59.4101 43.2281 60.1687 47.9173C60.9273 52.6065 57.5275 59.9237 53.4797 61.4333C45.3425 64.4672 42.1706 76.9716 51.1348 80.4656C51.1348 80.4656 47.9629 81.9823 48.9286 86.465C49.8942 90.9477 64.9954 93.7745 72.1669 80.3966C79.3385 67.0186 71.657 56.9621 71.4981 55.3014C71.3393 53.6406 72.3745 51.5724 72.3745 51.5724C72.3745 51.5724 74.4433 53.9167 74.0988 55.9855C74.0988 55.9855 76.9257 55.2269 76.3741 50.7447C76.3736 50.7447 87.9588 50.6757 89.3374 34.4019Z" fill="#091E02"/>
<path d="M72.0595 50.8532C70.1085 50.908 68.5469 52.1289 68.5469 53.6324C68.5469 55.1699 70.1791 56.4166 72.1932 56.4166H72.2184C72.5012 56.4073 72.7774 56.3279 73.0219 56.1854C73.2664 56.0429 73.4716 55.8418 73.6191 55.6002C73.7665 55.3587 73.8516 55.0842 73.8666 54.8016C73.8816 54.519 73.826 54.2371 73.7049 53.9813C73.1024 52.6832 72.3575 51.3675 72.0595 50.8532Z" fill="#E5BB95"/>
<path d="M94.3717 48.7104C94.3717 48.7104 94.7162 53.3821 97.4938 54.9853C100.271 56.5886 96.165 58.1447 94.3903 56.037C91.9063 53.0891 94.3717 48.7104 94.3717 48.7104Z" fill="#CC8656"/>
<path d="M89.5445 50.1931C90.1347 50.1931 90.6131 49.622 90.6131 48.9175C90.6131 48.2129 90.1347 47.6418 89.5445 47.6418C88.9543 47.6418 88.4758 48.2129 88.4758 48.9175C88.4758 49.622 88.9543 50.1931 89.5445 50.1931Z" fill="#091E02"/>
<path d="M96.969 49.6641C97.5592 49.6641 98.0377 49.0929 98.0377 48.3884C98.0377 47.6838 97.5592 47.1127 96.969 47.1127C96.3788 47.1127 95.9004 47.6838 95.9004 48.3884C95.9004 49.0929 96.3788 49.6641 96.969 49.6641Z" fill="#091E02"/>
<path d="M90.1865 63.7771C90.1865 63.7771 92.6459 61.4328 92.0488 59.1799C91.4518 56.9271 84.8313 60.3302 84.7639 62.6969C84.6965 65.0637 88.1654 65.1108 90.1865 63.7771Z" fill="#091E02"/>
<path d="M84.764 62.6975C84.6955 65.05 88.1216 65.1075 90.1493 63.8006C90.0495 62.874 89.6067 62.0182 88.908 61.4014C88.2092 60.7847 87.3051 60.4516 86.3732 60.4676C86.3321 60.4676 86.2921 60.4726 86.2516 60.4737C85.3939 61.1879 84.7842 61.9887 84.764 62.6975Z" fill="#E02626"/>
<path d="M153.214 90.7707C160.275 85.9793 166.637 80.2307 172.117 73.6895C173.545 72.9594 185.887 108.43 158.74 113.378L153.214 90.7707Z" fill="#3F7F2D"/>
<path d="M168.349 91.6498C166.451 98.3482 162.777 104.409 157.717 109.191L158.741 113.378C174.244 110.552 176.866 97.7714 175.999 87.464C173.024 84.9986 170.187 85.3032 168.349 91.6498Z" fill="#3B7728"/>
<path d="M163.115 143.437H227.337C227.337 143.437 231.356 136.823 222.313 129.203C214.242 122.403 208.162 103.205 209.293 89.138C210.423 75.0709 209.418 69.5454 209.418 69.5454C209.418 69.5454 205.902 67.4727 199.622 70.6753C193.342 73.878 186.372 73.878 183.923 72.3733C181.474 70.8687 171.237 68.6054 168.977 80.2859C166.716 91.9665 170.065 121.625 163.115 143.437Z" fill="#4A913C"/>
<path d="M222.313 129.203C218.282 125.807 214.749 119.319 212.361 111.922L190.076 102.577C190.076 102.577 200.567 129.174 226.029 133.195C224.973 131.705 223.723 130.363 222.313 129.203Z" fill="#468936"/>
<path d="M187.753 91.399C187.684 91.1799 187.376 86.2502 191.584 85.8411C191.584 85.8411 193.698 87.4788 191.772 89.3263C188.664 92.3093 190.422 94.9785 190.422 94.9785C190.422 94.9785 188.884 94.9467 187.753 91.399Z" fill="#CE9E78"/>
<path d="M210.758 108.27C208.51 99.9973 206.694 91.6129 205.316 83.1512C202.72 67.8287 209.418 69.5453 209.418 69.5453C212.567 70.4792 233.449 91.0222 229.263 115.304L210.758 108.27Z" fill="#529F45"/>
<path d="M150.054 65.4444C149.6 66.1737 149.447 67.0509 149.628 67.8906C150.164 70.6359 152.074 79.1264 156.749 85.3284C167.529 99.6244 166.761 111.372 158.737 113.378C148.187 116.015 139.776 107.841 139.166 93.3665C138.391 75.0085 144.692 67.9125 142.264 63.977C139.835 60.0415 131.378 53.9293 130.625 51.8359C129.871 49.7424 148.794 37.8532 148.46 60.2929C148.46 60.2929 152.834 57.6134 155.66 59.9369C158.885 62.5885 155.189 65.118 155.189 65.118C155.189 65.118 151.638 63.03 150.054 65.4444Z" fill="#E5BB95"/>
<path d="M200.093 83.0465C198.876 81.8399 197.348 80.9953 195.679 80.6073C194.01 80.2192 192.266 80.3029 190.642 80.849C190.642 80.849 184.394 81.4767 182.981 83.8616C182.981 83.8616 181.002 77.1107 184.048 72.6833C187.094 68.2559 199.622 70.6737 199.622 70.6737C199.622 70.6737 203.421 78.1487 200.093 83.0465Z" fill="#529F45"/>
<path d="M169.217 51.1818C171.038 51.1818 172.514 50.0994 172.514 48.7641C172.514 47.4288 171.038 46.3464 169.217 46.3464C167.397 46.3464 165.921 47.4288 165.921 48.7641C165.921 50.0994 167.397 51.1818 169.217 51.1818Z" fill="#CE9E78"/>
<path d="M166.212 35.8424C166.212 35.8424 162.424 38.7312 166.108 42.1014C166.108 42.1014 165.689 47.6883 170.106 47.9836C174.523 48.2788 170.797 36.5123 170.797 36.5123L166.212 35.8424Z" fill="#091E02"/>
<path d="M179.819 79.4671C179.819 79.4671 184.55 79.9693 187.774 88.4681C190.998 96.9668 196.67 100.818 214.065 102.263C231.46 103.707 233.658 120.977 222.04 123.679C210.423 126.382 194.347 109.801 190.391 103.772C186.434 97.744 182.603 96.8019 179.087 95.4829C175.57 94.164 174.9 83.3609 179.819 79.4671Z" fill="#E5BB95"/>
<path d="M200.019 23.7861C200.019 23.7861 210.004 22.5931 209 31.071C207.995 39.5489 201.527 53.8022 199.643 57.3203C197.758 60.8384 194.305 65.9236 194.305 65.9236L200.019 23.7861Z" fill="#091E02"/>
<path d="M183.483 59.2462C184.884 63.592 185.079 68.2368 184.048 72.685C184.048 72.685 183.985 78.7764 190.642 80.8463C190.642 80.8463 195.1 72.685 199.622 70.6726C199.622 70.6726 194.786 62.3836 195.728 53.0266C196.671 43.6696 183.483 59.2462 183.483 59.2462Z" fill="#CE9E78"/>
<path d="M184.658 67.9821C186.918 68.2138 192.171 67.8933 196.189 61.1386C195.634 58.4733 195.479 55.7403 195.728 53.0293C196.671 43.6723 183.483 59.2462 183.483 59.2462C184.414 62.0598 184.813 65.0223 184.658 67.9821Z" fill="#C6916D"/>
<path d="M201.87 45.7811C201.652 45.7812 201.433 45.7973 201.217 45.8293C201.293 44.9737 201.337 44.105 201.337 43.222C201.337 31.1718 194.027 21.3996 185.009 21.3996C175.992 21.3996 168.682 31.1702 168.682 43.222C168.682 55.2739 175.992 65.0445 185.009 65.0445C192.152 65.0445 198.22 58.9098 200.435 50.3728C200.896 50.5355 201.381 50.618 201.87 50.6165C203.691 50.6165 205.167 49.5342 205.167 48.1988C205.167 46.8634 203.693 45.7811 201.87 45.7811Z" fill="#E5BB95"/>
<path d="M184.302 21.4237C176.271 21.8827 169.745 30.095 168.804 40.6044C172.048 41.506 178.358 41.4852 183.797 30.9034C185.913 26.7866 185.712 23.7144 184.302 21.4237Z" fill="#CE9E78"/>
<path d="M193.645 39.5484C193.645 39.5484 190.203 50.1318 201.218 45.8293C201.218 45.8293 210.13 19.6414 193.677 13.9898C183.482 10.4876 176.135 16.4596 172.828 23.0325C169.728 29.194 166.046 27.617 166.046 27.617C166.046 27.617 168.98 22.2432 165.92 21.5881C161.998 20.7489 155.205 34.8247 167.679 38.4809C178.224 41.5723 183.125 29.9405 183.125 29.9405C183.125 29.9405 185.576 39.2976 193.645 39.5484Z" fill="#091E02"/>
<path d="M186.209 45.1852C186.863 45.1852 187.393 44.5728 187.393 43.8175C187.393 43.0621 186.863 42.4498 186.209 42.4498C185.556 42.4498 185.026 43.0621 185.026 43.8175C185.026 44.5728 185.556 45.1852 186.209 45.1852Z" fill="#091E02"/>
<path d="M178.668 54.4316C178.668 54.4316 181.651 57.0377 187.021 54.3691C187.021 54.3691 186.079 59.9561 183.002 60.523C179.924 61.0899 178.668 54.4316 178.668 54.4316Z" fill="#091E02"/>
<path d="M185.955 57.6972C185.425 57.3275 184.794 57.1297 184.148 57.1308C183.388 57.1192 182.652 57.3911 182.083 57.8934C181.514 58.3958 181.152 59.0924 181.069 59.847C181.31 60.111 181.613 60.3108 181.95 60.4286C182.288 60.5464 182.649 60.5785 183.002 60.5219C184.378 60.2716 185.329 59.0118 185.955 57.6972Z" fill="#E02626"/>
<path d="M179.199 44.9348C179.199 44.9348 179.069 47.8871 177.397 49.6887C175.726 51.4902 178.204 52.8748 179.807 50.123C180.313 49.3185 180.528 48.3654 180.417 47.4218C180.307 46.4782 179.877 45.6007 179.199 44.9348Z" fill="#CC8656"/>
<path d="M174.434 45.912C175.088 45.912 175.617 45.2997 175.617 44.5443C175.617 43.789 175.088 43.1766 174.434 43.1766C173.781 43.1766 173.251 43.789 173.251 44.5443C173.251 45.2997 173.781 45.912 174.434 45.912Z" fill="#091E02"/>
<path d="M190.391 103.77C194.347 109.799 210.423 126.378 222.041 123.677C225.472 122.879 227.688 120.807 228.673 118.25C210.382 127.003 188.507 101.258 188.507 101.258C189.189 102.054 189.818 102.893 190.391 103.77Z" fill="#CE9E78"/>
<path d="M148.463 60.2929C148.46 60.2929 148.463 60.2754 148.463 60.254C148.737 40.5267 134.096 47.4052 131.129 50.7497C133.666 50.4627 140.894 50.5224 143.669 59.8745C143.669 59.8745 145.815 57.9486 148.463 60.2929Z" fill="#CE9E78"/>
<path d="M153.647 151.643H229.911C229.911 151.643 232.581 131.242 210.364 132.951C188.147 134.66 188.893 143.418 174.582 137.437C160.271 131.456 151.831 140.428 153.647 151.643Z" fill="#E0C226"/>
<path d="M157.478 6.66326H125.998C122.686 6.66326 120.001 9.3478 120.001 12.6594V16.1572C120.001 19.4688 122.686 22.1533 125.998 22.1533H157.478C160.789 22.1533 163.474 19.4688 163.474 16.1572V12.6594C163.474 9.3478 160.789 6.66326 157.478 6.66326Z" fill="#4A913C"/>
<path d="M145.295 25.2935H113.815C110.503 25.2935 107.819 27.9781 107.819 31.2896V34.7875C107.819 38.0991 110.503 40.7836 113.815 40.7836H145.295C148.607 40.7836 151.291 38.0991 151.291 34.7875V31.2896C151.291 27.9781 148.607 25.2935 145.295 25.2935Z" fill="#E07126"/>
<path d="M239.172 52.7571C253.6 52.7571 265.296 41.0611 265.296 26.6333C265.296 12.2055 253.6 0.50943 239.172 0.50943C224.744 0.50943 213.048 12.2055 213.048 26.6333C213.048 41.0611 224.744 52.7571 239.172 52.7571Z" fill="#FCE8E3"/>
<path d="M133.146 17.4585V11.0601H135.339C136.063 11.0601 136.613 11.2051 136.991 11.4951C137.369 11.7852 137.558 12.2173 137.558 12.7915C137.558 13.0845 137.479 13.3482 137.321 13.5826C137.163 13.8169 136.931 13.9986 136.627 14.1275C136.972 14.2212 137.239 14.3985 137.426 14.6592C137.617 14.917 137.712 15.2276 137.712 15.5909C137.712 16.1914 137.519 16.6529 137.132 16.9751C136.748 17.2974 136.197 17.4585 135.48 17.4585H133.146ZM134.258 14.5713V16.5708H135.493C135.841 16.5708 136.114 16.4844 136.31 16.3116C136.506 16.1387 136.605 15.8985 136.605 15.5909C136.605 14.9258 136.265 14.586 135.585 14.5713H134.258ZM134.258 13.7539H135.348C135.693 13.7539 135.963 13.6763 136.156 13.521C136.353 13.3628 136.451 13.1402 136.451 12.8531C136.451 12.5367 136.36 12.3081 136.178 12.1675C136 12.0269 135.72 11.9566 135.339 11.9566H134.258V13.7539ZM141.562 17.4585C141.515 17.3677 141.474 17.2198 141.439 17.0147C141.099 17.3692 140.683 17.5464 140.191 17.5464C139.713 17.5464 139.323 17.4102 139.022 17.1377C138.72 16.8653 138.569 16.5284 138.569 16.127C138.569 15.6201 138.756 15.232 139.131 14.9624C139.509 14.69 140.048 14.5537 140.749 14.5537H141.403V14.2417C141.403 13.9956 141.335 13.7993 141.197 13.6529C141.059 13.5034 140.85 13.4287 140.568 13.4287C140.325 13.4287 140.126 13.4903 139.971 13.6133C139.816 13.7334 139.738 13.8872 139.738 14.0747H138.67C138.67 13.814 138.756 13.5708 138.929 13.3452C139.102 13.1167 139.337 12.938 139.632 12.8091C139.931 12.6802 140.264 12.6158 140.63 12.6158C141.187 12.6158 141.63 12.7564 141.962 13.0376C142.293 13.3159 142.462 13.7085 142.471 14.2154V16.3599C142.471 16.7876 142.531 17.1289 142.651 17.3838V17.4585H141.562ZM140.388 16.6895C140.599 16.6895 140.797 16.6382 140.982 16.5357C141.169 16.4331 141.31 16.2954 141.403 16.1226V15.2261H140.828C140.432 15.2261 140.135 15.295 139.936 15.4326C139.736 15.5703 139.637 15.7652 139.637 16.0171C139.637 16.2222 139.704 16.3863 139.839 16.5093C139.977 16.6294 140.16 16.6895 140.388 16.6895ZM146.079 13.6792C145.939 13.6558 145.794 13.6441 145.644 13.6441C145.155 13.6441 144.825 13.8316 144.655 14.2066V17.4585H143.587V12.7036H144.607L144.633 13.2354C144.891 12.8223 145.249 12.6158 145.706 12.6158C145.858 12.6158 145.984 12.6363 146.084 12.6773L146.079 13.6792ZM149.634 16.9927C149.321 17.3618 148.876 17.5464 148.298 17.5464C147.783 17.5464 147.392 17.3955 147.125 17.0938C146.861 16.792 146.73 16.3555 146.73 15.7842V12.7036H147.797V15.771C147.797 16.3745 148.048 16.6763 148.549 16.6763C149.067 16.6763 149.418 16.4903 149.599 16.1182V12.7036H150.667V17.4585H149.661L149.634 16.9927Z" fill="white"/>
<path d="M235.263 34.4782C235.263 32.4001 235.52 30.7438 236.036 29.5094C236.552 28.2751 237.567 26.9235 239.083 25.4547C240.614 23.9704 241.583 22.9157 241.989 22.2907C242.614 21.3376 242.927 20.3063 242.927 19.1969C242.927 17.7282 242.559 16.611 241.825 15.8454C241.106 15.0641 240.044 14.6735 238.638 14.6735C237.294 14.6735 236.208 15.0563 235.38 15.8219C234.567 16.5719 234.161 17.5954 234.161 18.8922H228.466C228.497 16.1266 229.434 13.9391 231.278 12.3297C233.138 10.7204 235.591 9.91568 238.638 9.91568C241.778 9.91568 244.223 10.7126 245.973 12.3063C247.739 13.9001 248.622 16.1266 248.622 18.986C248.622 21.5329 247.434 24.0407 245.059 26.5094L242.177 29.3454C241.145 30.5172 240.614 32.2282 240.583 34.4782H235.263ZM234.864 41.7672C234.864 40.8454 235.153 40.1032 235.731 39.5407C236.309 38.9626 237.091 38.6735 238.075 38.6735C239.075 38.6735 239.864 38.9704 240.442 39.5641C241.02 40.1422 241.309 40.8766 241.309 41.7672C241.309 42.6266 241.028 43.3454 240.466 43.9235C239.903 44.5016 239.106 44.7907 238.075 44.7907C237.044 44.7907 236.247 44.5016 235.684 43.9235C235.138 43.3454 234.864 42.6266 234.864 41.7672Z" fill="#4A913C"/>
<path d="M119.477 35.4499H122.382V36.3376H118.366V29.9392H119.477V35.4499ZM125.972 36.3376C125.926 36.2468 125.885 36.0988 125.849 35.8938C125.51 36.2483 125.094 36.4255 124.601 36.4255C124.124 36.4255 123.734 36.2893 123.432 36.0168C123.131 35.7444 122.98 35.4074 122.98 35.0061C122.98 34.4992 123.167 34.1111 123.542 33.8415C123.92 33.5691 124.459 33.4328 125.159 33.4328H125.814V33.1208C125.814 32.8747 125.745 32.6784 125.608 32.532C125.47 32.3825 125.261 32.3078 124.979 32.3078C124.736 32.3078 124.537 32.3694 124.382 32.4924C124.226 32.6125 124.149 32.7663 124.149 32.9538H123.081C123.081 32.6931 123.167 32.4499 123.34 32.2243C123.513 31.9958 123.747 31.8171 124.043 31.6882C124.342 31.5593 124.675 31.4948 125.041 31.4948C125.597 31.4948 126.041 31.6355 126.372 31.9167C126.703 32.195 126.873 32.5876 126.882 33.0945V35.239C126.882 35.6667 126.942 36.008 127.062 36.2629V36.3376H125.972ZM124.799 35.5686C125.01 35.5686 125.208 35.5173 125.392 35.4148C125.58 35.3122 125.721 35.1745 125.814 35.0017V34.1052H125.239C124.843 34.1052 124.546 34.174 124.346 34.3117C124.147 34.4494 124.048 34.6443 124.048 34.8962C124.048 35.1013 124.115 35.2654 124.25 35.3884C124.388 35.5085 124.571 35.5686 124.799 35.5686ZM129.005 31.5827L129.035 32.0793C129.369 31.6897 129.826 31.4948 130.407 31.4948C131.042 31.4948 131.477 31.738 131.712 32.2243C132.057 31.738 132.544 31.4948 133.171 31.4948C133.695 31.4948 134.085 31.6399 134.34 31.9299C134.597 32.2199 134.729 32.6477 134.735 33.2131V36.3376H133.667V33.2439C133.667 32.9421 133.601 32.7209 133.47 32.5803C133.338 32.4397 133.119 32.3694 132.815 32.3694C132.572 32.3694 132.372 32.4353 132.217 32.5671C132.065 32.696 131.958 32.8659 131.896 33.0769L131.901 36.3376H130.833V33.2087C130.818 32.6491 130.533 32.3694 129.976 32.3694C129.548 32.3694 129.245 32.5437 129.066 32.8923V36.3376H127.998V31.5827H129.005ZM138.673 36.3376C138.626 36.2468 138.585 36.0988 138.55 35.8938C138.21 36.2483 137.794 36.4255 137.302 36.4255C136.824 36.4255 136.434 36.2893 136.133 36.0168C135.831 35.7444 135.68 35.4074 135.68 35.0061C135.68 34.4992 135.867 34.1111 136.242 33.8415C136.62 33.5691 137.159 33.4328 137.86 33.4328H138.514V33.1208C138.514 32.8747 138.446 32.6784 138.308 32.532C138.17 32.3825 137.961 32.3078 137.68 32.3078C137.436 32.3078 137.237 32.3694 137.082 32.4924C136.927 32.6125 136.849 32.7663 136.849 32.9538H135.781C135.781 32.6931 135.867 32.4499 136.04 32.2243C136.213 31.9958 136.448 31.8171 136.743 31.6882C137.042 31.5593 137.375 31.4948 137.741 31.4948C138.298 31.4948 138.742 31.6355 139.073 31.9167C139.404 32.195 139.574 32.5876 139.582 33.0945V35.239C139.582 35.6667 139.642 36.008 139.763 36.2629V36.3376H138.673ZM137.499 35.5686C137.71 35.5686 137.908 35.5173 138.093 35.4148C138.28 35.3122 138.421 35.1745 138.514 35.0017V34.1052H137.939C137.543 34.1052 137.246 34.174 137.047 34.3117C136.847 34.4494 136.748 34.6443 136.748 34.8962C136.748 35.1013 136.815 35.2654 136.95 35.3884C137.088 35.5085 137.271 35.5686 137.499 35.5686Z" fill="white"/>
</svg>
