<svg width="19" height="19" viewBox="0 0 19 19" fill="none" xmlns="http://www.w3.org/2000/svg">
<path d="M1.71112 0H16.7687L18.3714 6.00912H0.108398L1.71112 0Z" fill="#E07126"/>
<path d="M0 18.48V16.2773H4.02192V17.3174C4.01083 17.3436 4.00511 17.3716 4.00511 17.4C4.00511 17.4284 4.01083 17.4565 4.02192 17.4826V18.48H0Z" fill="#E07126"/>
<path d="M11.5214 17.04H6.9585V12.264C6.9585 11.6589 7.19886 11.0786 7.62671 10.6508C8.05457 10.2229 8.63486 9.98256 9.23994 9.98256C9.84501 9.98256 10.4253 10.2229 10.8532 10.6508C11.281 11.0786 11.5214 11.6589 11.5214 12.264V17.04Z" fill="#E07126"/>
<path d="M12.2415 17.04V12.264C12.2415 11.468 11.9253 10.7046 11.3624 10.1417C10.7995 9.5788 10.0361 9.26258 9.24006 9.26258C8.44403 9.26258 7.6806 9.5788 7.11772 10.1417C6.55484 10.7046 6.23862 11.468 6.23862 12.264V17.04H4.74198V15.9173C4.74198 15.8218 4.70405 15.7303 4.63654 15.6627C4.56903 15.5952 4.47746 15.5573 4.38198 15.5573H1.30566V6.72914H17.1745V15.5573H14.0981C14.0027 15.5573 13.9111 15.5952 13.8436 15.6627C13.7761 15.7303 13.7381 15.8218 13.7381 15.9173V17.04H12.2415Z" fill="#E07126"/>
<path d="M18.4799 16.2773H14.458V18.48H18.4799V16.2773Z" fill="#E07126"/>
</svg>
