<svg width="19" height="19" viewBox="0 0 19 19" fill="none" xmlns="http://www.w3.org/2000/svg">
<path d="M4.02192 16.2773H0V18.48H4.02192V16.2773Z" fill="#E07126"/>
<path d="M1.71112 0H16.7687L18.3714 6.00912H13.0161L9.4948 2.48736C9.42604 2.42217 9.3349 2.38583 9.24016 2.38583C9.14541 2.38583 9.05427 2.42217 8.98552 2.48736L5.46376 6.00912H0.108398L1.71112 0Z" fill="#E07126"/>
<path d="M10.2527 17.04H8.22705V14.7307C8.22705 14.4621 8.33376 14.2045 8.52369 14.0146C8.71363 13.8246 8.97124 13.7179 9.23985 13.7179C9.50846 13.7179 9.76607 13.8246 9.95601 14.0146C10.1459 14.2045 10.2527 14.4621 10.2527 14.7307V17.04Z" fill="#E07126"/>
<path d="M9.23992 12.9979C8.7805 12.9984 8.34005 13.1812 8.0152 13.506C7.69035 13.8309 7.50762 14.2713 7.50712 14.7307V17.04H6.26392V8.59201H12.2159V17.04H10.9727V14.7307C10.9722 14.2713 10.7895 13.8309 10.4646 13.506C10.1398 13.1812 9.69933 12.9984 9.23992 12.9979Z" fill="#E07126"/>
<path d="M4.62085 7.87007L9.23989 3.25055L12.6047 6.61583L12.6176 6.62879L13.8584 7.87007H4.62085Z" fill="#E07126"/>
<path d="M4.38198 15.5573H1.30566V6.72914H4.7439L3.4959 7.97714C3.44566 8.02758 3.41148 8.09177 3.39767 8.16161C3.38385 8.23145 3.39103 8.30381 3.41829 8.36958C3.44555 8.43534 3.49168 8.49157 3.55085 8.53115C3.61002 8.57074 3.67959 8.59192 3.75078 8.59202H5.54406V17.04H4.74198V15.9173C4.74198 15.8218 4.70405 15.7303 4.63654 15.6627C4.56903 15.5952 4.47746 15.5573 4.38198 15.5573Z" fill="#E07126"/>
<path d="M12.936 17.04V8.59202H14.7288C14.8001 8.59205 14.8697 8.57094 14.929 8.53136C14.9882 8.49177 15.0344 8.43549 15.0617 8.36965C15.0889 8.30381 15.096 8.23137 15.082 8.16149C15.0681 8.09162 15.0337 8.02746 14.9832 7.97714L13.7352 6.72914H17.1744V15.5573H14.0981C14.0026 15.5573 13.9111 15.5952 13.8436 15.6627C13.776 15.7303 13.7381 15.8218 13.7381 15.9173V17.04H12.936Z" fill="#E07126"/>
<path d="M18.4799 16.2773H14.458V18.48H18.4799V16.2773Z" fill="#E07126"/>
</svg>
