<svg width="19" height="19" viewBox="0 0 19 19" fill="none" xmlns="http://www.w3.org/2000/svg">
<path d="M18.48 16.2768H12.7666V18.48H18.48V16.2768Z" fill="#E07126"/>
<path d="M14.2118 8.30542H12.4348V10.0824H14.2118V8.30542Z" fill="#E07126"/>
<path d="M1.71112 0H16.7692L18.3709 6.00911H13.4783L9.49431 2.02512C9.46092 1.99168 9.42127 1.96515 9.37761 1.94705C9.33396 1.92895 9.28717 1.91964 9.23991 1.91964C9.19266 1.91964 9.14586 1.92895 9.10221 1.94705C9.05856 1.96515 9.0189 1.99168 8.98551 2.02512L5.00152 6.00911H0.108887L1.71112 0Z" fill="#E07126"/>
<path d="M5.71343 16.2768H0V18.48H5.71343V16.2768Z" fill="#E07126"/>
<path d="M10.1285 8.30542H8.35156V10.0824H10.1285V8.30542Z" fill="#E07126"/>
<path d="M10.1285 12.4881H8.35156V14.2651H10.1285V12.4881Z" fill="#E07126"/>
<path d="M5.71348 8.30542H3.93652V10.0824H5.71348V8.30542Z" fill="#E07126"/>
<path d="M5.71348 12.4881H3.93652V14.2651H5.71348V12.4881Z" fill="#E07126"/>
<path d="M13.3295 6.72913C13.2822 6.72903 13.2354 6.71957 13.1917 6.70129C13.1481 6.68316 13.1083 6.65675 13.0746 6.62353L9.23991 2.78882L5.40519 6.62353C5.36962 6.6588 5.32696 6.6861 5.28004 6.70364C5.23313 6.72119 5.18302 6.72857 5.13303 6.72529C5.12679 6.72529 5.12199 6.72913 5.11575 6.72913H0.6604V15.5568H6.07191C6.16739 15.5568 6.25896 15.5947 6.32647 15.6622C6.39398 15.7298 6.43191 15.8213 6.43191 15.9168V18.48H12.0465V15.9168C12.0465 15.8213 12.0844 15.7298 12.1519 15.6622C12.2194 15.5947 12.311 15.5568 12.4065 15.5568H17.8194V6.72913H13.3295ZM6.43335 14.6251C6.43335 14.7206 6.39542 14.8122 6.32791 14.8797C6.2604 14.9472 6.16883 14.9851 6.07335 14.9851H3.57592C3.48044 14.9851 3.38887 14.9472 3.32136 14.8797C3.25385 14.8122 3.21592 14.7206 3.21592 14.6251V12.1291C3.21592 12.0336 3.25385 11.9421 3.32136 11.8746C3.38887 11.8071 3.48044 11.7691 3.57592 11.7691H6.07191C6.16739 11.7691 6.25896 11.8071 6.32647 11.8746C6.39398 11.9421 6.43191 12.0336 6.43191 12.1291L6.43335 14.6251ZM6.43335 10.4424C6.43335 10.5379 6.39542 10.6295 6.32791 10.697C6.2604 10.7645 6.16883 10.8024 6.07335 10.8024H3.57592C3.48044 10.8024 3.38887 10.7645 3.32136 10.697C3.25385 10.6295 3.21592 10.5379 3.21592 10.4424V7.94401C3.21592 7.84853 3.25385 7.75697 3.32136 7.68945C3.38887 7.62194 3.48044 7.58401 3.57592 7.58401H6.07191C6.16739 7.58401 6.25896 7.62194 6.32647 7.68945C6.39398 7.75697 6.43191 7.84853 6.43191 7.94401L6.43335 10.4424ZM10.8493 14.6251C10.8493 14.7206 10.8114 14.8122 10.7439 14.8797C10.6764 14.9472 10.5848 14.9851 10.4893 14.9851H7.99191C7.89643 14.9851 7.80486 14.9472 7.73735 14.8797C7.66984 14.8122 7.63191 14.7206 7.63191 14.6251V12.1291C7.63191 12.0336 7.66984 11.9421 7.73735 11.8746C7.80486 11.8071 7.89643 11.7691 7.99191 11.7691H10.4879C10.5834 11.7691 10.675 11.8071 10.7425 11.8746C10.81 11.9421 10.8479 12.0336 10.8479 12.1291L10.8493 14.6251ZM10.8493 10.4424C10.8493 10.5379 10.8114 10.6295 10.7439 10.697C10.6764 10.7645 10.5848 10.8024 10.4893 10.8024H7.99191C7.89643 10.8024 7.80486 10.7645 7.73735 10.697C7.66984 10.6295 7.63191 10.5379 7.63191 10.4424V7.94401C7.63191 7.84853 7.66984 7.75697 7.73735 7.68945C7.80486 7.62194 7.89643 7.58401 7.99191 7.58401H10.4879C10.5834 7.58401 10.675 7.62194 10.7425 7.68945C10.81 7.75697 10.8479 7.84853 10.8479 7.94401L10.8493 10.4424ZM14.9322 14.6251C14.9322 14.7206 14.8943 14.8122 14.8268 14.8797C14.7593 14.9472 14.6677 14.9851 14.5722 14.9851H12.0762C11.9807 14.9851 11.8892 14.9472 11.8217 14.8797C11.7542 14.8122 11.7162 14.7206 11.7162 14.6251V12.1291C11.7162 12.0336 11.7542 11.9421 11.8217 11.8746C11.8892 11.8071 11.9807 11.7691 12.0762 11.7691H14.5722C14.6677 11.7691 14.7593 11.8071 14.8268 11.8746C14.8943 11.9421 14.9322 12.0336 14.9322 12.1291V14.6251ZM14.9322 10.4424C14.9322 10.5379 14.8943 10.6295 14.8268 10.697C14.7593 10.7645 14.6677 10.8024 14.5722 10.8024H12.0762C11.9807 10.8024 11.8892 10.7645 11.8217 10.697C11.7542 10.6295 11.7162 10.5379 11.7162 10.4424V7.94401C11.7162 7.84853 11.7542 7.75697 11.8217 7.68945C11.8892 7.62194 11.9807 7.58401 12.0762 7.58401H14.5722C14.6677 7.58401 14.7593 7.62194 14.8268 7.68945C14.8943 7.75697 14.9322 7.84853 14.9322 7.94401V10.4424Z" fill="#E07126"/>
<path d="M14.2118 12.4881H12.4348V14.2651H14.2118V12.4881Z" fill="#E07126"/>
</svg>
