<?xml version="1.0" encoding="utf-8"?>
<!-- Generator: Adobe Illustrator 24.0.2, SVG Export Plug-In . SVG Version: 6.00 Build 0)  -->
<svg version="1.1" id="Layer_1" xmlns="http://www.w3.org/2000/svg" xmlns:xlink="http://www.w3.org/1999/xlink" x="0px" y="0px"
	 viewBox="0 0 192 192" style="enable-background:new 0 0 192 192;" xml:space="preserve">
<style type="text/css">
	.st0{fill:#529F45;}
</style>
<title>semut gajah fin 192px</title>
<rect x="24.9" y="24.1" class="st0" width="16.7" height="10.9"/>
<polygon class="st0" points="167.1,62.9 62.1,62.9 73.5,116.4 156.1,116.4 "/>
<path class="st0" d="M55,29.2c-0.3-1.3-1.4-2.2-2.7-2.2h-5.1l0,0H47v5.6h3l6.4,30.3h5.7L61,57.3L55,29.2z"/>
<path class="st0" d="M68.5,144.6c-6.3,0-11.3-5.1-11.3-11.3c0-6.3,5.1-11.3,11.3-11.3h6l-1-5.6l-5.7,0.1
	c-9.3,0.3-16.5,8.1-16.2,17.4c0.3,8.7,7.2,15.7,15.9,16.2c2.4-3.2,6-5.1,10-5.5H68.5z"/>
<path class="st0" d="M79.8,144.6c4,0.3,7.7,2.4,10.1,5.6h49.8c2.4-3.2,6.1-5.2,10.1-5.6H79.8z"/>
<path class="st0" d="M150.9,151.2c-4.6,0-8.4,3.8-8.4,8.4s3.8,8.4,8.4,8.4s8.4-3.8,8.4-8.4l0,0C159.3,154.9,155.5,151.2,150.9,151.2
	z"/>
<path class="st0" d="M78.6,151.2c-4.6,0-8.4,3.8-8.4,8.4c0,4.6,3.8,8.4,8.4,8.4c4.6,0,8.4-3.8,8.4-8.4
	C87,154.9,83.2,151.2,78.6,151.2C78.6,151.2,78.6,151.2,78.6,151.2z"/>
</svg>
