<svg width="19" height="19" viewBox="0 0 19 19" fill="none" xmlns="http://www.w3.org/2000/svg">
<path d="M10.5508 0H13.6098V3.05856H11.9884C11.8929 3.05856 11.8013 3.09649 11.7338 3.16401C11.6663 3.23152 11.6284 3.32309 11.6284 3.41856V9.72385H10.5508V0Z" fill="#E07126"/>
<path d="M7.06081 13.3287H0V8.68226C0 7.74594 0.371952 6.84797 1.03403 6.18589C1.69611 5.52381 2.59408 5.15186 3.53041 5.15186C4.46673 5.15186 5.3647 5.52381 6.02678 6.18589C6.68886 6.84797 7.06081 7.74594 7.06081 8.68226V13.3287Z" fill="#E07126"/>
<path d="M10.6378 14.0486H7.8418V18.48H10.6378V14.0486Z" fill="#E07126"/>
<path d="M18.4799 13.3287H7.78068V8.68228C7.78047 7.98402 7.6082 7.29656 7.2791 6.68072C6.94999 6.06487 6.4742 5.53961 5.8938 5.1514H9.8298V10.0839C9.8298 10.1794 9.86773 10.2709 9.93525 10.3384C10.0028 10.406 10.0943 10.4439 10.1898 10.4439H11.9874C12.0829 10.4439 12.1745 10.406 12.242 10.3384C12.3095 10.2709 12.3474 10.1794 12.3474 10.0839V5.1514H14.9471C15.8838 5.15241 16.7819 5.52501 17.4442 6.18742C18.1065 6.84984 18.479 7.74795 18.4799 8.68468V13.3287Z" fill="#E07126"/>
</svg>
