<svg id="Layer_1" data-name="Layer 1" xmlns="http://www.w3.org/2000/svg" viewBox="0 0 192 192"><defs><style>.cls-1{fill:#428733;}.cls-2{fill:#e0c226;}.cls-3{fill:#e07126;}.cls-4{fill:#529f45;}</style></defs><title>semut gajah fin 192px</title><polygon class="cls-1" points="170.169 79.529 96 21.831 21.831 79.529 96 137.226 170.169 79.529"/><path class="cls-2" d="M140.453,102.645a45,45,0,1,0-88.906,0L96,137.226Z"/><circle class="cls-3" cx="77.718" cy="89.842" r="3.937"/><circle class="cls-3" cx="114.282" cy="89.842" r="3.937"/><polygon class="cls-4" points="21.831 79.539 21.831 169.911 170.169 169.911 170.169 79.539 96 136.968 21.831 79.539"/><path class="cls-3" d="M80.2,116.71a2.781,2.781,0,0,1-1.471-5.143,33.1,33.1,0,0,1,34.535,0,2.781,2.781,0,1,1-2.941,4.722,27.454,27.454,0,0,0-28.657,0A2.743,2.743,0,0,1,80.2,116.71Z"/></svg>