<svg id="Layer_1" data-name="Layer 1" xmlns="http://www.w3.org/2000/svg" viewBox="0 0 192 192"><defs><style>.cls-1{fill:#e0c226;}.cls-2{fill:#e07126;}</style></defs><title>semut gajah fin 192px</title><rect class="cls-1" x="21.831" y="21.831" width="148.337" height="148.337"/><rect class="cls-2" x="57.061" y="42.228" width="92.711" height="51.918"/><path class="cls-2" d="M38.521,108.113a2.782,2.782,0,0,0-2.782,2.781v44.5a2.782,2.782,0,0,0,5.563,0v-44.5A2.782,2.782,0,0,0,38.521,108.113Z"/><path class="cls-2" d="M57.092,121.093a2.782,2.782,0,0,0-2.782,2.781V155.4a2.782,2.782,0,0,0,5.563,0V123.874A2.782,2.782,0,0,0,57.092,121.093Z"/><path class="cls-2" d="M75.663,135.926a2.782,2.782,0,0,0-2.781,2.782V155.4a2.781,2.781,0,0,0,5.562,0V138.708A2.782,2.782,0,0,0,75.663,135.926Z"/></svg>