<svg id="Layer_1" data-name="Layer 1" xmlns="http://www.w3.org/2000/svg" viewBox="0 0 512 512"><defs><style>.cls-1{fill:#de7126;}.cls-2{fill:#529d45;}</style></defs><title>icon logo apps MPM</title><circle class="cls-1" cx="254.795" cy="312.272" r="5.503" transform="translate(-46.73 44.846) rotate(-9.217)"/><path class="cls-1" d="M481.916,206.472C463.554,141.585,410.47,88.832,341.082,64.44a3.483,3.483,0,0,0-3.3.53,81.493,81.493,0,0,0-31.6,64.283c0,41.61,31.532,76.008,72.477,81.539a1.1,1.1,0,0,1-.092,2.188q-2.241.119-4.513.12c-46.434,0-84.076-36.855-84.076-82.319a81.639,81.639,0,0,1,34.082-66.172,3.238,3.238,0,0,0-1.006-5.761A263.617,263.617,0,0,0,254.267,49.8c-84.5,0-157.767,39.973-199.874,98.52-8.848,12.3-21.994,32.367-27.715,58.8A97.859,97.859,0,0,0,37.859,277.6l0-.011C39.855,280.98,51.1,298.4,67.343,302.6a10.7,10.7,0,0,0,10.115-2.141l.083-.077a3.149,3.149,0,0,0-.68-5.1C63.255,288.15,54.694,277.809,54.694,266.3c0-7.07,3.243-13.694,8.884-19.411.121-.026.243-.058.364-.079.02,0,.043,0,.063-.006a206.971,206.971,0,0,0,89.888,109.26,36.229,36.229,0,0,0,30.245,3.063c11.8-4.086,28.223-9.343,39.243-11.1a3.084,3.084,0,0,0,.6-5.933c-18.373-6.98-30.9-20.912-30.9-36.963v-.044a7.945,7.945,0,0,1,3.589-6.682,55.925,55.925,0,0,1,25.721-8.338V272.829a1.68,1.68,0,0,0-2.349-1.55,33.68,33.68,0,0,1-13.664,2.738,31.533,31.533,0,0,1-16.781-4.406,3.158,3.158,0,0,1-.509-4.9c4.072-4.093,11.419-6.825,19.812-6.825,6.676,0,12.69,1.729,16.921,4.5A5.511,5.511,0,0,1,228.342,267c0,4.849,0,15.367,0,22.852,11.848.125,22.614,3.456,30.731,8.844l12.863-18.109a1.679,1.679,0,0,0-1.019-2.624,33.615,33.615,0,0,1-12.726-5.677A31.551,31.551,0,0,1,247.1,259.048,3.173,3.173,0,0,1,249.5,254.7c5.687-.981,13.254,1.039,20.1,5.9,5.518,3.92,9.446,8.893,11.259,13.659a5.352,5.352,0,0,1-.673,4.994c-3.589,5.052-12.6,17.762-16.375,23.081a32.369,32.369,0,0,1,8.015,10.6c.191,1,.373,1.951.564,2.951-.479,10.267-6.09,19.589-15.032,26.677a1.606,1.606,0,0,0,.953,2.874h.021a3.148,3.148,0,0,0,1.716-.489,27.433,27.433,0,0,1,14.323-3.819,28.49,28.49,0,0,1,11.656,2.4,3.063,3.063,0,0,0,4.269-2.371c1.692-11.789,9.578-25.545,22.28-36.88,20.747-18.515,46.467-23.551,57.447-11.248s3.061,37.288-17.686,55.8a81.718,81.718,0,0,1-14.017,10.11,1.873,1.873,0,0,0,.15,3.354l.169.073a36.107,36.107,0,0,0,27.9.511c38.907-15.778,72.142-39.638,96.473-68.95A96.047,96.047,0,0,0,481.916,206.472ZM394.37,266.925a16.624,16.624,0,0,1-4.689.672,16.283,16.283,0,0,1-16.452-16.109,15.775,15.775,0,0,1,3.314-9.683,3.615,3.615,0,0,1,6.484,2.486q-.054.735-.054,1.484a20.474,20.474,0,0,0,11.68,18.4A1.483,1.483,0,0,1,394.37,266.925Zm17.572-49.2a5.5,5.5,0,1,1,5.5-5.5A5.5,5.5,0,0,1,411.942,217.724Z"/><path class="cls-2" d="M33.68,460.5a15.294,15.294,0,0,1-6.637-5.036,13.761,13.761,0,0,1-2.62-8.032H36.81a6.006,6.006,0,0,0,1.838,4.05,5.906,5.906,0,0,0,4.085,1.4,6.381,6.381,0,0,0,4.083-1.192,3.98,3.98,0,0,0,1.5-3.3,3.913,3.913,0,0,0-1.191-2.928,9.627,9.627,0,0,0-2.926-1.9,47.451,47.451,0,0,0-4.935-1.7,53.849,53.849,0,0,1-7.555-2.859,13.951,13.951,0,0,1-5.037-4.22,11.762,11.762,0,0,1-2.11-7.283,12.522,12.522,0,0,1,4.833-10.448q4.832-3.777,12.592-3.777,7.895,0,12.728,3.777a13.526,13.526,0,0,1,5.172,10.516H47.292a4.932,4.932,0,0,0-1.7-3.642,6,6,0,0,0-4.016-1.326,5.005,5.005,0,0,0-3.4,1.122,4.052,4.052,0,0,0-1.293,3.233,4,4,0,0,0,2.178,3.608,35.672,35.672,0,0,0,6.806,2.791,63.247,63.247,0,0,1,7.521,2.994,14.33,14.33,0,0,1,5,4.152,11.12,11.12,0,0,1,2.11,7.01,13.752,13.752,0,0,1-2.076,7.419,14.542,14.542,0,0,1-6.024,5.309,20.607,20.607,0,0,1-9.325,1.974A24.559,24.559,0,0,1,33.68,460.5Z"/><path class="cls-2" d="M77.58,423.269v9.665H93.167v8.984H77.58V452.4H95.208v9.323H65.941v-47.78H95.208v9.325Z"/><path class="cls-2" d="M155.171,413.944v47.78H143.532V433.07l-10.685,28.654h-9.394L112.7,433v28.722H101.061v-47.78H114.81l13.408,33.079,13.272-33.079Z"/><path class="cls-2" d="M173.276,413.944v28.587q0,4.288,2.11,6.6t6.194,2.314a8.184,8.184,0,0,0,6.261-2.314,9.267,9.267,0,0,0,2.178-6.6V413.944h11.639v28.519a20.284,20.284,0,0,1-2.722,10.822,17.438,17.438,0,0,1-7.317,6.67,23.017,23.017,0,0,1-10.243,2.246,22.427,22.427,0,0,1-10.108-2.212,16.475,16.475,0,0,1-7.045-6.67,21.3,21.3,0,0,1-2.586-10.856V413.944Z"/><path class="cls-2" d="M242.5,413.944v9.325H229.835v38.455H218.2V423.269h-12.66v-9.325Z"/><path class="cls-2" d="M291.091,429.055a8.716,8.716,0,0,0-3.71-3.642,12.142,12.142,0,0,0-5.683-1.26,11.7,11.7,0,0,0-9.053,3.711q-3.4,3.709-3.4,9.9,0,6.6,3.574,10.312t9.835,3.71a11.893,11.893,0,0,0,7.248-2.178,12.343,12.343,0,0,0,4.322-6.262H279.452v-8.576h25.319v10.822a22.818,22.818,0,0,1-4.389,8.1,23.169,23.169,0,0,1-7.862,6.058,24.3,24.3,0,0,1-10.754,2.314,25.451,25.451,0,0,1-12.626-3.1,22.054,22.054,0,0,1-8.644-8.61,27.216,27.216,0,0,1,0-25.218,22.071,22.071,0,0,1,8.61-8.643,25.275,25.275,0,0,1,12.592-3.1,24.461,24.461,0,0,1,14.463,4.152,19.591,19.591,0,0,1,7.793,11.5Z"/><path class="cls-2" d="M339.279,453.285H321.447l-2.859,8.439H306.4l17.288-47.78h13.476l17.288,47.78H342.138Zm-3-8.984-5.921-17.493L324.51,444.3Z"/><path class="cls-2" d="M387.944,413.944v32.534q0,7.555-4.254,11.64T372.222,462.2q-7.555,0-12.116-4.288t-4.56-12.183h11.571a7.128,7.128,0,0,0,1.225,4.526,4.266,4.266,0,0,0,3.539,1.532,4.054,4.054,0,0,0,3.267-1.362,5.933,5.933,0,0,0,1.158-3.948V413.944Z"/><path class="cls-2" d="M425.378,453.285H407.546l-2.859,8.439H392.5l17.288-47.78h13.476l17.288,47.78H428.237Zm-3-8.984-5.921-17.493L410.609,444.3Z"/><path class="cls-2" d="M485.478,413.944v47.78H473.839V442.055H455.734v19.669H444.1v-47.78h11.638v18.717h18.105V413.944Z"/></svg>