<svg width="20" height="20" viewBox="0 0 20 20" fill="none" xmlns="http://www.w3.org/2000/svg">
<path d="M8.605 0H1.395C0.624563 0 0 0.624563 0 1.395V18.605C0 19.3754 0.624563 20 1.395 20H8.605C9.37544 20 10 19.3754 10 18.605V1.395C10 0.624563 9.37544 0 8.605 0Z" fill="#E0C226"/>
<path d="M9.9905 2.84851H0V17.151H9.9905V2.84851Z" fill="#E07126"/>
<path d="M20 10C19.9993 9.93456 19.9813 9.87046 19.9477 9.81425C19.9142 9.75804 19.8663 9.71173 19.809 9.68002L17.474 7.34502C17.4034 7.27667 17.3086 7.23883 17.2103 7.23964C17.112 7.24044 17.0179 7.27984 16.9484 7.34933C16.8788 7.41883 16.8393 7.51287 16.8384 7.61119C16.8375 7.70951 16.8753 7.80426 16.9435 7.87502L18.6935 9.62502H12.925C12.8256 9.62502 12.7302 9.66452 12.6599 9.73485C12.5896 9.80518 12.55 9.90056 12.55 10C12.55 10.0995 12.5896 10.1949 12.6599 10.2652C12.7302 10.3355 12.8256 10.375 12.925 10.375H18.746L16.996 12.125C16.9592 12.1593 16.9297 12.2007 16.9092 12.2467C16.8887 12.2927 16.8776 12.3424 16.8768 12.3928C16.8759 12.4431 16.8851 12.4931 16.904 12.5398C16.9228 12.5865 16.9509 12.6289 16.9865 12.6645C17.0221 12.7001 17.0646 12.7282 17.1112 12.7471C17.1579 12.7659 17.208 12.7752 17.2583 12.7743C17.3087 12.7734 17.3583 12.7624 17.4043 12.7419C17.4503 12.7214 17.4917 12.6919 17.526 12.655L19.8895 10.2915C19.9263 10.2552 19.9552 10.2117 19.9742 10.1637C19.9932 10.1156 20.002 10.0641 20 10.0125C20 10.008 20 10.0045 20 10Z" fill="#529F45"/>
</svg>
