<svg width="30" height="30" viewBox="0 0 30 30" fill="none" xmlns="http://www.w3.org/2000/svg">
<circle cx="15" cy="15" r="14" fill="#EAE9E5" stroke="white" stroke-width="2"/>
<path d="M15.5512 8.77644L14.2459 8.77663C13.144 8.77661 12.0873 9.21429 11.3082 9.99339C10.5291 10.7725 10.0914 11.8292 10.0915 12.931L10.0915 14.5365C10.0914 15.751 9.83465 16.9517 9.33797 18.0599L9.04131 18.7218L10.091 18.7219L19.7071 18.7222L20.7572 18.7223L20.4605 18.0603C19.9637 16.9521 19.7068 15.7514 19.7067 14.5369L19.7066 12.9314C19.7064 11.8294 19.2685 10.7726 18.4893 9.99345C17.71 9.21426 16.6531 8.77649 15.5512 8.77644V8.77644Z" fill="#E0C226"/>
<path d="M12.7255 17.8531L17.074 17.8532C17.0901 17.8532 17.1055 17.8596 17.1169 17.871C17.1283 17.8824 17.1347 17.8979 17.1347 17.914L17.1348 19.1701C17.1348 19.7629 16.8993 20.3315 16.4801 20.7506C16.0609 21.1698 15.4924 21.4053 14.8995 21.4053C14.3067 21.4053 13.7381 21.1698 13.3189 20.7505C12.8997 20.3313 12.6641 19.7627 12.6641 19.1699L12.6641 17.9138C12.6641 17.8977 12.6705 17.8822 12.6819 17.8709C12.6932 17.8595 12.7087 17.8531 12.7248 17.8531L12.7255 17.8531Z" fill="#E07126"/>
<path d="M16.1857 11.1267L13.6141 11.1266C13.6046 11.1266 13.5955 11.1228 13.5887 11.1161C13.582 11.1094 13.5782 11.1003 13.5782 11.0908L13.5781 8.64299C13.5781 8.46945 13.6123 8.29761 13.6787 8.13728C13.7451 7.97696 13.8425 7.83128 13.9652 7.70857C14.0879 7.58587 14.2335 7.48854 14.3939 7.42213C14.5542 7.35573 14.726 7.32155 14.8996 7.32156V7.32156C15.25 7.32157 15.5862 7.46081 15.834 7.70865C16.0818 7.95648 16.2211 8.29261 16.2211 8.64309L16.2212 11.0909C16.2212 11.1004 16.2174 11.1095 16.2107 11.1162C16.204 11.1229 16.1948 11.1267 16.1853 11.1267L16.1857 11.1267Z" fill="#E0C226"/>
<path d="M15.2211 8.64305L15.2212 10.1267L14.5782 10.1266L14.5781 8.64302C14.5781 8.60081 14.5865 8.559 14.6026 8.52C14.6188 8.481 14.6424 8.44556 14.6723 8.41571C14.7021 8.38586 14.7376 8.36218 14.7766 8.34602C14.8156 8.32987 14.8574 8.32156 14.8996 8.32156C14.9849 8.32156 15.0666 8.35544 15.1269 8.41573C15.1872 8.47602 15.2211 8.55779 15.2211 8.64305Z" stroke="#E0C226" stroke-opacity="0.86" stroke-width="2"/>
<path d="M20.0325 17.4988L9.76506 17.4984C9.18208 17.4983 8.70949 17.9709 8.70951 18.5539C8.70954 19.1369 9.18216 19.6095 9.76514 19.6095L20.0326 19.6099C20.6156 19.61 21.0881 19.1374 21.0881 18.5544C21.0881 17.9714 20.6155 17.4988 20.0325 17.4988Z" fill="#E0C226"/>
</svg>
