<svg id="Layer_1" data-name="Layer 1" xmlns="http://www.w3.org/2000/svg" viewBox="0 0 192 192"><defs><style>.cls-1{fill:#fb9d5d;}.cls-2{fill:#e0c226;}.cls-3{fill:#e07126;}</style></defs><title>semut gajah fin 192px</title><path class="cls-1" d="M85.731,40.332,39.417,84.946,27.831,73.23a10.523,10.523,0,0,1,0-14.881L58.349,27.831a10.523,10.523,0,0,1,14.881,0Z"/><rect class="cls-2" x="23.517" y="57.374" width="92.901" height="25.186" rx="7.718" transform="translate(-28.981 69.968) rotate(-45)"/><rect class="cls-1" x="66.436" y="155.107" width="15.094" height="15.029" rx="7.514" transform="translate(-88.639 236.604) rotate(-90)"/><path class="cls-1" d="M111.991,66.592,101.622,56.223l-45.4,45.4,1.429,1.429a30.1,30.1,0,0,1,8.816,21.284v17.013a7.792,7.792,0,0,0,6.253,7.813A7.519,7.519,0,0,0,81.5,141.75V124.435a30.1,30.1,0,0,1,8.816-21.284l21.678-21.678A10.523,10.523,0,0,0,111.991,66.592Z"/><path class="cls-3" d="M167.258,153.206l-63.5-63.5L89.706,103.758l63.5,63.5a9.936,9.936,0,1,0,14.051-14.052Z"/><path class="cls-3" d="M32.8,53.382,53.382,32.8l-6.7-6.7a14.555,14.555,0,0,0-10.291-4.263h0A14.555,14.555,0,0,0,26.094,46.678Z"/></svg>