<svg width="22" height="22" viewBox="0 0 22 22" fill="none" xmlns="http://www.w3.org/2000/svg">
<path d="M21.0719 0H0.927975C0.415469 0 0 0.415469 0 0.927975V4.2384C0 4.75091 0.415469 5.16638 0.927975 5.16638H21.0719C21.5844 5.16638 21.9999 4.75091 21.9999 4.2384V0.927975C21.9999 0.415469 21.5844 0 21.0719 0Z" fill="#529F45"/>
<path d="M21.0719 8.4169H0.927975C0.415469 8.4169 0 8.83237 0 9.34488V12.6553C0 13.1678 0.415469 13.5833 0.927975 13.5833H21.0719C21.5844 13.5833 21.9999 13.1678 21.9999 12.6553V9.34488C21.9999 8.83237 21.5844 8.4169 21.0719 8.4169Z" fill="#529F45"/>
<path d="M21.0719 16.8336H0.927975C0.415469 16.8336 0 17.2491 0 17.7616V21.072C0 21.5845 0.415469 22 0.927975 22H21.0719C21.5844 22 21.9999 21.5845 21.9999 21.072V17.7616C21.9999 17.2491 21.5844 16.8336 21.0719 16.8336Z" fill="#529F45"/>
</svg>
