<svg id="Layer_1" data-name="Layer 1" xmlns="http://www.w3.org/2000/svg" viewBox="0 0 50 50"><defs><style>.cls-1{fill:#e07126;}.cls-2{fill:#529f45;}</style></defs><title>semut gajah fin</title><rect class="cls-1" x="25" y="21.25" width="20" height="1.25"/><rect class="cls-1" x="26.25" y="20" width="17.5" height="2.162"/><rect class="cls-1" x="23.323" y="14.643" width="11.919" height="3.119" transform="translate(45.484 -13.08) rotate(90)"/><rect class="cls-1" x="29.041" y="14.643" width="11.919" height="3.119" transform="translate(51.202 -18.798) rotate(90)"/><rect class="cls-1" x="34.758" y="14.643" width="11.919" height="3.119" transform="translate(56.92 -24.516) rotate(90)"/><path class="cls-1" d="M34.732,5.083l-8.481,5.844a.473.473,0,0,0,.268.862H43.481a.473.473,0,0,0,.268-.862L35.268,5.083A.473.473,0,0,0,34.732,5.083Z"/><rect class="cls-1" x="5" y="43.75" width="20" height="1.25"/><rect class="cls-1" x="6.25" y="42.5" width="17.5" height="2.162"/><rect class="cls-1" x="3.323" y="37.143" width="11.919" height="3.119" transform="translate(47.984 29.42) rotate(90)"/><rect class="cls-1" x="9.041" y="37.143" width="11.919" height="3.119" transform="translate(53.702 23.702) rotate(90)"/><rect class="cls-1" x="14.758" y="37.143" width="11.919" height="3.119" transform="translate(59.42 17.984) rotate(90)"/><path class="cls-1" d="M14.732,27.583,6.251,33.427a.473.473,0,0,0,.268.862H23.481a.473.473,0,0,0,.268-.862l-8.481-5.844A.473.473,0,0,0,14.732,27.583Z"/><path class="cls-2" d="M10.118,23.863a.769.769,0,0,1-.1-.006.749.749,0,0,1-.65-.837A15.844,15.844,0,0,1,21.237,9.7.75.75,0,1,1,21.6,11.16,14.332,14.332,0,0,0,10.861,23.207.75.75,0,0,1,10.118,23.863Z"/><path class="cls-2" d="M10.079,24.205a.751.751,0,0,1-.585-.28L7.208,21.079a.75.75,0,1,1,1.17-.939l1.816,2.26,2.262-1.816a.75.75,0,0,1,.94,1.17L10.549,24.04A.751.751,0,0,1,10.079,24.205Z"/><path class="cls-2" d="M28.583,40.318a.75.75,0,0,1-.178-1.478A14.332,14.332,0,0,0,39.139,26.793a.75.75,0,0,1,1.488.187A15.844,15.844,0,0,1,28.763,40.3.738.738,0,0,1,28.583,40.318Z"/><path class="cls-2" d="M42.207,30.141a.749.749,0,0,1-.585-.281L39.806,27.6l-2.262,1.816a.75.75,0,0,1-.94-1.17l2.847-2.286a.751.751,0,0,1,1.055.115l2.286,2.846a.75.75,0,0,1-.585,1.22Z"/></svg>