<svg id="Layer_1" data-name="Layer 1" xmlns="http://www.w3.org/2000/svg" viewBox="0 0 192 192"><defs><style>.cls-1{fill:#428733;}.cls-2{fill:#529f45;}.cls-3{fill:#e0c226;}.cls-4{fill:#ddb228;}.cls-5{fill:#e07126;}</style></defs><title>semut gajah fin 192px</title><path class="cls-1" d="M79.728,111.545a2.781,2.781,0,0,1-1.859-4.85,297.63,297.63,0,0,1,32.85-25.763,2.78,2.78,0,1,1,3.1,4.614,292.266,292.266,0,0,0-32.235,25.285A2.769,2.769,0,0,1,79.728,111.545Z"/><path class="cls-2" d="M165.916,80.744a71.181,71.181,0,0,0-17.83-7.37v-.135a65.29,65.29,0,0,0-9.806-47.94,70.374,70.374,0,0,0-39.741-.92,43.015,43.015,0,0,0-21.1,1.1c-18.495,5.952-19.557,79.719-18.495,81.207s1.276,22.96,13.393,26.786c5.182,1.636,15.806,2.96,26.437,3.875l-.223,32.865c32.966,1.613,63.036-20,70.122-52.4A65.332,65.332,0,0,0,165.916,80.744Z"/><path class="cls-1" d="M148.086,73.125v-.134a65.29,65.29,0,0,0-9.806-47.94,70.35,70.35,0,0,0-39.741-.92,48.047,48.047,0,0,0-7.747-.8V32.1a3.471,3.471,0,0,1-3.47,3.47H83.454V47.907a19.541,19.541,0,0,1,12,18.005V78.259a91.725,91.725,0,0,1,52.57-4.888Z"/><path class="cls-3" d="M89.929,51.266l.131-.068V36.6A60.97,60.97,0,0,0,59.9,28.876c-17.963,0-28.439,7.724-28.439,7.724V51.2l.108.075A12.84,12.84,0,0,0,21.831,63.71V166.84a3.454,3.454,0,0,0,3.454,3.453H96.232a3.453,3.453,0,0,0,3.453-3.453V63.71A12.841,12.841,0,0,0,89.929,51.266Z"/><path class="cls-4" d="M90.563,51.481c-.214-.065-.415-.161-.634-.215l.131-.068V36.6A60.97,60.97,0,0,0,59.9,28.876c-17.963,0-28.439,7.724-28.439,7.724V51.2l.108.075c-.211.052-.4.145-.61.208Z"/><rect class="cls-5" x="21.867" y="76.566" width="77.783" height="66.964"/><path class="cls-2" d="M46.913,110.712a17.775,17.775,0,0,0,2.887,9.693,19.287,19.287,0,0,0,5.976.956c10.4,0,18.827-8.182,18.827-18.275a17.776,17.776,0,0,0-2.887-9.694,19.282,19.282,0,0,0-5.976-.955C55.342,92.437,46.913,100.619,46.913,110.712Z"/><path class="cls-1" d="M47.839,127.537a2.853,2.853,0,0,1-.907-.152,2.785,2.785,0,0,1-1.724-3.535,60.915,60.915,0,0,1,9.159-16.083,2.781,2.781,0,0,1,4.375,3.433,56.35,56.35,0,0,0-8.273,14.461A2.787,2.787,0,0,1,47.839,127.537Z"/><rect class="cls-5" x="25.575" y="21.956" width="70.366" height="14.645"/></svg>