<svg id="Layer_1" data-name="Layer 1" xmlns="http://www.w3.org/2000/svg" viewBox="0 0 50 50"><defs><style>.cls-1{fill:#e0c226;}.cls-2{fill:#e07126;}.cls-3{fill:#428733;}.cls-4{fill:#529f45;}</style></defs><title>semut gajah tambahan icon 8 september 2022</title><rect class="cls-1" x="5" y="5" width="27" height="40"/><rect class="cls-2" x="9" y="19" width="4" height="2" rx="1"/><rect class="cls-2" x="16" y="14" width="12" height="2" rx="1"/><rect class="cls-2" x="9" y="14" width="4" height="2" rx="1"/><rect class="cls-2" x="16" y="9" width="12" height="2" rx="1"/><rect class="cls-2" x="9" y="9" width="4" height="2" rx="1"/><circle class="cls-3" cx="31" cy="31" r="14"/><circle class="cls-4" cx="31" cy="31" r="9.1"/><circle class="cls-3" cx="31" cy="31" r="4.2"/><polygon class="cls-2" points="40.757 21.243 35.101 26.899 33.686 22.657 39.343 17 40.757 21.243"/><polygon class="cls-2" points="39.343 28.314 45 22.657 40.757 21.243 35.101 26.899 39.343 28.314"/><rect class="cls-1" x="28.781" y="24.789" width="14.86" height="2" transform="translate(-7.63 33.158) rotate(-45)"/></svg>