<svg id="Layer_1" data-name="Layer 1" xmlns="http://www.w3.org/2000/svg" viewBox="0 0 640 960"><defs><style>.cls-1{fill:#fae6e1;}.cls-2{fill:#dec026;}.cls-3{fill:#4a8f3c;}.cls-4{fill:#de7126;}.cls-5{fill:#dda028;}.cls-6{fill:#e69f7c;}.cls-7{fill:#fbba94;}.cls-8{fill:#468736;}.cls-9{fill:#183821;}.cls-10{fill:#cc9c78;}.cls-11{fill:#db5f28;}.cls-12{fill:#cc4e21;}.cls-13{fill:#e3b993;}.cls-14{fill:#c48f6d;}.cls-15{fill:#ec8557;}.cls-16{fill:none;stroke:#091e02;stroke-linecap:round;stroke-miterlimit:10;}.cls-17{fill:#de2626;}.cls-18{fill:#143f0a;}</style></defs><title>mpm splash</title><path class="cls-1" d="M185.656,711.73H512.865s1.88-12.336-28.936-43.4c-22.771-22.957,5.037-55.031,35.265-91.4a85.127,85.127,0,0,0,19.873-55.2c-.321-38.9-75.231-77.161-150.463,18.325s-95.647,86.806-167.5,89.217S150.21,706.908,185.656,711.73Z"/><path class="cls-2" d="M142.977,710.283H268.362s-7.957-15.914-46.3-13.02-58.127-42.291-102.961-35.446C87.518,666.64,98.127,707.872,142.977,710.283Z"/><path class="cls-3" d="M177.86,712.7H308.389s-1.607-17.361-23.952-13.182-23.9,1.768-25.187-4.822,7.987-13.664,19.24-19.773-4.5-25.559-27.971-15.753-24.113,39.866-31.507,43.081S182.2,702.728,177.86,712.7Z"/><path class="cls-3" d="M357.775,718.281h89.7S456.6,700.6,434.5,702.309c0,0,26.1-20.534,10.267-30.8-13.307-8.632-39.113,9.648-52.165,25.774a16.833,16.833,0,0,1-15.414,6.047C369.418,702.252,359.474,703.843,357.775,718.281Z"/><path class="cls-4" d="M440.848,747.537h55.821s1.206-17.843-18.326-10.127c0,0,6.631-17.24-10.489-18.325S440.125,734.878,440.848,747.537Z"/><path class="cls-2" d="M476.374,433.309s-5.144,25.4-24.755,34.4c0,0,15.592,12.217,28.292,5.466S501.934,444.884,476.374,433.309Z"/><path class="cls-4" d="M477.017,500.182s.965,15.11-3.7,18.165c0,0,4.937.979,8.5-1.326,5.124-3.316,5.324-14.267,5.324-14.267S484.572,497.449,477.017,500.182Z"/><path class="cls-4" d="M474.887,394.347s5.486,4.4,6.39,7.114-.3,8.379-7.595,9.826l-8.621-3.256S474.1,400.978,474.887,394.347Z"/><path class="cls-2" d="M209.95,487.3s-6.671,9.586-6.531,9.435,17.863,16.486,25.519,14.677,14.408-12.659,12.659-16.276-17.575-22.93-21.416-22.858S209.95,487.3,209.95,487.3Z"/><ellipse class="cls-5" cx="211.8" cy="484.508" rx="14.825" ry="4.099" transform="translate(-307.592 385.311) rotate(-55.575)"/><path class="cls-2" d="M228.675,483.945a.443.443,0,0,0,.813-.228c.039-2.269.541-6.611,3.77-7.186,4.4-.783,7.958,9.163,5.185,10.851a8.269,8.269,0,0,1-4.666,1.042.726.726,0,0,0-.573,1.216c1.212,1.367,3.624,3.039,7.59,1.6,6.148-2.23,4.882-13.563-2.05-18.567C232.111,467.886,223.106,475.515,228.675,483.945Z"/><ellipse class="cls-4" cx="224.116" cy="444.562" rx="3.979" ry="4.099"/><path class="cls-4" d="M190.961,472.834c.142.127-5.968-3.195-11.574-.3s.361,13.864,15.794,18.627c11.348,3.5,16.517-.784,19.531-6.028s-1.266-13.021-8.621-13.021-6.369-15.573,8.42-31.97,17.713-36.278-1.487-32.954C191.887,410.847,167.01,451.5,190.961,472.834Z"/><path class="cls-6" d="M391.222,375.684s-2.936-25.588-18.582-26.642c-13.063-.881-15.858,7.708-16.425,10.568a1.311,1.311,0,0,0,.585,1.359c3.114,1.989,15.363,10.261,18.189,18.968C374.989,379.937,387.95,385.078,391.222,375.684Z"/><path class="cls-7" d="M387.2,380.306s-4.181-7.571-12.421-2.9a9.115,9.115,0,0,0-11.673-2.5s3.828,4.081,6.536,7.329a6.721,6.721,0,0,0,5.355,2.414l12.145-.341Z"/><path class="cls-3" d="M379.978,387.393s2.068-10.847,12.8-11.432c0,0,39.476,17.507,34.43,55.436s-67.133,60.01-67.133,60.01l-3.759-59.967s22.654,7.593,34.732-5.729S387.163,392.991,379.978,387.393Z"/><path class="cls-6" d="M293.605,378.559c.364-.674,9.6-14.192,19.577-21.017a1.722,1.722,0,0,0,0-2.87c-3.551-2.322-11.248-6.152-20.287-3.325-14.2,4.44-14.437,27.514-14.437,27.514Z"/><path class="cls-7" d="M282.789,380.3s13.961.953,19.479,7c0,0,5.553-8.824-6.7-10.008,0,0-.222-6.179-6.608-6.2C283.8,371.084,282.789,380.3,282.789,380.3Z"/><path class="cls-3" d="M275.469,376.129s7.477-1.435,13.612,6.653c0,0-30.712,53.6,20.774,50.43l-28.849,45.043s-39.359-14.854-41.721-44.919S275.469,376.129,275.469,376.129Z"/><path class="cls-8" d="M246.611,452.758c12.02,17.045,34.395,25.5,34.395,25.5L297.825,452C278.149,461.892,258.874,457.7,246.611,452.758Z"/><path class="cls-8" d="M360.074,491.407s32.918-11.712,52.763-32.723c-27.933,12.649-49.111.462-55.043-3.652Z"/><path class="cls-9" d="M344.907,716.488c-11.99-6.651-28.759-11.175-47.662-12.267l22.839-96-15.013-3.571L281.4,704.128c-19.488.878-36.82,5.4-49.133,12.174a1.475,1.475,0,0,0,.726,2.759l111.174.184A1.475,1.475,0,0,0,344.907,716.488Z"/><path class="cls-10" d="M350.206,674.888s-9.792,15.778-11.01,23.25,1.192,8.08,2.5,20.5,8.148,21.512,21.8,15.71c11.582-4.924-2.861-19.777-3.8-33.885s8.6-26.148,8.6-26.148Z"/><path class="cls-3" d="M327.688,439.591s-9.626-11.75-20.407-5.338-56.623,72.164-29.93,115.611c0,0,21.69,7.269,49.206-9.323S380.6,523.028,380.6,523.028s-13.476-16.177-14.639-41.98.073-44.608-8.72-49.084S337.648,443.546,327.688,439.591Z"/><path class="cls-11" d="M216.684,539.877c1.673-3.179,21.955-22.027,58.758-2.153s71.081-17.4,105.156-14.7,56.393,18.419,43.316,52.638-23.94,40.952-22.761,57.109.16,49.19-38.657,46.474S316.247,650.96,332.418,641.1s29.224-28.646,30.943-47.21c0,0-2.634-11.1-44.122-2.484S219.146,558.046,216.684,539.877Z"/><path class="cls-12" d="M363.884,568.815c-6.5-7.245-26.506-10.413-51.85,4.978s-47.514,7.4-47.514,7.4l1.1.889c17.462,8.067,36.923,12.794,53.615,9.329,41.489-8.612,44.123,2.484,44.123,2.484S370.383,576.059,363.884,568.815Z"/><path class="cls-13" d="M332.241,602.279s8.074,2.3,8.79,7.248-5.1,19.041,2.254,22.188,16.542-15.164,16.194-23.363-11.316-10.628-9.857-17.98-14.938-7.138-14.938-7.138Z"/><path class="cls-10" d="M345.088,610.338c6.524-8.268,4.682-12.37.827-13.663s-8.277-1.621-9.477-4.838c-.323-.867-1.481-.315-2.984.989l-1.212,9.453s8.073,2.3,8.789,7.248c.3,2.073-.547,5.756-1.09,9.566A31.423,31.423,0,0,1,345.088,610.338Z"/><path class="cls-4" d="M212.4,554.82s.133,16.4,20.378,22.057,27.252,46.18,70.823,41.269,43.81-51.368,27.426-59.111-50.034,5.608-67.006-16.347C247.1,520.8,210.109,530.462,212.4,554.82Z"/><path class="cls-6" d="M324.983,423.11s2.871,13.347-2.681,16.714c0,0-1.465,11.169,9.7,14.4,0,0,8.767-3.683,11.592-10.992a6.684,6.684,0,0,1-2.966-4.506c-.317-2.894,2.516-14.866,2.516-14.866Z"/><path class="cls-14" d="M325.64,432.51c2.362,1.952,7.3,4.493,15.393,1.741.724-4.514,2.113-10.388,2.113-10.388l-18.163-.753A37.126,37.126,0,0,1,325.64,432.51Z"/><path class="cls-7" d="M361.734,402.679c-.275-.056-.546-.095-.816-.125.071-.967.115-1.944.116-2.934.03-18.022-11.713-32.651-26.229-32.675s-26.307,14.566-26.336,32.588c0,.462.011.919.025,1.376-3.233.085-5.818,1.874-5.821,4.08,0,2.264,2.71,4.1,6.061,4.11.292,0,.577-.018.858-.045,3.26,13.384,13.257,23.136,25.105,23.155,11.422.019,21.152-9.012,24.8-21.642.188.052.38.1.575.14,3.282.68,6.315-.565,6.774-2.782S365.015,403.359,361.734,402.679Z"/><path class="cls-10" d="M346.036,370.092c-5.015-.717-12.539-1.719-17.392-2.247a23.111,23.111,0,0,0-5.674,2.574c-.732,3.571-1.369,9.159-1.369,9.159s2.833,12.78,19.049,1.086c0,0,.964,13.442,13.8,9.162a7.609,7.609,0,0,0,4.449-3.151C356.38,379.4,351.785,373.486,346.036,370.092Z"/><path class="cls-9" d="M323.691,380.349s2,7.559,17.685-1.337c0,0,1.029,10.048,11.718,10.147,0,0-5.311,15.422,7.824,13.395,0,0,10.737-9.828.54-15.954,0,0,4.277-10.441-.216-15.593s-18.8-2.523-19.2-6.783,12.483-14.929,3.649-19.847-32.295,4.166-39.268,27.182c-6.425,21.209,3.084,30.749,3.084,30.749S319.967,396.579,323.691,380.349Z"/><path class="cls-15" d="M341.1,401.234c-.471,2.538-2.207,3.665-3.991,3.333s-2.94-2-2.469-4.533,2.3-4.327,4.084-4S341.576,398.7,341.1,401.234Z"/><circle class="cls-9" cx="328.241" cy="393.749" r="2.019"/><circle class="cls-9" cx="346.441" cy="396.552" r="2.019"/><path class="cls-16" d="M325.51,386.338a3.991,3.991,0,0,1,5.666.164"/><path class="cls-16" d="M344.975,390.015a3.227,3.227,0,0,1,4.581.132"/><path class="cls-9" d="M344.737,429.76a12.224,12.224,0,0,0,1.065-4.967c.011-6.725-5.376-13.472-12.035-13.483s-12.067,6.718-12.078,13.443a12.289,12.289,0,0,0,.5,3.5,22.251,22.251,0,0,0,12.5,3.961A21.849,21.849,0,0,0,344.737,429.76Z"/><path class="cls-17" d="M334.081,416.214a9.1,9.1,0,0,0-9.017,9.188,9.3,9.3,0,0,0,1.584,5.224,21.426,21.426,0,0,0,14.366.641,9.3,9.3,0,0,0,2.054-5.836A9.1,9.1,0,0,0,334.081,416.214Z"/><path class="cls-11" d="M332.56,603.831c-50.446,22.046-58.17-26.292-90.778-27.583-9.278-.367-16.085-2.552-21.1-5.524a31.458,31.458,0,0,0,12.1,6.153c20.246,5.659,27.252,46.18,70.824,41.269C317.211,616.612,326.592,611.025,332.56,603.831Z"/><path class="cls-18" d="M164.831,270.347H127.59v23.478h43.987v18.216H103.91V213.812h67.8V232.1H127.59v20.712h37.241Z"/><path class="cls-18" d="M217.723,277.3H204.905v34.745h-23.68V213.812h38.657q17.472,0,27.323,7.75t9.85,21.9q0,10.244-4.149,16.983t-12.987,10.917l20.509,39.663v1.013H235.062Zm-12.818-18.215h14.977q6.745,0,10.153-3.55t3.407-9.91q0-6.356-3.441-9.975t-10.119-3.619H204.905Z"/><path class="cls-18" d="M307.856,277.3H295.038v34.745h-23.68V213.812h38.657q17.472,0,27.323,7.75t9.85,21.9q0,10.244-4.149,16.983t-12.987,10.917l20.509,39.663v1.013H325.2Zm-12.818-18.215h14.977q6.745,0,10.153-3.55t3.407-9.91q0-6.356-3.441-9.975t-10.119-3.619H295.038Z"/><path class="cls-18" d="M444.675,264.95q0,14.37-5.329,25.434A39.39,39.39,0,0,1,424.2,307.419a42.169,42.169,0,0,1-22.365,5.971,42.773,42.773,0,0,1-22.263-5.768,39.322,39.322,0,0,1-15.146-16.5,56.242,56.242,0,0,1-5.7-24.625V260.97q0-14.438,5.3-25.468a39.3,39.3,0,0,1,15.18-17.035,44.939,44.939,0,0,1,44.763-.068,40.024,40.024,0,0,1,15.213,16.9,56.526,56.526,0,0,1,5.5,25.131Zm-24.084-4.115q0-14.638-4.892-22.23a15.689,15.689,0,0,0-14-7.59q-17.81,0-18.822,26.716l-.068,7.219q0,14.439,4.79,22.2t14.235,7.759a15.474,15.474,0,0,0,13.83-7.624q4.857-7.623,4.926-21.926Z"/><path class="cls-18" d="M493.385,277.3H480.567v34.745h-23.68V213.812h38.656q17.473,0,27.324,7.75t9.849,21.9q0,10.244-4.148,16.983t-12.987,10.917l20.509,39.663v1.013H510.724Zm-12.818-18.215h14.976q6.745,0,10.154-3.55t3.407-9.91q0-6.356-3.441-9.975t-10.12-3.619H480.567Z"/></svg>