<svg width="22" height="22" viewBox="0 0 22 22" fill="none" xmlns="http://www.w3.org/2000/svg">
<path d="M19.6402 3.81024L18.1896 2.36011C16.9652 1.13578 15.3046 0.447968 13.5731 0.447968C11.8416 0.447968 10.1811 1.13578 8.9567 2.36011L7.17272 4.14409C5.82312 5.49342 4.20352 6.54222 2.42015 7.2217L1.35498 7.62753L2.52135 8.7939L13.2064 19.479L14.3733 20.6459L14.7791 19.5807C15.4586 17.7973 16.5074 16.1777 17.8568 14.8281L19.6407 13.0441C20.8651 11.8195 21.5528 10.1587 21.5527 8.42708C21.5526 6.69543 20.8647 5.03472 19.6402 3.81024Z" fill="#E0C226"/>
<path d="M6.41296 10.7544L11.2449 15.5863C11.2628 15.6042 11.2728 15.6285 11.2728 15.6538C11.2728 15.6791 11.2628 15.7034 11.2449 15.7213L9.84915 17.117C9.1904 17.7758 8.29694 18.1459 7.36533 18.1459C6.43371 18.1459 5.54026 17.7758 4.8815 17.117C4.22275 16.4583 3.85267 15.5648 3.85267 14.6332C3.85267 13.7016 4.22275 12.8081 4.8815 12.1494L6.27723 10.7537C6.29513 10.7358 6.31941 10.7257 6.34473 10.7257C6.37004 10.7257 6.39432 10.7358 6.41223 10.7537L6.41296 10.7544Z" fill="#E07126"/>
<path d="M17.7325 7.12542L14.875 4.26795C14.8645 4.25739 14.8585 4.24306 14.8585 4.22811C14.8585 4.21317 14.8645 4.19884 14.875 4.18828L17.5949 1.46839C17.7878 1.27556 18.0167 1.1226 18.2686 1.01824C18.5206 0.913879 18.7906 0.860165 19.0633 0.860165C19.336 0.860165 19.606 0.91388 19.858 1.01824C20.1099 1.1226 20.3389 1.27556 20.5317 1.46839C20.9211 1.85783 21.1399 2.38603 21.1399 2.93678C21.1399 3.48753 20.9211 4.01572 20.5317 4.40516L17.8118 7.12505C17.8012 7.13562 17.7869 7.14155 17.772 7.14155C17.757 7.14155 17.7427 7.13562 17.7321 7.12505L17.7325 7.12542Z" fill="#E0C226"/>
<path d="M14.9277 18.4812L3.51889 7.07235C2.87109 6.42456 1.8208 6.42456 1.17301 7.07235C0.525213 7.72015 0.525214 8.77043 1.17301 9.41823L12.5819 20.8271C13.2297 21.4749 14.2799 21.4749 14.9277 20.8271C15.5755 20.1793 15.5755 19.129 14.9277 18.4812Z" fill="#E0C226"/>
</svg>
