<svg id="Layer_1" data-name="Layer 1" xmlns="http://www.w3.org/2000/svg" viewBox="0 0 192 192"><defs><style>.cls-1{fill:#529f45;}.cls-2{fill:#428733;}.cls-3{fill:#e0c226;}.cls-4{fill:#e07126;}.cls-5{fill:#fb9d5d;}</style></defs><title>semut gajah fin 192px</title><polyline class="cls-1" points="76.92 91.725 76.513 169.602 170.523 169.602 170.523 92.103 76.513 92.103"/><polygon class="cls-2" points="170.523 113.236 170.523 107.673 76.837 107.673 76.808 113.236 170.523 113.236"/><path class="cls-3" d="M36.677,40.8,24.806,72.013a50.951,50.951,0,0,0-3.329,18.115v73.108a6.933,6.933,0,0,0,6.933,6.933H81.556a6.933,6.933,0,0,0,6.933-6.933V90.128A50.951,50.951,0,0,0,85.16,72.013L73.289,40.8"/><rect class="cls-4" x="35.626" y="21.831" width="38.714" height="19.676"/><rect class="cls-5" x="22.056" y="92.292" width="66.362" height="64.295"/></svg>