<svg width="19" height="19" viewBox="0 0 19 19" fill="none" xmlns="http://www.w3.org/2000/svg">
<path d="M2.1355 14.717H16.3456V10.1761H2.1355V14.717ZM12.393 12.1734C12.3521 12.1498 12.3162 12.1183 12.2874 12.0808C12.2586 12.0433 12.2374 12.0005 12.2252 11.9548C12.2129 11.9092 12.2098 11.8615 12.2159 11.8146C12.2221 11.7677 12.2374 11.7225 12.2611 11.6815C12.2847 11.6406 12.3162 11.6047 12.3537 11.5759C12.3912 11.5471 12.434 11.5259 12.4797 11.5137C12.5254 11.5014 12.573 11.4983 12.6199 11.5044C12.6668 11.5106 12.712 11.5259 12.753 11.5496L13.2271 11.8231V11.2755C13.2271 11.1801 13.265 11.0885 13.3325 11.021C13.4 10.9535 13.4916 10.9156 13.5871 10.9156C13.6825 10.9156 13.7741 10.9535 13.8416 11.021C13.9091 11.0885 13.947 11.1801 13.947 11.2755V11.8231L14.4211 11.5496C14.4621 11.5259 14.5073 11.5106 14.5542 11.5044C14.6011 11.4983 14.6487 11.5014 14.6944 11.5137C14.7401 11.5259 14.7829 11.5471 14.8204 11.5759C14.8579 11.6047 14.8894 11.6406 14.913 11.6815C14.9367 11.7225 14.952 11.7677 14.9582 11.8146C14.9643 11.8615 14.9612 11.9092 14.9489 11.9548C14.9367 12.0005 14.9155 12.0433 14.8867 12.0808C14.8579 12.1183 14.822 12.1498 14.7811 12.1734L14.3069 12.447L14.7811 12.721C14.822 12.7447 14.8579 12.7761 14.8867 12.8136C14.9155 12.8511 14.9367 12.894 14.9489 12.9396C14.9612 12.9853 14.9643 13.033 14.9582 13.0799C14.952 13.1267 14.9367 13.172 14.913 13.2129C14.8894 13.2539 14.8579 13.2898 14.8204 13.3186C14.7829 13.3474 14.7401 13.3685 14.6944 13.3808C14.6487 13.393 14.6011 13.3962 14.5542 13.39C14.5073 13.3839 14.4621 13.3685 14.4211 13.3449L13.947 13.0709V13.6189C13.947 13.7144 13.9091 13.8059 13.8416 13.8734C13.7741 13.9409 13.6825 13.9789 13.5871 13.9789C13.4916 13.9789 13.4 13.9409 13.3325 13.8734C13.265 13.8059 13.2271 13.7144 13.2271 13.6189V13.0699L12.753 13.3439C12.712 13.3676 12.6668 13.3829 12.6199 13.3891C12.573 13.3952 12.5254 13.3921 12.4797 13.3798C12.434 13.3676 12.3912 13.3464 12.3537 13.3176C12.3162 13.2888 12.2847 13.2529 12.2611 13.212C12.2374 13.171 12.2221 13.1258 12.2159 13.0789C12.2098 13.032 12.2129 12.9844 12.2252 12.9387C12.2374 12.893 12.2586 12.8502 12.2874 12.8127C12.3162 12.7752 12.3521 12.7437 12.393 12.7201L12.8672 12.446L12.393 12.1734ZM8.04652 12.1734C7.96379 12.1257 7.90341 12.0471 7.87866 11.9548C7.85391 11.8626 7.86682 11.7643 7.91455 11.6815C7.96228 11.5988 8.04092 11.5384 8.13317 11.5137C8.22542 11.4889 8.32372 11.5018 8.40645 11.5496L8.8806 11.8231V11.2755C8.8806 11.1801 8.91852 11.0885 8.98602 11.021C9.05352 10.9535 9.14507 10.9156 9.24053 10.9156C9.33599 10.9156 9.42754 10.9535 9.49504 11.021C9.56254 11.0885 9.60046 11.1801 9.60046 11.2755V11.8231L10.0746 11.5496C10.1156 11.5259 10.1608 11.5106 10.2077 11.5044C10.2546 11.4983 10.3022 11.5014 10.3479 11.5137C10.3936 11.5259 10.4364 11.5471 10.4739 11.5759C10.5114 11.6047 10.5429 11.6406 10.5665 11.6815C10.5902 11.7225 10.6055 11.7677 10.6116 11.8146C10.6178 11.8615 10.6147 11.9092 10.6024 11.9548C10.5902 12.0005 10.569 12.0433 10.5402 12.0808C10.5114 12.1183 10.4755 12.1498 10.4345 12.1734L9.96039 12.447L10.4345 12.721C10.5173 12.7688 10.5777 12.8474 10.6024 12.9396C10.6272 13.0319 10.6142 13.1302 10.5665 13.2129C10.5188 13.2957 10.4401 13.356 10.3479 13.3808C10.2556 13.4055 10.1573 13.3926 10.0746 13.3449L9.60046 13.0709V13.6189C9.60046 13.7144 9.56254 13.8059 9.49504 13.8734C9.42754 13.9409 9.33599 13.9789 9.24053 13.9789C9.14507 13.9789 9.05352 13.9409 8.98602 13.8734C8.91852 13.8059 8.8806 13.7144 8.8806 13.6189V13.0699L8.40645 13.3439C8.32372 13.3917 8.22542 13.4046 8.13317 13.3798C8.04092 13.3551 7.96228 13.2947 7.91455 13.212C7.86682 13.1292 7.85391 13.0309 7.87866 12.9387C7.90341 12.8464 7.96379 12.7678 8.04652 12.7201L8.52115 12.446L8.04652 12.1734ZM3.7 12.1734C3.61727 12.1257 3.55688 12.0471 3.53213 11.9548C3.50738 11.8626 3.52029 11.7643 3.56802 11.6815C3.61575 11.5988 3.69439 11.5384 3.78664 11.5137C3.87889 11.4889 3.9772 11.5018 4.05993 11.5496L4.53456 11.8231V11.2755C4.53456 11.1801 4.57248 11.0885 4.63998 11.021C4.70748 10.9535 4.79903 10.9156 4.89449 10.9156C4.98995 10.9156 5.0815 10.9535 5.149 11.021C5.2165 11.0885 5.25442 11.1801 5.25442 11.2755V11.8231L5.72857 11.5496C5.8113 11.5018 5.9096 11.4889 6.00185 11.5137C6.0941 11.5384 6.17274 11.5988 6.22047 11.6815C6.2682 11.7643 6.28111 11.8626 6.25636 11.9548C6.23161 12.0471 6.17123 12.1257 6.0885 12.1734L5.61387 12.447L6.0885 12.721C6.12946 12.7447 6.16537 12.7761 6.19417 12.8136C6.22298 12.8511 6.24411 12.894 6.25636 12.9396C6.26862 12.9853 6.27176 13.033 6.2656 13.0799C6.25944 13.1267 6.24411 13.172 6.22047 13.2129C6.19684 13.2539 6.16537 13.2898 6.12786 13.3186C6.09035 13.3474 6.04753 13.3685 6.00185 13.3808C5.9096 13.4055 5.8113 13.3926 5.72857 13.3449L5.25442 13.0709V13.6189C5.25442 13.7144 5.2165 13.8059 5.149 13.8734C5.0815 13.9409 4.98995 13.9789 4.89449 13.9789C4.79903 13.9789 4.70748 13.9409 4.63998 13.8734C4.57248 13.8059 4.53456 13.7144 4.53456 13.6189V13.0699L4.05993 13.3439C3.9772 13.3917 3.87889 13.4046 3.78664 13.3798C3.69439 13.3551 3.61575 13.2947 3.56802 13.212C3.52029 13.1292 3.50738 13.0309 3.53213 12.9387C3.55688 12.8464 3.61727 12.7678 3.7 12.7201L4.17463 12.446L3.7 12.1734Z" fill="#E07126"/>
<path d="M16.7776 6.41649H1.69887C1.24846 6.417 0.81664 6.59615 0.49815 6.91464C0.179659 7.23313 0.000508081 7.66495 0 8.11536V16.7782C0.000508081 17.2286 0.179659 17.6604 0.49815 17.9789C0.81664 18.2974 1.24846 18.4765 1.69887 18.4771H16.7776C17.228 18.4765 17.6598 18.2974 17.9783 17.9789C18.2968 17.6604 18.4759 17.2286 18.4764 16.7782V8.11536C18.4759 7.66495 18.2968 7.23313 17.9783 6.91464C17.6598 6.59615 17.228 6.417 16.7776 6.41649ZM17.0631 15.0769C17.0631 15.1724 17.0252 15.2639 16.9577 15.3314C16.8902 15.3989 16.7987 15.4368 16.7032 15.4368H1.77326C1.6778 15.4368 1.58625 15.3989 1.51875 15.3314C1.45125 15.2639 1.41333 15.1724 1.41333 15.0769V9.81472C1.41333 9.71926 1.45125 9.62771 1.51875 9.56021C1.58625 9.49271 1.6778 9.45479 1.77326 9.45479H16.7032C16.7987 9.45479 16.8902 9.49271 16.9577 9.56021C17.0252 9.62771 17.0631 9.71926 17.0631 9.81472V15.0769Z" fill="#E07126"/>
<path d="M9.23826 1.17877C10.4486 1.18102 11.6107 1.6535 12.4793 2.49645C13.3479 3.3394 13.8549 4.48687 13.8934 5.69662H15.072C15.0355 4.17334 14.4047 2.72474 13.3144 1.6603C12.2241 0.595867 10.7608 0 9.23706 0C7.71333 0 6.25002 0.595867 5.15974 1.6603C4.06945 2.72474 3.43865 4.17334 3.4021 5.69662H4.58315C4.6215 4.48683 5.12849 3.33929 5.99708 2.49632C6.86567 1.65334 8.02786 1.1809 9.23826 1.17877Z" fill="#E07126"/>
</svg>
