<svg id="Layer_1" data-name="Layer 1" xmlns="http://www.w3.org/2000/svg" viewBox="0 0 192 192"><defs><style>.cls-1{fill:#e0c226;}.cls-2{fill:#ddb228;}.cls-3{fill:#e07126;}.cls-4{fill:#fb9d5d;}</style></defs><title>semut gajah fin 192px</title><polyline class="cls-1" points="108.383 114.778 21.831 114.778 21.831 21.831 152.193 21.831 152.193 114.778 137.72 114.778"/><path class="cls-2" d="M116.9,97.854H37.076a2.808,2.808,0,1,1,0-5.563H116.9a2.808,2.808,0,1,1,0,5.563Z"/><rect class="cls-3" x="36.665" y="39.446" width="19.048" height="20.408"/><rect class="cls-3" x="115.469" y="39.446" width="19.048" height="20.408"/><path class="cls-4" d="M152.193,56.915v62.54a7.441,7.441,0,0,1-7.44,7.441h0a7.442,7.442,0,0,1-7.441-7.441v-26.3a14.342,14.342,0,0,0-14.337-14.233h0a14.35,14.35,0,0,0-14.35,14.35v35.884a28.693,28.693,0,0,0,11.717,23.132l4.121,3.023v14.858h45.706V99.288A59.93,59.93,0,0,0,152.193,56.915Z"/></svg>