<?xml version="1.0" encoding="utf-8"?>
<!-- Generator: Adobe Illustrator 24.0.2, SVG Export Plug-In . SVG Version: 6.00 Build 0)  -->
<svg version="1.1" id="Layer_1" xmlns="http://www.w3.org/2000/svg" xmlns:xlink="http://www.w3.org/1999/xlink" x="0px" y="0px"
	 viewBox="0 0 192 192" style="enable-background:new 0 0 192 192;" xml:space="preserve">
<style type="text/css">
	.st0{fill:#C4C4C4;}
</style>
<title>semut gajah fin 192px</title>
<path class="st0" d="M140.1,119.5c0,2.6,2.1,4.7,4.7,4.7c2.6,0,4.7-2.1,4.7-4.7l0,0v-1.9h-9.3L140.1,119.5L140.1,119.5z"/>
<path class="st0" d="M155,64.3v50.5v0.1v0.1v4.5c-0.1,5.6-4.7,10.2-10.3,10.1c-5.6-0.1-10.1-4.6-10.1-10.1V93.2
	c-0.1-6.4-5.3-11.5-11.7-11.4c-6.3,0.1-11.4,5.2-11.4,11.5v35.9c0,8.2,3.9,16,10.6,20.9l4.1,3c0.7,0.5,1.1,1.4,1.1,2.2v12.1h40.1
	V99.3C167.3,86.6,162.9,74.2,155,64.3z"/>
<rect x="39.4" y="42.2" class="st0" width="13.5" height="14.8"/>
<path class="st0" d="M140.1,93.1V112h9.3V24.6H24.6V112h81.2V97.9H36.7c-1.5,0-2.8-1.2-2.8-2.8c0-1.5,1.2-2.8,2.8-2.8H106
	c0.5-9.4,8.6-16.6,18-16.1C133,76.7,140,84.1,140.1,93.1L140.1,93.1z M58.5,59.9c0,1.5-1.2,2.8-2.8,2.8h-19c-1.5,0-2.8-1.2-2.8-2.8
	V39.4c0-1.5,1.2-2.8,2.8-2.8h19c1.5,0,2.8,1.2,2.8,2.8l0,0V59.9z M112.7,59.9V39.4c0-1.5,1.2-2.8,2.8-2.8h19c1.5,0,2.8,1.2,2.8,2.8
	v20.4c0,1.5-1.2,2.8-2.8,2.8h-19.1C113.9,62.6,112.7,61.4,112.7,59.9L112.7,59.9z"/>
<rect x="118.3" y="42.2" class="st0" width="13.5" height="14.8"/>
</svg>
