<svg width="18" height="18" viewBox="0 0 18 18" fill="none" xmlns="http://www.w3.org/2000/svg">
<path d="M1.31824 1.60716e-05C1.13451 -0.000897361 0.952665 0.0371355 0.784697 0.111608C0.616728 0.186081 0.466449 0.295303 0.34376 0.432077C0.219699 0.569121 0.125591 0.730539 0.067449 0.906016C0.00930744 1.08149 -0.0115887 1.26717 0.00609581 1.45118C0.425227 5.6962 2.30277 9.66471 5.31905 12.681C8.33531 15.6973 12.3038 17.5748 16.5488 17.9939C16.7329 18.0116 16.9186 17.9906 17.094 17.9324C17.2695 17.8742 17.4309 17.78 17.5679 17.6558C17.7046 17.5332 17.8138 17.383 17.8883 17.2151C17.9627 17.0472 18.0008 16.8654 18 16.6818V13.7386C18.0006 13.418 17.8835 13.1083 17.6709 12.8683C17.4583 12.6283 17.1649 12.4748 16.8466 12.4368C15.8891 12.324 14.9475 12.1035 14.0396 11.7793C13.9262 11.7374 13.8051 11.7207 13.6846 11.7305C13.5641 11.7403 13.4473 11.7764 13.3422 11.8361L11.2077 13.1041C11.1546 13.1354 11.0943 13.1522 11.0326 13.153C10.971 13.1537 10.9103 13.1383 10.8564 13.1084C8.3534 11.7122 6.28827 9.64709 4.89213 7.14405C4.86215 7.09019 4.8468 7.02942 4.84763 6.96778C4.84845 6.90615 4.86542 6.8458 4.89683 6.79277L6.16483 4.65876C6.22483 4.55386 6.26098 4.43703 6.27072 4.31658C6.28046 4.19613 6.26355 4.07501 6.22119 3.96183C5.89747 3.05346 5.67692 2.11156 5.5637 1.1539C5.52582 0.835368 5.37225 0.541849 5.13216 0.329118C4.89207 0.116387 4.58219 -0.000731547 4.26142 1.60716e-05H1.31824Z" fill="#E07126"/>
</svg>
