<svg width="9" height="9" viewBox="0 0 9 9" fill="none" xmlns="http://www.w3.org/2000/svg">
<g clip-path="url(#clip0)">
<path d="M8.38634 3.68182H5.31816V0.613636C5.31816 0.274908 5.04325 0 4.70452 0H4.29545C3.95673 0 3.68182 0.274908 3.68182 0.613636V3.68182H0.613636C0.274908 3.68182 0 3.95673 0 4.29545V4.70452C0 5.04325 0.274908 5.31816 0.613636 5.31816H3.68182V8.38634C3.68182 8.72507 3.95673 8.99998 4.29545 8.99998H4.70452C5.04325 8.99998 5.31816 8.72507 5.31816 8.38634V5.31816H8.38634C8.72507 5.31816 8.99998 5.04325 8.99998 4.70452V4.29545C8.99998 3.95673 8.72507 3.68182 8.38634 3.68182Z" fill="black"/>
</g>
<defs>
<clipPath id="clip0">
<rect width="9" height="9" fill="white"/>
</clipPath>
</defs>
</svg>
