<?xml version="1.0" encoding="utf-8"?>
<!-- Generator: Adobe Illustrator 24.0.2, SVG Export Plug-In . SVG Version: 6.00 Build 0)  -->
<svg version="1.1" id="Layer_1" xmlns="http://www.w3.org/2000/svg" xmlns:xlink="http://www.w3.org/1999/xlink" x="0px" y="0px"
	 viewBox="0 0 192 192" style="enable-background:new 0 0 192 192;" xml:space="preserve">
<style type="text/css">
	.st0{fill:#C4C4C4;}
</style>
<title>semut gajah fin 192px</title>
<rect x="91.6" y="95.5" class="st0" width="75.8" height="12.8"/>
<rect x="24.6" y="95.5" class="st0" width="61.5" height="58"/>
<path class="st0" d="M71.8,38.7C71.8,38.7,71.9,38.7,71.8,38.7l0.1-14.1H38.8v14.1c0,0,0.1,0,0.1,0.1L71.8,38.7z"/>
<path class="st0" d="M82.9,73L72,44.3H38.7L27.8,73c-2.1,5.4-3.1,11.1-3.1,16.9h61.4C86,84.1,85,78.4,82.9,73z"/>
<path class="st0" d="M24.6,163.2c0,2.3,1.9,4.1,4.2,4.2h53.1c2.3,0,4.1-1.9,4.2-4.2V159H24.6V163.2z"/>
<path class="st0" d="M91.6,163.2c0,1.4-0.3,2.9-1,4.2h76.7v-53.6H91.6V163.2z"/>
</svg>
