<svg id="Layer_1" data-name="Layer 1" xmlns="http://www.w3.org/2000/svg" viewBox="0 0 192 192"><defs><style>.cls-1{fill:#e0c226;}.cls-2{fill:#e07126;}</style></defs><title>semut gajah fin 192px</title><path class="cls-1" d="M156.68,60.788A18.014,18.014,0,1,1,131.212,35.32L117.724,21.831,21.831,117.723,35.32,131.212A18.014,18.014,0,1,1,60.788,156.68l13.489,13.489,95.892-95.892Z"/><path class="cls-2" d="M96,128.4a2.782,2.782,0,0,1-2.782-2.781V66.381a2.782,2.782,0,0,1,5.563,0v59.238A2.782,2.782,0,0,1,96,128.4Z"/><path class="cls-2" d="M76.018,122.341c-5.791,0-10.328-5.936-10.328-13.515S70.227,95.31,76.018,95.31s10.329,5.936,10.329,13.516S81.809,122.341,76.018,122.341Zm0-21.468c-2.253,0-4.766,3.266-4.766,7.953s2.513,7.952,4.766,7.952,4.766-3.266,4.766-7.952S78.271,100.873,76.018,100.873Z"/><path class="cls-2" d="M115.981,96.69c-5.79,0-10.324-5.936-10.324-13.516s4.534-13.515,10.324-13.515S126.31,75.6,126.31,83.174,121.772,96.69,115.981,96.69Zm0-21.468c-2.252,0-4.762,3.266-4.762,7.952s2.51,7.953,4.762,7.953,4.766-3.266,4.766-7.953S118.234,75.222,115.981,75.222Z"/></svg>