<svg width="19" height="19" viewBox="0 0 19 19" fill="none" xmlns="http://www.w3.org/2000/svg">
<path d="M9.23982 2.74076L3.23999 8.74059V15.5564H4.38188C4.47735 15.5564 4.56892 15.5943 4.63643 15.6618C4.70394 15.7293 4.74187 15.8209 4.74187 15.9164V18.48H6.23846V13.7041C6.23846 12.9081 6.55468 12.1447 7.11754 11.5818C7.6804 11.019 8.44381 10.7028 9.23982 10.7028C10.0358 10.7028 10.7992 11.019 11.3621 11.5818C11.925 12.1447 12.2412 12.9081 12.2412 13.7041V18.48H13.7378V15.9173C13.7378 15.8219 13.7757 15.7303 13.8432 15.6628C13.9107 15.5953 14.0023 15.5574 14.0978 15.5574H15.2396V8.74155L9.23982 2.74076ZM9.23982 9.81144C8.80396 9.81144 8.3779 9.68219 8.0155 9.44003C7.65311 9.19787 7.37067 8.85368 7.2039 8.451C7.03712 8.04831 6.99351 7.60521 7.07858 7.17774C7.16364 6.75027 7.37357 6.35762 7.68179 6.04946C7.99002 5.7413 8.38272 5.53146 8.81021 5.44649C9.2377 5.36151 9.68079 5.40522 10.0834 5.57208C10.4861 5.73894 10.8302 6.02146 11.0723 6.38391C11.3144 6.74635 11.4435 7.17245 11.4434 7.6083C11.4422 8.1923 11.2096 8.75201 10.7966 9.16492C10.3836 9.57783 9.82382 9.8103 9.23982 9.81144Z" fill="#E07126"/>
<path d="M9.23974 9.0915C10.0591 9.0915 10.7234 8.42725 10.7234 7.60786C10.7234 6.78847 10.0591 6.12422 9.23974 6.12422C8.42035 6.12422 7.7561 6.78847 7.7561 7.60786C7.7561 8.42725 8.42035 9.0915 9.23974 9.0915Z" fill="#E07126"/>
<path d="M1.08011 9.88246L0.149414 8.95225L8.99988 0.0993854C9.03111 0.0678936 9.06828 0.0428978 9.10922 0.02584C9.15016 0.00878223 9.19408 0 9.23843 0C9.28279 0 9.3267 0.00878223 9.36765 0.02584C9.40859 0.0428978 9.44575 0.0678936 9.47698 0.0993854L18.3303 8.95225L17.3996 9.88246L9.49427 1.97709C9.42671 1.90979 9.33523 1.87201 9.23987 1.87201C9.14451 1.87201 9.05304 1.90979 8.98548 1.97709L1.08011 9.88246Z" fill="#E07126"/>
<path d="M11.5212 18.48H6.9585V13.7041C6.9585 13.0991 7.19885 12.5188 7.6267 12.091C8.05454 11.6631 8.63481 11.4228 9.23987 11.4228C9.84493 11.4228 10.4252 11.6631 10.853 12.091C11.2809 12.5188 11.5212 13.0991 11.5212 13.7041V18.48Z" fill="#E07126"/>
<path d="M4.0218 16.2773H0V18.48H4.0218V16.2773Z" fill="#E07126"/>
<path d="M18.4796 16.2773H14.4578V18.48H18.4796V16.2773Z" fill="#E07126"/>
</svg>
