<svg width="20" height="20" viewBox="0 0 20 20" fill="none" xmlns="http://www.w3.org/2000/svg">
<path d="M10 20C15.5228 20 20 15.5228 20 10C20 4.47715 15.5228 0 10 0C4.47715 0 0 4.47715 0 10C0 15.5228 4.47715 20 10 20Z" fill="#E07126"/>
<path d="M8.44043 12.1973C8.44954 11.6549 8.51107 11.2266 8.625 10.9121C8.73893 10.5977 8.97135 10.249 9.32227 9.86621L10.2178 8.94336C10.6006 8.51042 10.792 8.04557 10.792 7.54883C10.792 7.07031 10.6667 6.69661 10.416 6.42773C10.1654 6.1543 9.80078 6.01758 9.32227 6.01758C8.85742 6.01758 8.48372 6.14062 8.20117 6.38672C7.91862 6.63281 7.77734 6.96322 7.77734 7.37793H6.5127C6.52181 6.63965 6.78385 6.04492 7.29883 5.59375C7.81836 5.13802 8.49284 4.91016 9.32227 4.91016C10.1836 4.91016 10.8535 5.14258 11.332 5.60742C11.8151 6.06771 12.0566 6.70117 12.0566 7.50781C12.0566 8.30534 11.6875 9.09147 10.9492 9.86621L10.2041 10.6045C9.87142 10.9736 9.70508 11.5046 9.70508 12.1973H8.44043ZM8.38574 14.3643C8.38574 14.1592 8.44727 13.9883 8.57031 13.8516C8.69792 13.7103 8.88477 13.6396 9.13086 13.6396C9.37695 13.6396 9.5638 13.7103 9.69141 13.8516C9.81901 13.9883 9.88281 14.1592 9.88281 14.3643C9.88281 14.5693 9.81901 14.7402 9.69141 14.877C9.5638 15.0091 9.37695 15.0752 9.13086 15.0752C8.88477 15.0752 8.69792 15.0091 8.57031 14.877C8.44727 14.7402 8.38574 14.5693 8.38574 14.3643Z" fill="white"/>
</svg>
