<svg id="Layer_1" data-name="Layer 1" xmlns="http://www.w3.org/2000/svg" viewBox="0 0 192 192"><defs><style>.cls-1{fill:#e17226;}.cls-2{fill:#dfc225;}</style></defs><title>redeem and broadcast icon</title><circle class="cls-1" cx="96" cy="51.838" r="30.006"/><polygon class="cls-2" points="96 33.059 102.047 43.31 113.664 45.893 105.784 54.811 106.917 66.659 96 61.92 85.083 66.659 86.216 54.811 78.336 45.893 89.953 43.31 96 33.059"/><circle class="cls-1" cx="37.824" cy="65.851" r="15.993"/><polygon class="cls-2" points="37.824 55.843 41.047 61.306 47.239 62.683 43.039 67.436 43.643 73.751 37.824 71.225 32.005 73.751 32.609 67.436 28.409 62.683 34.601 61.306 37.824 55.843"/><circle class="cls-1" cx="154.176" cy="65.851" r="15.993"/><polygon class="cls-2" points="154.176 55.843 157.399 61.306 163.591 62.683 159.391 67.436 159.995 73.751 154.176 71.225 148.357 73.751 148.961 67.436 144.761 62.683 150.953 61.306 154.176 55.843"/><rect class="cls-1" x="40.374" y="96" width="111.253" height="74.169"/><polygon class="cls-2" points="80.962 118.251 21.831 118.251 36.836 96 95.966 96 80.962 118.251"/><polygon class="cls-2" points="111.038 118.251 170.169 118.251 155.164 96 96.034 96 111.038 118.251"/></svg>