<svg id="Layer_1" data-name="Layer 1" xmlns="http://www.w3.org/2000/svg" viewBox="0 0 50 50"><defs><style>.cls-1{fill:#e0c226;}.cls-2{fill:#e07126;}.cls-3{fill:none;stroke:#428733;stroke-linecap:round;stroke-linejoin:round;stroke-width:2px;}</style></defs><title>semut gajah tambahan icon 8 september 2022</title><path class="cls-1" d="M39.142,10.858c-.239-.239-.5-.447-.743-.672l-4.949,4.95c.252.217.5.433.742.672a13,13,0,1,1-18.384,0l-4.95-4.95a20,20,0,1,0,28.284,0Z"/><path class="cls-2" d="M25,5c-.338,0-.667.034-1,.05v7c.331-.026.662-.051,1-.051A13,13,0,1,1,12,25H5A20,20,0,1,0,25,5Z"/><path class="cls-3" d="M21.5,30.2a4.07,4.07,0,0,0,3.148,1.4A3.608,3.608,0,0,0,28.5,28.3,3.608,3.608,0,0,0,24.648,25,3.608,3.608,0,0,0,28.5,21.7a3.608,3.608,0,0,0-3.852-3.3A4.07,4.07,0,0,0,21.5,19.8"/></svg>