<svg width="19" height="19" viewBox="0 0 19 19" fill="none" xmlns="http://www.w3.org/2000/svg">
<path d="M0 0V4.03122C0.00479908 4.03122 0.00863828 4.02883 0.0134374 4.02883H18.4635C18.4683 4.02883 18.4721 4.03122 18.4764 4.03122V0H0Z" fill="#E07126"/>
<path d="M0.0134374 4.74723C0.00891204 4.7465 0.00442709 4.74554 0 4.74435V18.4764H18.4764V4.74435C18.4722 4.74559 18.4679 4.74655 18.4635 4.74723H0.0134374ZM6.2436 14.3703L2.00553 11.9257C1.95071 11.8941 1.90517 11.8487 1.87351 11.7939C1.84184 11.7392 1.82517 11.677 1.82517 11.6138C1.82517 11.5505 1.84184 11.4884 1.87351 11.4336C1.90517 11.3788 1.95071 11.3334 2.00553 11.3018L6.2436 8.85429C6.32633 8.80656 6.42464 8.79364 6.51689 8.8184C6.60914 8.84314 6.68778 8.90353 6.73551 8.98626C6.78324 9.06899 6.79615 9.16729 6.7714 9.25954C6.74665 9.3518 6.68626 9.43044 6.60353 9.47816L2.90344 11.6118L6.60353 13.7493C6.6445 13.773 6.6804 13.8044 6.70921 13.842C6.73801 13.8795 6.75914 13.9223 6.7714 13.968C6.78365 14.0136 6.78679 14.0613 6.78063 14.1082C6.77447 14.1551 6.75914 14.2003 6.73551 14.2412C6.71187 14.2822 6.6804 14.3181 6.64289 14.3469C6.60538 14.3757 6.56256 14.3969 6.51689 14.4091C6.42464 14.4339 6.32633 14.421 6.2436 14.3732V14.3703ZM7.01913 17.5473C6.9602 17.5476 6.9021 17.5334 6.84994 17.506C6.79778 17.4785 6.75315 17.4387 6.71998 17.39C6.68681 17.3413 6.66611 17.2852 6.65969 17.2266C6.65328 17.168 6.66135 17.1087 6.6832 17.054L11.1214 5.90333C11.1389 5.85941 11.1648 5.81935 11.1978 5.78546C11.2308 5.75157 11.2701 5.72451 11.3135 5.70581C11.357 5.68712 11.4036 5.67716 11.4509 5.67651C11.4982 5.67586 11.5451 5.68452 11.5891 5.70201C11.633 5.7195 11.673 5.74547 11.7069 5.77844C11.7408 5.8114 11.7679 5.85072 11.7866 5.89415C11.8053 5.93758 11.8152 5.98426 11.8159 6.03154C11.8165 6.07881 11.8079 6.12575 11.7904 6.16968L7.35363 17.3203C7.32701 17.3873 7.28089 17.4448 7.22126 17.4852C7.16162 17.5257 7.0912 17.5473 7.01913 17.5473ZM16.4709 11.9257L12.2324 14.3732C12.1496 14.421 12.0513 14.4339 11.9591 14.4091C11.8668 14.3844 11.7882 14.324 11.7405 14.2412C11.6927 14.1585 11.6798 14.0602 11.7046 13.968C11.7293 13.8757 11.7897 13.7971 11.8724 13.7493L15.573 11.6118L11.8724 9.47816C11.7897 9.43044 11.7293 9.3518 11.7046 9.25954C11.6798 9.16729 11.6927 9.06899 11.7405 8.98626C11.7882 8.90353 11.8668 8.84314 11.9591 8.8184C12.0513 8.79364 12.1496 8.80656 12.2324 8.85429L16.4709 11.3018C16.5257 11.3334 16.5713 11.3788 16.6029 11.4336C16.6346 11.4884 16.6513 11.5505 16.6513 11.6138C16.6513 11.677 16.6346 11.7392 16.6029 11.7939C16.5713 11.8487 16.5257 11.8941 16.4709 11.9257Z" fill="#E07126"/>
</svg>
