<svg id="Layer_1" data-name="Layer 1" xmlns="http://www.w3.org/2000/svg" viewBox="0 0 50 50"><defs><style>.cls-1{fill:#e07126;}.cls-2{fill:#fb9d5d;}.cls-3{fill:#e0c226;}</style></defs><title>semut gajah fin</title><rect class="cls-1" x="7.5" y="25" width="35" height="20"/><path d="M42.5,45.5H7.5A.5.5,0,0,1,7,45V25a.5.5,0,0,1,.5-.5h35a.5.5,0,0,1,.5.5V45A.5.5,0,0,1,42.5,45.5ZM8,44.5H42v-19H8Z"/><rect class="cls-2" x="5" y="15.013" width="40" height="10"/><path d="M45,25.513H5a.5.5,0,0,1-.5-.5v-10a.5.5,0,0,1,.5-.5H45a.5.5,0,0,1,.5.5v10A.5.5,0,0,1,45,25.513Zm-39.5-1h39v-9H5.5Z"/><path class="cls-3" d="M42.5,28.987H27v-10.4h8.125a7.246,7.246,0,0,0,7.238-7.237c0-.022,0-.131,0-.153a6.223,6.223,0,0,0-3.853-5.65A6.457,6.457,0,0,0,31.5,6.74L25,12.759,18.5,6.74a6.457,6.457,0,0,0-7.008-1.2,6.223,6.223,0,0,0-3.853,5.65c0,.022,0,.131,0,.153a7.246,7.246,0,0,0,7.238,7.237H23v10.4H7.5v4H23V45h4V32.987H42.5ZM34.219,9.674a2.427,2.427,0,0,1,1.68-.665,2.665,2.665,0,0,1,1.038.212,2.247,2.247,0,0,1,1.425,2.069,3.252,3.252,0,0,1-3.237,3.292H28.918ZM14.875,14.582a3.252,3.252,0,0,1-3.237-3.292,2.247,2.247,0,0,1,1.425-2.069A2.665,2.665,0,0,1,14.1,9.009a2.427,2.427,0,0,1,1.68.665l5.3,4.908Z"/><path d="M27,45.5H23a.5.5,0,0,1-.5-.5V33.487H7.5a.5.5,0,0,1-.5-.5v-4a.5.5,0,0,1,.5-.5h15v-9.4H14.875a7.746,7.746,0,0,1-7.738-7.737l0-.175A6.7,6.7,0,0,1,11.3,5.082a6.956,6.956,0,0,1,7.544,1.29L25,12.077l6.16-5.7A6.956,6.956,0,0,1,38.7,5.082a6.7,6.7,0,0,1,4.157,6.1l0,.161a7.746,7.746,0,0,1-7.738,7.737H27.5v9.4h15a.5.5,0,0,1,.5.5v4a.5.5,0,0,1-.5.5h-15V45A.5.5,0,0,1,27,45.5Zm-3.5-1h3V32.987a.5.5,0,0,1,.5-.5H42v-3H27a.5.5,0,0,1-.5-.5v-10.4a.5.5,0,0,1,.5-.5h8.125a6.745,6.745,0,0,0,6.738-6.737l0-.134A5.719,5.719,0,0,0,38.312,6a5.963,5.963,0,0,0-6.472,1.1l-6.5,6.02a.5.5,0,0,1-.68,0l-6.5-6.02A5.964,5.964,0,0,0,11.688,6a5.716,5.716,0,0,0-3.549,5.2l0,.146a6.745,6.745,0,0,0,6.738,6.737H23a.5.5,0,0,1,.5.5v10.4a.5.5,0,0,1-.5.5H8v3H23a.5.5,0,0,1,.5.5ZM35.125,15.082H28.918a.5.5,0,0,1-.34-.867l5.3-4.908a3.052,3.052,0,0,1,3.255-.546,2.775,2.775,0,0,1,1.728,2.521,3.793,3.793,0,0,1-1.093,2.7A3.7,3.7,0,0,1,35.125,15.082Zm-4.931-1h4.931a2.7,2.7,0,0,0,1.933-.808,2.8,2.8,0,0,0,.8-1.984,1.729,1.729,0,0,0-1.121-1.609,2.164,2.164,0,0,0-.842-.172,1.94,1.94,0,0,0-1.34.531h0Zm-9.112,1H14.875a3.7,3.7,0,0,1-2.644-1.1,3.788,3.788,0,0,1-1.093-2.688,2.779,2.779,0,0,1,1.728-2.529,3.052,3.052,0,0,1,3.255.547l5.3,4.907a.5.5,0,0,1-.34.867ZM14.1,9.509a2.164,2.164,0,0,0-.842.172A1.732,1.732,0,0,0,12.138,11.3a2.794,2.794,0,0,0,.8,1.976,2.7,2.7,0,0,0,1.933.808h4.931l-4.365-4.041A1.937,1.937,0,0,0,14.1,9.509Z"/></svg>