<svg width="19" height="19" viewBox="0 0 19 19" fill="none" xmlns="http://www.w3.org/2000/svg">
<path d="M16.7776 6.41647H1.69887C1.24846 6.41698 0.81664 6.59613 0.49815 6.91462C0.179659 7.23311 0.000508081 7.66493 0 8.11535V16.7782C0.000508081 17.2286 0.179659 17.6604 0.49815 17.9789C0.81664 18.2974 1.24846 18.4765 1.69887 18.477H16.7776C17.228 18.4765 17.6598 18.2974 17.9783 17.9789C18.2968 17.6604 18.4759 17.2286 18.4764 16.7782V8.11535C18.4759 7.66493 18.2968 7.23311 17.9783 6.91462C17.6598 6.59613 17.228 6.41698 16.7776 6.41647ZM11.1819 16.0333C11.1866 16.0832 11.1809 16.1336 11.165 16.1811C11.1492 16.2287 11.1236 16.2724 11.0899 16.3095C11.0562 16.3466 11.0151 16.3762 10.9693 16.3965C10.9235 16.4168 10.874 16.4273 10.8238 16.4273H7.65453C7.60435 16.4273 7.55474 16.4168 7.50886 16.3965C7.46298 16.3761 7.42185 16.3465 7.38811 16.3093C7.35436 16.2722 7.32874 16.2284 7.31289 16.1808C7.29703 16.1332 7.29129 16.0828 7.29604 16.0329L7.57486 13.1342C7.15428 12.7906 6.85029 12.3252 6.70458 11.802C6.55887 11.2788 6.57858 10.7233 6.76101 10.2117C6.94343 9.70014 7.27964 9.25751 7.72353 8.94453C8.16742 8.63155 8.69725 8.46354 9.24038 8.46354C9.78352 8.46354 10.3134 8.63155 10.7572 8.94453C11.2011 9.25751 11.5373 9.70014 11.7198 10.2117C11.9022 10.7233 11.9219 11.2788 11.7762 11.802C11.6305 12.3252 11.3265 12.7906 10.9059 13.1342L11.1819 16.0333Z" fill="#E07126"/>
<path d="M9.23814 9.18602C8.83015 9.18571 8.43278 9.31598 8.10416 9.55776C7.77554 9.79955 7.53292 10.1402 7.41182 10.5298C7.29071 10.9194 7.29747 11.3375 7.43111 11.723C7.56474 12.1084 7.81824 12.441 8.15451 12.6721C8.20735 12.7084 8.24951 12.7583 8.27659 12.8164C8.30368 12.8745 8.31472 12.9389 8.30856 13.0027L8.04845 15.7075H10.4278L10.1682 13.0022C10.1619 12.9385 10.1729 12.8742 10.1999 12.8162C10.2269 12.7581 10.269 12.7083 10.3218 12.6721C10.658 12.441 10.9115 12.1084 11.0452 11.723C11.1788 11.3375 11.1856 10.9194 11.0645 10.5298C10.9434 10.1402 10.7007 9.79955 10.3721 9.55776C10.0435 9.31598 9.64613 9.18571 9.23814 9.18602Z" fill="#E07126"/>
<path d="M9.23826 1.17877C10.4486 1.18102 11.6107 1.6535 12.4793 2.49645C13.3479 3.3394 13.8549 4.48687 13.8934 5.69662H15.072C15.0355 4.17334 14.4047 2.72474 13.3144 1.6603C12.2241 0.595867 10.7608 0 9.23706 0C7.71333 0 6.25002 0.595867 5.15974 1.6603C4.06945 2.72474 3.43865 4.17334 3.4021 5.69662H4.58315C4.6215 4.48683 5.12849 3.33929 5.99708 2.49632C6.86567 1.65334 8.02786 1.1809 9.23826 1.17877Z" fill="#E07126"/>
</svg>
