<svg width="14" height="14" viewBox="0 0 14 14" fill="none" xmlns="http://www.w3.org/2000/svg">
<g clip-path="url(#clip0)">
<path d="M6.1653 0C2.76585 0 0 2.76585 0 6.1653C0 9.56495 2.76585 12.3306 6.1653 12.3306C9.56495 12.3306 12.3306 9.56495 12.3306 6.1653C12.3306 2.76585 9.56495 0 6.1653 0ZM6.1653 11.1924C3.39339 11.1924 1.13821 8.93725 1.13821 6.16533C1.13821 3.39341 3.39339 1.13821 6.1653 1.13821C8.93722 1.13821 11.1924 3.39339 11.1924 6.1653C11.1924 8.93722 8.93722 11.1924 6.1653 11.1924Z" fill="#7D7D7D"/>
<path d="M13.8332 13.0285L10.5704 9.76566C10.348 9.54332 9.98796 9.54332 9.76563 9.76566C9.54329 9.9878 9.54329 10.3482 9.76563 10.5704L13.0285 13.8333C13.1397 13.9444 13.2852 14 13.4309 14C13.5764 14 13.7221 13.9444 13.8332 13.8333C14.0556 13.6111 14.0556 13.2507 13.8332 13.0285Z" fill="#7D7D7D"/>
</g>
<defs>
<clipPath id="clip0">
<rect width="14" height="14" fill="white"/>
</clipPath>
</defs>
</svg>
