<svg id="Layer_1" data-name="Layer 1" xmlns="http://www.w3.org/2000/svg" viewBox="0 0 192 192"><defs><style>.cls-1{fill:#e07126;}</style></defs><title>semut gajah fin 192px</title><path class="cls-1" d="M170.169,107.682V84.318l-27.707-3.909a48.445,48.445,0,0,0-2.594-6.225l16.837-22.369L140.185,35.3,117.816,52.132a48.445,48.445,0,0,0-6.225-2.594l-3.909-27.707H84.318L80.409,49.538a48.5,48.5,0,0,0-6.225,2.594L51.815,35.3,35.3,51.815,52.132,74.184a48.587,48.587,0,0,0-2.594,6.225L21.831,84.318v23.364l27.707,3.909a48.647,48.647,0,0,0,2.594,6.225L35.3,140.185l16.52,16.52,22.369-16.837a48.647,48.647,0,0,0,6.225,2.594l3.909,27.707h23.364l3.909-27.707a48.587,48.587,0,0,0,6.225-2.594l22.369,16.837,16.52-16.52-16.837-22.369a48.5,48.5,0,0,0,2.594-6.225ZM96,115.912A19.912,19.912,0,1,1,115.912,96,19.912,19.912,0,0,1,96,115.912Z"/></svg>