<svg id="Layer_1" data-name="Layer 1" xmlns="http://www.w3.org/2000/svg" viewBox="0 0 50 50"><defs><style>.cls-1{fill:#e07126;}.cls-2{fill:#529f45;}.cls-3{fill:#e0c226;}</style></defs><title>semut gajah</title><path class="cls-1" d="M24.952,14.949a1,1,0,0,1-1-1V12.573a5.573,5.573,0,1,0-11.146,0v1.376a1,1,0,0,1-2,0V12.573a7.573,7.573,0,0,1,15.146,0v1.376A1,1,0,0,1,24.952,14.949Z"/><polygon class="cls-2" points="31.758 45 5 45 6.841 13.134 29.917 13.134 31.758 45"/><path class="cls-3" d="M41.717,45H18.526a3.283,3.283,0,0,1-3.261-3.657l1.987-17.279H42.991l1.987,17.279A3.282,3.282,0,0,1,41.717,45Z"/><path class="cls-2" d="M23.548,25.866a1,1,0,0,1,1,1v1.376a5.574,5.574,0,0,0,11.147,0V26.866a1,1,0,0,1,2,0v1.376a7.574,7.574,0,0,1-15.147,0V26.866A1,1,0,0,1,23.548,25.866Z"/></svg>