<svg width="22" height="22" viewBox="0 0 22 22" fill="none" xmlns="http://www.w3.org/2000/svg">
<path d="M7.25902 14.8328C7.16453 14.8328 7.07292 14.8002 6.99957 14.7407C6.92623 14.6811 6.87561 14.5981 6.85621 14.5056L4.1362 1.67369H2.65013C2.5953 1.67473 2.54081 1.66483 2.48985 1.64457C2.43889 1.6243 2.39248 1.59408 2.35334 1.55567C2.31419 1.51726 2.2831 1.47144 2.26187 1.42087C2.24065 1.3703 2.22971 1.31601 2.22971 1.26117C2.22971 1.20633 2.24065 1.15204 2.26187 1.10147C2.2831 1.0509 2.31419 1.00508 2.35334 0.966667C2.39248 0.928257 2.43889 0.898037 2.48985 0.877773C2.54081 0.857508 2.5953 0.847606 2.65013 0.848646H4.47034C4.56491 0.848649 4.65659 0.881158 4.73004 0.940724C4.80348 1.00029 4.85422 1.08329 4.87375 1.17582L7.66301 14.3349C7.67437 14.3879 7.67514 14.4427 7.66529 14.496C7.65545 14.5493 7.63517 14.6002 7.60563 14.6456C7.57609 14.6911 7.53786 14.7303 7.49315 14.761C7.44843 14.7916 7.3981 14.8132 7.34504 14.8243C7.31677 14.8304 7.28792 14.8332 7.25902 14.8328Z" fill="#E07126"/>
<path d="M8.37537 22C9.28956 22 10.0307 21.2589 10.0307 20.3447C10.0307 19.4305 9.28956 18.6894 8.37537 18.6894C7.46118 18.6894 6.72008 19.4305 6.72008 20.3447C6.72008 21.2589 7.46118 22 8.37537 22Z" fill="#E07126"/>
<path d="M19.095 22C20.0092 22 20.7503 21.2589 20.7503 20.3447C20.7503 19.4305 20.0092 18.6894 19.095 18.6894C18.1809 18.6894 17.4398 19.4305 17.4398 20.3447C17.4398 21.2589 18.1809 22 19.095 22Z" fill="#E07126"/>
<path d="M5.47042 5.75574H22L20.2025 14.5207H6.86973L5.47042 5.75574Z" fill="#E07126"/>
<path d="M8.37537 22C9.28956 22 10.0307 21.2589 10.0307 20.3447C10.0307 19.4305 9.28956 18.6894 8.37537 18.6894C7.46118 18.6894 6.72008 19.4305 6.72008 20.3447C6.72008 21.2589 7.46118 22 8.37537 22Z" fill="#529F45"/>
<path d="M19.095 22C20.0092 22 20.7503 21.2589 20.7503 20.3447C20.7503 19.4305 20.0092 18.6894 19.095 18.6894C18.1809 18.6894 17.4398 19.4305 17.4398 20.3447C17.4398 21.2589 18.1809 22 19.095 22Z" fill="#529F45"/>
<path d="M19.0501 19.1161H6.86952C6.20876 19.111 5.57679 18.845 5.11135 18.3759C4.64591 17.9069 4.38473 17.2729 4.38473 16.6121C4.38473 15.9513 4.64591 15.3173 5.11135 14.8483C5.57679 14.3793 6.20876 14.1132 6.86952 14.1081H20.2026C20.3106 14.1102 20.4136 14.1545 20.4893 14.2317C20.565 14.3088 20.6074 14.4126 20.6074 14.5206C20.6074 14.6287 20.565 14.7325 20.4893 14.8096C20.4136 14.8868 20.3106 14.9311 20.2026 14.9332H6.86952C6.42422 14.9332 5.99715 15.1101 5.68228 15.4249C5.3674 15.7398 5.1905 16.1669 5.1905 16.6122C5.1905 17.0575 5.3674 17.4846 5.68228 17.7994C5.99715 18.1143 6.42422 18.2912 6.86952 18.2912H19.0501C19.1595 18.2912 19.2644 18.3347 19.3417 18.412C19.4191 18.4894 19.4625 18.5943 19.4625 18.7037C19.4625 18.813 19.4191 18.918 19.3417 18.9953C19.2644 19.0727 19.1595 19.1161 19.0501 19.1161Z" fill="#E07126"/>
<path d="M3.29649 0H0V2.43466H3.29649V0Z" fill="#529F45"/>
</svg>
