<svg width="20" height="20" viewBox="0 0 20 20" fill="none" xmlns="http://www.w3.org/2000/svg">
<path d="M9.97583 4.9745C9.84322 4.9745 9.71605 4.92182 9.62228 4.82805C9.52851 4.73429 9.47583 4.60711 9.47583 4.4745V3.7865C9.47583 3.04747 9.18226 2.33872 8.65969 1.81615C8.13712 1.29358 7.42836 1 6.68933 1C5.95031 1 5.24155 1.29358 4.71898 1.81615C4.19641 2.33872 3.90283 3.04747 3.90283 3.7865V4.4745C3.90283 4.60711 3.85015 4.73429 3.75639 4.82805C3.66262 4.92182 3.53544 4.9745 3.40283 4.9745C3.27022 4.9745 3.14305 4.92182 3.04928 4.82805C2.95551 4.73429 2.90283 4.60711 2.90283 4.4745V3.7865C2.90283 2.78226 3.30177 1.81915 4.01187 1.10904C4.72198 0.398934 5.68509 0 6.68933 0C7.69357 0 8.65669 0.398934 9.36679 1.10904C10.0769 1.81915 10.4758 2.78226 10.4758 3.7865V4.4745C10.4758 4.60711 10.4232 4.73429 10.3294 4.82805C10.2356 4.92182 10.1084 4.9745 9.97583 4.9745Z" fill="#E07126"/>
<path d="M13.379 20H0L0.9205 4.067H12.4585L13.379 20Z" fill="#529F45"/>
<path d="M18.3585 20H6.76301C6.53169 20 6.303 19.951 6.09191 19.8564C5.88083 19.7618 5.69213 19.6236 5.53817 19.451C5.38422 19.2783 5.2685 19.0751 5.19859 18.8546C5.12868 18.6341 5.10616 18.4013 5.13251 18.1715L6.12601 9.532H18.9955L19.989 18.1715C20.0154 18.4013 19.993 18.6341 19.9231 18.8547C19.8532 19.0752 19.7375 19.2785 19.5835 19.4512C19.4296 19.6238 19.2408 19.762 19.0297 19.8566C18.8186 19.9512 18.5899 20 18.3585 20Z" fill="#E0C226"/>
<path d="M9.27393 10.433C9.40653 10.433 9.53371 10.4857 9.62748 10.5794C9.72125 10.6732 9.77393 10.8004 9.77393 10.933V11.621C9.78374 12.3536 10.0817 13.0529 10.6032 13.5675C11.1248 14.0821 11.828 14.3707 12.5607 14.3707C13.2934 14.3707 13.9966 14.0821 14.5181 13.5675C15.0397 13.0529 15.3376 12.3536 15.3474 11.621V10.933C15.3474 10.8004 15.4001 10.6732 15.4939 10.5794C15.5876 10.4857 15.7148 10.433 15.8474 10.433C15.98 10.433 16.1072 10.4857 16.201 10.5794C16.2947 10.6732 16.3474 10.8004 16.3474 10.933V11.621C16.336 12.6178 15.932 13.5698 15.2231 14.2706C14.5142 14.9714 13.5575 15.3645 12.5607 15.3645C11.5638 15.3645 10.6072 14.9714 9.89829 14.2706C9.18938 13.5698 8.78538 12.6178 8.77393 11.621V10.933C8.77393 10.8004 8.8266 10.6732 8.92037 10.5794C9.01414 10.4857 9.14132 10.433 9.27393 10.433Z" fill="#529F45"/>
<path d="M15.75 10C17.5449 10 19 8.54493 19 6.75C19 4.95507 17.5449 3.5 15.75 3.5C13.9551 3.5 12.5 4.95507 12.5 6.75C12.5 8.54493 13.9551 10 15.75 10Z" fill="#7EDC6E"/>
<path d="M17.4255 6.32067H16.1805V5.07563C16.1805 4.96176 16.1353 4.85256 16.0547 4.77205C15.9742 4.69153 15.865 4.6463 15.7512 4.6463C15.6373 4.6463 15.5281 4.69153 15.4476 4.77205C15.3671 4.85256 15.3218 4.96176 15.3218 5.07563V6.32067H14.0768C13.9629 6.32067 13.8537 6.36591 13.7732 6.44642C13.6927 6.52693 13.6475 6.63614 13.6475 6.75C13.6475 6.86386 13.6927 6.97306 13.7732 7.05358C13.8537 7.13409 13.9629 7.17933 14.0768 7.17933H15.3218V8.42437C15.3218 8.53824 15.3671 8.64744 15.4476 8.72795C15.5281 8.80847 15.6373 8.8537 15.7512 8.8537C15.865 8.8537 15.9742 8.80847 16.0547 8.72795C16.1353 8.64744 16.1805 8.53824 16.1805 8.42437V7.17933H17.4255C17.5394 7.17933 17.6486 7.13409 17.7291 7.05358C17.8096 6.97306 17.8549 6.86386 17.8549 6.75C17.8549 6.63614 17.8096 6.52693 17.7291 6.44642C17.6486 6.36591 17.5394 6.32067 17.4255 6.32067Z" fill="white"/>
</svg>
