<svg id="Layer_1" data-name="Layer 1" xmlns="http://www.w3.org/2000/svg" viewBox="0 0 50 50"><defs><style>.cls-1{fill:#e07126;}.cls-2{fill:#e0c226;}.cls-3{fill:#428733;}.cls-4{fill:#fff;}.cls-5{fill:#529f45;}</style></defs><title>semut gajah tambahan icon 8 september 2022</title><rect class="cls-1" x="5" y="9" width="40" height="36"/><rect class="cls-2" x="11.5" y="15" width="27" height="30"/><rect class="cls-3" x="17.5" y="9" width="15" height="8"/><circle class="cls-3" cx="25" cy="10" r="5"/><circle class="cls-4" cx="25" cy="10" r="1.25"/><path class="cls-5" d="M25,36.5a4.673,4.673,0,0,1-4.667-4.667V29.167a4.667,4.667,0,0,1,9.334,0v2.666A4.673,4.673,0,0,1,25,36.5Zm0-10a2.67,2.67,0,0,0-2.667,2.667v2.666a2.667,2.667,0,0,0,5.334,0V29.167A2.669,2.669,0,0,0,25,26.5Z"/><polygon class="cls-3" points="34.662 45 15.338 45 17 30 33 30 34.662 45"/></svg>