<svg width="19" height="19" viewBox="0 0 19 19" fill="none" xmlns="http://www.w3.org/2000/svg">
<path d="M18.2815 6.11786L15.8446 0H13.3159L14.3314 6.11786H18.2815Z" fill="#E07126"/>
<path d="M12.5861 0H9.57422V6.11786H13.6021L12.5861 0Z" fill="#E07126"/>
<path d="M8.85428 6.11786V0H5.84238L4.82642 6.11786H8.85428Z" fill="#E07126"/>
<path d="M6.81468 8.63258C7.31221 8.6313 7.79212 8.44825 8.16412 8.11788C8.53613 7.7875 8.77458 7.33258 8.83462 6.83868H4.79907C4.85892 7.33188 5.09672 7.78628 5.46784 8.11657C5.83896 8.44687 6.31788 8.63035 6.81468 8.63258Z" fill="#E07126"/>
<path d="M11.6137 8.63258C12.1105 8.63035 12.5894 8.44687 12.9605 8.11657C13.3316 7.78628 13.5694 7.33188 13.6293 6.83868H9.59375C9.65379 7.33258 9.89224 7.7875 10.2642 8.11788C10.6362 8.44825 11.1162 8.6313 11.6137 8.63258Z" fill="#E07126"/>
<path d="M5.11233 0H2.5837L0.146729 6.11786H4.09685L5.11233 0Z" fill="#E07126"/>
<path d="M4.03794 6.83868H0C0.0577013 7.33348 0.295151 7.78983 0.667235 8.12105C1.03932 8.45226 1.52011 8.63525 2.01825 8.63525C2.5164 8.63525 2.99719 8.45226 3.36927 8.12105C3.74135 7.78983 3.9788 7.33348 4.0365 6.83868H4.03794Z" fill="#E07126"/>
<path d="M8.21875 10.9098H3.62939V18.4769H8.21875V10.9098Z" fill="#E07126"/>
<path d="M14.3906 6.83868C14.4479 7.33401 14.6852 7.79102 15.0575 8.12274C15.4297 8.45447 15.911 8.63777 16.4096 8.63777C16.9082 8.63777 17.3895 8.45447 17.7617 8.12274C18.134 7.79102 18.3713 7.33401 18.4286 6.83868H14.3906Z" fill="#E07126"/>
<path d="M14.0109 7.95638C13.7702 8.38029 13.4215 8.73283 13.0002 8.97808C12.5789 9.22333 12.1001 9.35254 11.6126 9.35254C11.1251 9.35254 10.6463 9.22333 10.225 8.97808C9.80374 8.73283 9.45497 8.38029 9.21426 7.95638C8.97355 8.38029 8.62478 8.73283 8.20348 8.97808C7.78218 9.22333 7.30341 9.35254 6.81592 9.35254C6.32844 9.35254 5.84966 9.22333 5.42836 8.97808C5.00706 8.73283 4.65829 8.38029 4.41758 7.95638C4.12364 8.47831 3.66682 8.88958 3.11701 9.12731C2.56719 9.36504 1.95465 9.41613 1.37305 9.27277V18.4764H2.90875V10.5498C2.90875 10.4543 2.94667 10.3628 3.01417 10.2953C3.08167 10.2278 3.17322 10.1899 3.26868 10.1899H8.57886C8.67432 10.1899 8.76587 10.2278 8.83337 10.2953C8.90087 10.3628 8.93879 10.4543 8.93879 10.5498V18.4764H17.0555V9.27277C16.4739 9.41613 15.8613 9.36504 15.3115 9.12731C14.7617 8.88958 14.3049 8.47831 14.0109 7.95638ZM15.5188 14.6271C15.5188 14.7226 15.4809 14.8141 15.4134 14.8816C15.3459 14.9491 15.2543 14.987 15.1589 14.987H11.0825C10.9871 14.987 10.8955 14.9491 10.828 14.8816C10.7605 14.8141 10.7226 14.7226 10.7226 14.6271V10.5498C10.7226 10.4543 10.7605 10.3628 10.828 10.2953C10.8955 10.2278 10.9871 10.1899 11.0825 10.1899H15.1589C15.2543 10.1899 15.3459 10.2278 15.4134 10.2953C15.4809 10.3628 15.5188 10.4543 15.5188 10.5498V14.6271Z" fill="#E07126"/>
<path d="M14.7991 10.9098H11.4426V14.2658H14.7991V10.9098Z" fill="#E07126"/>
</svg>
