<svg id="Layer_1" data-name="Layer 1" xmlns="http://www.w3.org/2000/svg" viewBox="0 0 192 192"><defs><style>.cls-1{fill:#fb9d5d;}.cls-2{fill:#e07126;}.cls-3{fill:#e0c226;}</style></defs><title>semut gajah fin 192px</title><rect class="cls-1" x="58.917" y="21.831" width="74.169" height="148.337" rx="10.346"/><rect class="cls-2" x="59.436" y="42.96" width="73.572" height="106.081"/><path class="cls-3" d="M172.95,78.992a2.744,2.744,0,0,0-1.416-2.372L154.214,59.3a2.781,2.781,0,1,0-3.933,3.933L163.259,76.21H120.474a2.782,2.782,0,0,0,0,5.563H163.65L150.672,94.752a2.781,2.781,0,1,0,3.933,3.933l17.53-17.531a2.752,2.752,0,0,0,.8-2.066C172.932,79.054,172.95,79.026,172.95,78.992Z"/><path class="cls-3" d="M71.528,110.227H28.35L41.33,97.248A2.781,2.781,0,1,0,37.4,93.315L19.865,110.846a2.779,2.779,0,0,0-.815,1.967c0,.034.018.064.02.1s-.02.063-.02.1a2.744,2.744,0,0,0,1.416,2.372L37.788,132.7a2.781,2.781,0,1,0,3.933-3.933L28.742,115.79H71.528a2.782,2.782,0,0,0,0-5.563Z"/></svg>