<svg id="Layer_1" data-name="Layer 1" xmlns="http://www.w3.org/2000/svg" viewBox="0 0 192 192"><defs><style>.cls-1{fill:#fb9d5d;}.cls-2{fill:#e07126;}</style></defs><title>semut gajah fin 192px</title><rect class="cls-1" x="21.831" y="42.948" width="148.337" height="25.274" rx="6.673"/><path class="cls-2" d="M124.416,42.948h0A21.118,21.118,0,0,0,103.3,21.831H88.7A21.118,21.118,0,0,0,67.584,42.948h56.832Z"/><path class="cls-2" d="M31.87,68.222V155.9a14.268,14.268,0,0,0,14.267,14.267h99.726A14.268,14.268,0,0,0,160.13,155.9V68.222Z"/><path class="cls-1" d="M95.009,150.227a2.782,2.782,0,0,1-2.781-2.782V90.758a2.782,2.782,0,0,1,5.563,0v56.687A2.783,2.783,0,0,1,95.009,150.227Z"/><path class="cls-1" d="M129.305,150.227a2.782,2.782,0,0,1-2.781-2.782V90.758a2.781,2.781,0,0,1,5.562,0v56.687A2.782,2.782,0,0,1,129.305,150.227Z"/><path class="cls-1" d="M62.7,150.227a2.783,2.783,0,0,1-2.782-2.782V90.758a2.782,2.782,0,0,1,5.563,0v56.687A2.782,2.782,0,0,1,62.7,150.227Z"/></svg>