<svg id="Layer_1" data-name="Layer 1" xmlns="http://www.w3.org/2000/svg" viewBox="0 0 192 192"><defs><style>.cls-1{fill:#e0c226;}.cls-2{fill:#e07126;}</style></defs><title>semut gajah fin 192px</title><rect class="cls-1" x="21.831" y="21.831" width="148.337" height="148.337"/><path class="cls-2" d="M118.23,45.812c-5.714-6.366-14.918-5.876-20.53.61L96,48.387l-1.7-1.965c-5.612-6.486-14.816-6.976-20.53-.61a18.528,18.528,0,0,0-.192,23.777l11.765,13.6a13.717,13.717,0,0,0,21.314,0l11.765-13.6A18.526,18.526,0,0,0,118.23,45.812Z"/><path class="cls-2" d="M55.609,106.776H46.821a2.782,2.782,0,0,0,0,5.563h8.788a2.782,2.782,0,0,0,0-5.563Z"/><path class="cls-2" d="M71.2,112.339h73.98a2.782,2.782,0,0,0,0-5.563H71.2a2.782,2.782,0,1,0,0,5.563Z"/><path class="cls-2" d="M55.609,125.7H46.821a2.782,2.782,0,0,0,0,5.563h8.788a2.782,2.782,0,0,0,0-5.563Z"/><path class="cls-2" d="M145.178,125.7H71.2a2.782,2.782,0,1,0,0,5.563h73.98a2.782,2.782,0,0,0,0-5.563Z"/><path class="cls-2" d="M55.609,144.618H46.821a2.781,2.781,0,1,0,0,5.562h8.788a2.781,2.781,0,0,0,0-5.562Z"/><path class="cls-2" d="M145.178,144.618H71.2a2.781,2.781,0,1,0,0,5.562h73.98a2.781,2.781,0,0,0,0-5.562Z"/></svg>