<?xml version="1.0" encoding="utf-8"?>
<!-- Generator: Adobe Illustrator 24.0.2, SVG Export Plug-In . SVG Version: 6.00 Build 0)  -->
<svg version="1.1" id="Layer_1" xmlns="http://www.w3.org/2000/svg" xmlns:xlink="http://www.w3.org/1999/xlink" x="0px" y="0px"
	 viewBox="0 0 640 960" style="enable-background:new 0 0 640 960;" xml:space="preserve">
<style type="text/css">
	.st0{fill:#529D45;}
	.st1{fill:#7EDA6E;}
	.st2{fill:#DE2626;}
	.st3{fill:#DE7126;}
	.st4{fill:#F9AEAE;}
	.st5{fill:#FCD7CB;}
	.st6{fill:#DEC026;}
	.st7{fill:#F99B5D;}
	.st8{fill:none;stroke:#2E6620;stroke-width:3;stroke-linecap:round;stroke-miterlimit:10;}
	.st9{fill:#2E6620;}
	.st10{fill:#DB9E28;}
	.st11{fill:#FAE6E1;}
	.st12{fill:#CA6621;}
	.st13{fill:#438734;}
	.st14{fill:#468736;}
	.st15{fill:#285B1A;}
	.st16{fill:#DB5F28;}
	.st17{fill:#FFFFFF;}
	.st18{fill:#0D2605;}
	.st19{fill:#CC9C78;}
	.st20{fill:#C48F6D;}
	.st21{fill:#143F0A;}
	.st22{fill:#E3B993;}
	.st23{fill:#4A8F3C;}
	.st24{fill:#509741;}
	.st25{fill:#103007;}
	.st26{fill:#CA8456;}
	.st27{fill:#091E02;}
	.st28{fill:#D9882A;}
	.st29{fill:#CC4E21;}
	.st30{fill:#C78617;}
	.st31{fill:#C47318;}
	.st32{fill:#3F7F2D;}
	.st33{fill:#3B7728;}
	.st34{fill:none;stroke:#091E02;stroke-width:2;stroke-linecap:round;stroke-miterlimit:10;}
	.st35{fill:none;stroke:#091E02;stroke-linecap:round;stroke-miterlimit:10;}
	.st36{fill:#DDA028;}
	.st37{fill:#E69F7C;}
	.st38{fill:#FBBA94;}
	.st39{fill:#183821;}
	.st40{fill:#EC8557;}
</style>
<g>
	<path class="st11" d="M241.82,615.55h271.03c16.79-13.8,75.68-69.49,51.6-154.81c-27.96-99.06-194.92-14.38-198.11-99.85
		S250.51,251.45,189,376.07C116.45,523.06,224.46,603.8,241.82,615.55z"/>
	<path class="st0" d="M66.52,615.55h211.72c0,0,5.5-26.95-35.46-21.67c-40.97,5.28-50.45-76.41-99.06-71.68
		c-48.61,4.72-25.68,58.35-53.81,65.02C61.78,593.88,61.17,605.55,66.52,615.55z"/>
	<path class="st3" d="M205.48,615.55h196.74c0,0,7.57-6.19-1.61-14.45c-9.17-8.25-63.52,12.38-62.6-13.53s-8.79-58.59-52.51-44.48
		c-28.43,9.17-25.91,42.19-52.97,53.66C210.66,606.02,205.48,607.75,205.48,615.55z"/>
	<path class="st6" d="M346.11,615.55h224.71c0,0,12.84-14.06-1.53-22.93c-14.37-8.87,31.8-54.73-34.24-68.79
		c-66.04-14.06-119.85,55.34-128.41,67.26C398.09,603.02,350.39,594.15,346.11,615.55z"/>
	<path class="st0" d="M447.82,716.67c0.05-0.44,0.1-0.89,0.14-1.34c1.59-19.78-10.63-35.81-27.28-35.81
		c-16.65,0-31.44,16.03-33.03,35.81c-0.04,0.45-0.06,0.89-0.08,1.34H447.82z"/>
	<path class="st6" d="M193.78,704.06h121.07c0,0,4.82-11.92-19.49-8.25c-24.31,3.67-40.66-41.73-69.86-37.45
		C196.3,662.63,190.65,684.49,193.78,704.06z"/>
	<g>
		<path class="st19" d="M315.18,415.41c0,0-6.46,1.95-19.77-4.59s-26.88,5.45-17.98,15.34l13.24,6.31c0,0,7.93,4.21,13.56-2.02
			c5.64-6.23,12.91-5.61,12.91-5.61L315.18,415.41z"/>
		<path class="st21" d="M339.6,615.25h54.89c0,0,3.65-0.45,4.63-4.46s-13.72-16.4-13.72-16.4s-6.51,9.89-22.1,10.78
			C347.71,606.07,337.46,607.41,339.6,615.25z"/>
		<path class="st21" d="M424.14,615.4h46.31c0,0,3.34-4.52-3.02-8.08s-14.11-15.62-14.11-15.62l-12.06,3.66
			c0,0,0.22,10.66-8.4,12.49C424.25,609.69,423.6,612.92,424.14,615.4z"/>
		<path class="st23" d="M430.65,442.49c0,0,19.26,35.48-6.65,75.22c-23.08,35.4-28.88,59.73-26.63,77.83
			c0.42,3.35-2.09,6.32-5.36,6.26l-15.54-0.3c-1.72-0.03-3.32-0.92-4.29-2.39c-6.06-9.2-23.31-45.21-14.45-86.21
			c9.6-44.4,22.01-66.63,22.01-66.63L430.65,442.49z"/>
		<path class="st14" d="M401,563.72c4.01-12.9,11.27-28.03,23-46.01c25.91-39.74,6.65-75.22,6.65-75.22l-24.22,1.8
			c-15.99,6.75-27.3,11.67-27.3,11.67S362.61,519.45,401,563.72z"/>
		<path class="st27" d="M380.05,251.58c0,0,24.68-16.95,42.99-2.25c22.05,17.69,0.57,45.97,19.83,59.62
			c19.26,13.64,31.18-0.65,38.83,40.62s36.99,28.43,40.05,62.68c2.8,31.39-54.77,48.65-66.74-1.92
			c-2.22-9.36-7.45-17.74-15.18-23.46c-9.15-6.77-19.63-17.57-18.97-31.26c1.15-24.08-11.92-30.96-11.92-30.96L380.05,251.58z"/>
		<path class="st0" d="M450.98,440.67c0,0,16.51,28.19,5.5,79.71s-0.61,69.99-0.61,69.99s-12.54,17.82-29.35,4.86
			s-59.01-62.86-24.46-142.9L450.98,440.67z"/>
		<path class="st23" d="M454.83,449.84c-8.17,0-30.1,0-30.6,0c-0.51,0-18.56,5.92-24.36,7.82c-0.04,0.11-0.08,0.21-0.13,0.32
			c4.29-0.58,16.39-1.52,29.38,3.63c11.79,4.67,21.23,8.85,30.03,7.31C458.07,460.88,456.39,454.5,454.83,449.84z"/>
		<path class="st22" d="M476.78,446c0,0-10.13,10.62-7.02,15.95c3.11,5.33,6.44-4.09,6.44-4.09s4.58,4.75,1.02,10.89
			c-3.55,6.13-1.64,8.84-1.64,8.84s9.88,3.61,16.16-11.43c6.28-15.05-8.23-21.74-8.23-21.74L476.78,446z"/>
		<path class="st16" d="M309.12,410.1c0,0-2.29,9.17,2.98,18.8c0,0,62.6-0.92,85.53-37.15s-2.45-62.68-2.45-62.68
			s-25.31,7.24-39.44,41.43C344.28,398.25,309.12,410.1,309.12,410.1z"/>
		<path class="st29" d="M391.56,330.49l-0.35,0.73c0,0-35.08,20.87-29.58,63.52c1.2,9.3,0.85,17.42-0.43,24.42
			c14.12-5.48,27.97-14.04,36.43-27.4c22.93-36.23-2.45-62.68-2.45-62.68S393.82,329.48,391.56,330.49z"/>
		<path class="st3" d="M381.35,461.81c13.78,1.51,45.16-10.4,69.13-1.38c10.95,4.12,17.66-8.68,8.6-23.27
			c-7.58-12.21-10.18-29.89-9.86-47.19c0.74-40.83-14.63-60.21-36.92-63.08c-31.49-4.06-52.85,37.5-44.18,63.99
			c5.14,15.72,8.53,27,4.41,49.14C370.61,450.41,370.84,460.65,381.35,461.81z"/>
		<path class="st16" d="M459.08,437.16c-7.58-12.21-10.18-29.89-9.86-47.19c0.18-9.86-0.59-18.46-2.16-25.89
			c-9.03,3.92-15.49,6.82-15.49,6.82S435.23,409.18,459.08,437.16z"/>
		<path class="st3" d="M471.46,449.54c0,0-4.89-54.42-43.72-73.99c0,0-23.92-20.25-11.08-48c0,0,88.05,13.99,72.84,117.1
			C489.5,444.65,483.54,455.35,471.46,449.54z"/>
		<path class="st19" d="M396.94,312.19c0,0,1.38,13.3-6.19,22.47c0.72,3.21,16.63,11.27,30.27-3.67c0,0-7.28-10.9-6.19-27.97
			l-1.38-7.8L396.94,312.19z"/>
		<path class="st20" d="M414.76,308.54c-0.07-1.76-0.06-3.6,0.07-5.53l-1.38-7.8l-16.51,16.97c0,0,0.72,6.99-1.77,14.33
			C400.79,328.5,410.65,328.7,414.76,308.54z"/>
		<g>
			<circle class="st27" cx="285.24" cy="428.99" r="7.75"/>
			<g>
				<g>
					<path class="st27" d="M124.38,467.7l5.92,20.49c0,0.02-0.01,0.04-0.01,0.06c0,0.45,0.14,0.87,0.38,1.22l18.17,62.89h-2.71
						c-2.38,0-4.32,1.93-4.32,4.32c0,2.38,1.93,4.32,4.32,4.32h98.36c8.47,0,15.36,5.78,15.36,12.88c0,7.1-6.89,12.88-15.36,12.88
						h-98.36c-2.38,0-4.32,1.93-4.32,4.32c0,2.38,1.93,4.32,4.32,4.32h98.36c13.23,0,23.99-9.65,23.99-21.51
						c0-9.74-7.26-17.99-17.19-20.63l34.74-118.08c0.34-1.14-0.32-2.34-1.46-2.68c-1.14-0.33-2.34,0.32-2.68,1.46l-9.12,30.99
						H126.45c-0.68,0-1.32,0.32-1.73,0.86C124.32,466.34,124.19,467.04,124.38,467.7z M135.43,490.41h20.11l4.08,18.2h-18.93
						L135.43,490.41z M141.94,512.93h18.65l4.08,18.2H147.2L141.94,512.93z M202.02,512.93h33.35l-4.08,18.2h-29.27V512.93z
						 M197.7,531.13h-28.61l-4.08-18.2h32.69V531.13z M230.32,535.45l-3.72,16.59h-24.59v-16.59H230.32z M239.79,512.93h18.86
						l-5.35,18.2h-17.58L239.79,512.93z M252.03,535.45l-4.88,16.59h-16.12l3.72-16.59H252.03z M173.78,552.04l-3.72-16.59h27.64
						v16.59H173.78z M169.35,552.04h-16.11l-4.79-16.59h17.19L169.35,552.04z M159.96,490.41h37.74v18.2h-33.66L159.96,490.41z
						 M202.02,490.41h38.4l-4.08,18.2h-34.32V490.41z M265.28,490.41l-5.35,18.2h-19.16l4.08-18.2H265.28z M129.32,469.25H271.5
						l-4.95,16.84H134.19L129.32,469.25z"/>
				</g>
				<g>
					<g>
						<circle class="st6" cx="237.09" cy="599.4" r="15.18"/>
						<circle class="st21" cx="237.09" cy="599.4" r="6.78"/>
					</g>
					<g>
						<circle class="st6" cx="163.28" cy="599.4" r="15.18"/>
						<circle class="st21" cx="163.28" cy="599.4" r="6.78"/>
					</g>
				</g>
			</g>
			<circle class="st3" cx="285.24" cy="428.99" r="3.55"/>
		</g>
		<ellipse class="st22" cx="393.95" cy="288.24" rx="24.24" ry="32.97"/>
		<path class="st19" d="M418.13,286.1c-0.79-16.69-10.71-30-23.04-30.78c-6.35,3.36-12.6,6.74-12.6,6.74S382.54,295.81,418.13,286.1
			z"/>
		<path class="st26" d="M383.72,289.26c0.11-0.41,0.68-0.45,0.82-0.05c0.86,2.4,2.01,7.6-3.13,9.82c-4.21,1.82-5.61-2.41-2.86-3.86
			C381,293.89,382.81,292.52,383.72,289.26z"/>
		<circle class="st27" cx="376.73" cy="288.19" r="1.92"/>
		<circle class="st27" cx="394.95" cy="288.94" r="1.97"/>
		<g>
			<path class="st27" d="M383.09,309.81c-0.25,0.03-0.51-0.04-0.72-0.2c-0.43-0.34-0.52-0.96-0.19-1.39
				c0.14-0.18,3.48-4.45,11.18-3.02c0.54,0.1,0.9,0.62,0.8,1.17c-0.1,0.54-0.62,0.9-1.17,0.8c-6.43-1.19-9.12,2.12-9.23,2.27
				C383.6,309.65,383.35,309.78,383.09,309.81z"/>
		</g>
		<circle class="st22" cx="418.34" cy="289.74" r="5.96"/>
		<path class="st27" d="M383.72,264.05c0,0,2.85,29.04,35.6,21.72c0,0,0.02-19.22-1.2-25.1c-1.22-5.88-26.93-10.87-26.93-10.87
			s-13.79-4.51-23.27,4.51s-10.7,28.18,1.65,33.25C369.57,287.56,369.93,273.23,383.72,264.05z"/>
	</g>
	<circle class="st11" cx="143.56" cy="346.35" r="18.57"/>
	<path class="st11" d="M221.25,282.56c1.38,4.9-2.69,10.33-9.09,12.13c-6.4,1.8-12.71-0.72-14.08-5.62
		c-1.38-4.9,3.61-7.79,10.01-9.59C214.48,277.69,219.87,277.66,221.25,282.56z"/>
</g>
</svg>
